<?xml version="1.0" encoding="UTF-8" standalone="no"?>
<!DOCTYPE svg PUBLIC "-//W3C//DTD SVG 1.1//EN"
 "http://www.w3.org/Graphics/SVG/1.1/DTD/svg11.dtd">
<!-- Generated by graphviz version 12.1.2 (20240928.0832)
 -->
<!-- Title: applications Pages: 1 -->
<svg width="789pt" height="1746pt"
 viewBox="0.00 0.00 788.99 1745.60" xmlns="http://www.w3.org/2000/svg" xmlns:xlink="http://www.w3.org/1999/xlink">
<g id="graph0" class="graph" transform="scale(1 1) rotate(0) translate(4 1741.6)">
<title>applications</title>
<polygon fill="white" stroke="none" points="-4,4 -4,-1741.6 784.99,-1741.6 784.99,4 -4,4"/>
<!-- applications -->
<g id="node1" class="node">
<title>applications</title>
<polygon fill="#efefef" stroke="none" points="241.16,-1313 241.16,-1348.6 466.62,-1348.6 466.62,-1313 241.16,-1313"/>
<polygon fill="none" stroke="black" points="241.16,-1313 241.16,-1348.6 466.62,-1348.6 466.62,-1313 241.16,-1313"/>
<text text-anchor="start" x="248.16" y="-1326.4" font-family="Arial Bold" font-size="18.00">applications</text>
<text text-anchor="start" x="335.13" y="-1326.4" font-family="Arial" font-size="14.00">    </text>
<text text-anchor="start" x="366.25" y="-1326.4" font-family="Arial" font-size="14.00" fill="#666666">[BASE TABLE]</text>
<polygon fill="none" stroke="black" points="241.16,-1282.2 241.16,-1313 466.62,-1313 466.62,-1282.2 241.16,-1282.2"/>
<text text-anchor="start" x="248.16" y="-1294.4" font-family="Arial" font-size="14.00">id </text>
<text text-anchor="start" x="262.94" y="-1294.4" font-family="Arial" font-size="14.00" fill="#666666">[bigint unsigned]</text>
<polygon fill="none" stroke="black" points="241.16,-1251.4 241.16,-1282.2 466.62,-1282.2 466.62,-1251.4 241.16,-1251.4"/>
<text text-anchor="start" x="248.16" y="-1263.6" font-family="Arial" font-size="14.00">user_id </text>
<text text-anchor="start" x="297.96" y="-1263.6" font-family="Arial" font-size="14.00" fill="#666666">[bigint unsigned]</text>
<polygon fill="none" stroke="black" points="241.16,-1220.6 241.16,-1251.4 466.62,-1251.4 466.62,-1220.6 241.16,-1220.6"/>
<text text-anchor="start" x="248.16" y="-1232.8" font-family="Arial" font-size="14.00">job_id </text>
<text text-anchor="start" x="289.41" y="-1232.8" font-family="Arial" font-size="14.00" fill="#666666">[bigint unsigned]</text>
<polygon fill="none" stroke="black" points="241.16,-1189.8 241.16,-1220.6 466.62,-1220.6 466.62,-1189.8 241.16,-1189.8"/>
<text text-anchor="start" x="248.16" y="-1202" font-family="Arial" font-size="14.00">status </text>
<text text-anchor="start" x="289.4" y="-1202" font-family="Arial" font-size="14.00" fill="#666666">[tinyint]</text>
<polygon fill="none" stroke="black" points="241.16,-1159 241.16,-1189.8 466.62,-1189.8 466.62,-1159 241.16,-1159"/>
<text text-anchor="start" x="248.16" y="-1171.2" font-family="Arial" font-size="14.00">message </text>
<text text-anchor="start" x="308.85" y="-1171.2" font-family="Arial" font-size="14.00" fill="#666666">[text]</text>
<polygon fill="none" stroke="black" points="241.16,-1128.2 241.16,-1159 466.62,-1159 466.62,-1128.2 241.16,-1128.2"/>
<text text-anchor="start" x="248.16" y="-1140.4" font-family="Arial" font-size="14.00">motivation </text>
<text text-anchor="start" x="315.85" y="-1140.4" font-family="Arial" font-size="14.00" fill="#666666">[text]</text>
<polygon fill="none" stroke="black" points="241.16,-1097.4 241.16,-1128.2 466.62,-1128.2 466.62,-1097.4 241.16,-1097.4"/>
<text text-anchor="start" x="248.16" y="-1109.6" font-family="Arial" font-size="14.00">resume_path </text>
<text text-anchor="start" x="333.76" y="-1109.6" font-family="Arial" font-size="14.00" fill="#666666">[varchar(255)]</text>
<polygon fill="none" stroke="black" points="241.16,-1066.6 241.16,-1097.4 466.62,-1097.4 466.62,-1066.6 241.16,-1066.6"/>
<text text-anchor="start" x="248.16" y="-1078.8" font-family="Arial" font-size="14.00">created_at </text>
<text text-anchor="start" x="318.21" y="-1078.8" font-family="Arial" font-size="14.00" fill="#666666">[timestamp]</text>
<polygon fill="none" stroke="black" points="241.16,-1035.8 241.16,-1066.6 466.62,-1066.6 466.62,-1035.8 241.16,-1035.8"/>
<text text-anchor="start" x="248.16" y="-1048" font-family="Arial" font-size="14.00">updated_at </text>
<text text-anchor="start" x="322.12" y="-1048" font-family="Arial" font-size="14.00" fill="#666666">[timestamp]</text>
<polygon fill="none" stroke="black" stroke-width="3" points="239.66,-1034.3 239.66,-1350.1 468.12,-1350.1 468.12,-1034.3 239.66,-1034.3"/>
</g>
<!-- users -->
<g id="node3" class="node">
<title>users</title>
<polygon fill="#efefef" stroke="none" points="89.46,-613 89.46,-648.6 300.32,-648.6 300.32,-613 89.46,-613"/>
<polygon fill="none" stroke="black" points="89.46,-613 89.46,-648.6 300.32,-648.6 300.32,-613 89.46,-613"/>
<text text-anchor="start" x="114.15" y="-626.4" font-family="Arial Bold" font-size="18.00">users</text>
<text text-anchor="start" x="151.14" y="-626.4" font-family="Arial" font-size="14.00">    </text>
<text text-anchor="start" x="182.26" y="-626.4" font-family="Arial" font-size="14.00" fill="#666666">[BASE TABLE]</text>
<polygon fill="none" stroke="black" points="89.46,-582.2 89.46,-613 300.32,-613 300.32,-582.2 89.46,-582.2"/>
<text text-anchor="start" x="96.46" y="-594.4" font-family="Arial" font-size="14.00">id </text>
<text text-anchor="start" x="111.25" y="-594.4" font-family="Arial" font-size="14.00" fill="#666666">[bigint unsigned]</text>
<polygon fill="none" stroke="black" points="89.46,-551.4 89.46,-582.2 300.32,-582.2 300.32,-551.4 89.46,-551.4"/>
<text text-anchor="start" x="96.46" y="-563.6" font-family="Arial" font-size="14.00">name </text>
<text text-anchor="start" x="135.37" y="-563.6" font-family="Arial" font-size="14.00" fill="#666666">[varchar(255)]</text>
<polygon fill="none" stroke="black" points="89.46,-520.6 89.46,-551.4 300.32,-551.4 300.32,-520.6 89.46,-520.6"/>
<text text-anchor="start" x="96.46" y="-532.8" font-family="Arial" font-size="14.00">email </text>
<text text-anchor="start" x="133.8" y="-532.8" font-family="Arial" font-size="14.00" fill="#666666">[varchar(255)]</text>
<polygon fill="none" stroke="black" points="89.46,-489.8 89.46,-520.6 300.32,-520.6 300.32,-489.8 89.46,-489.8"/>
<text text-anchor="start" x="96.46" y="-502" font-family="Arial" font-size="14.00">email_verified_at </text>
<text text-anchor="start" x="206.18" y="-502" font-family="Arial" font-size="14.00" fill="#666666">[timestamp]</text>
<polygon fill="none" stroke="black" points="89.46,-459 89.46,-489.8 300.32,-489.8 300.32,-459 89.46,-459"/>
<text text-anchor="start" x="96.46" y="-471.2" font-family="Arial" font-size="14.00">phone </text>
<text text-anchor="start" x="139.28" y="-471.2" font-family="Arial" font-size="14.00" fill="#666666">[varchar(255)]</text>
<polygon fill="none" stroke="black" points="89.46,-428.2 89.46,-459 300.32,-459 300.32,-428.2 89.46,-428.2"/>
<text text-anchor="start" x="96.46" y="-440.4" font-family="Arial" font-size="14.00">address </text>
<text text-anchor="start" x="150.16" y="-440.4" font-family="Arial" font-size="14.00" fill="#666666">[varchar(255)]</text>
<polygon fill="none" stroke="black" points="89.46,-397.4 89.46,-428.2 300.32,-428.2 300.32,-397.4 89.46,-397.4"/>
<text text-anchor="start" x="96.46" y="-409.6" font-family="Arial" font-size="14.00">password </text>
<text text-anchor="start" x="160.27" y="-409.6" font-family="Arial" font-size="14.00" fill="#666666">[varchar(255)]</text>
<polygon fill="none" stroke="black" points="89.46,-366.6 89.46,-397.4 300.32,-397.4 300.32,-366.6 89.46,-366.6"/>
<text text-anchor="start" x="96.46" y="-378.8" font-family="Arial" font-size="14.00">remember_token </text>
<text text-anchor="start" x="206.18" y="-378.8" font-family="Arial" font-size="14.00" fill="#666666">[varchar(100)]</text>
<polygon fill="none" stroke="black" points="89.46,-335.8 89.46,-366.6 300.32,-366.6 300.32,-335.8 89.46,-335.8"/>
<text text-anchor="start" x="96.46" y="-348" font-family="Arial" font-size="14.00">created_at </text>
<text text-anchor="start" x="166.51" y="-348" font-family="Arial" font-size="14.00" fill="#666666">[timestamp]</text>
<polygon fill="none" stroke="black" points="89.46,-305 89.46,-335.8 300.32,-335.8 300.32,-305 89.46,-305"/>
<text text-anchor="start" x="96.46" y="-317.2" font-family="Arial" font-size="14.00">updated_at </text>
<text text-anchor="start" x="170.42" y="-317.2" font-family="Arial" font-size="14.00" fill="#666666">[timestamp]</text>
</g>
<!-- applications&#45;&gt;users -->
<g id="edge2" class="edge">
<title>applications:user_id&#45;&gt;users:id</title>
<path fill="none" stroke="black" d="M230.09,-1264.39C156.4,-1225.36 296.86,-725.16 300.32,-691.8 304.64,-650.15 343.19,-597.6 301.32,-597.6"/>
<polygon fill="black" stroke="black" points="230.11,-1264.39 238.78,-1271.1 235.29,-1265.64 239.51,-1266.64 239.51,-1266.64 239.51,-1266.64 235.29,-1265.64 240.88,-1262.35 230.11,-1264.39"/>
<text text-anchor="start" x="7" y="-1276.8" font-family="Arial" font-size="10.00">FOREIGN KEY (user_id) REFERENCES users (id)</text>
</g>
<!-- jobs -->
<g id="node4" class="node">
<title>jobs</title>
<polygon fill="#efefef" stroke="none" points="404.54,-874.8 404.54,-910.4 623.24,-910.4 623.24,-874.8 404.54,-874.8"/>
<polygon fill="none" stroke="black" points="404.54,-874.8 404.54,-910.4 623.24,-910.4 623.24,-874.8 404.54,-874.8"/>
<text text-anchor="start" x="436.64" y="-888.2" font-family="Arial Bold" font-size="18.00">jobs</text>
<text text-anchor="start" x="466.65" y="-888.2" font-family="Arial" font-size="14.00">    </text>
<text text-anchor="start" x="497.77" y="-888.2" font-family="Arial" font-size="14.00" fill="#666666">[BASE TABLE]</text>
<polygon fill="none" stroke="black" points="404.54,-844 404.54,-874.8 623.24,-874.8 623.24,-844 404.54,-844"/>
<text text-anchor="start" x="411.54" y="-856.2" font-family="Arial" font-size="14.00">id </text>
<text text-anchor="start" x="426.33" y="-856.2" font-family="Arial" font-size="14.00" fill="#666666">[bigint unsigned]</text>
<polygon fill="none" stroke="black" points="404.54,-813.2 404.54,-844 623.24,-844 623.24,-813.2 404.54,-813.2"/>
<text text-anchor="start" x="411.54" y="-825.4" font-family="Arial" font-size="14.00">company_id </text>
<text text-anchor="start" x="490.92" y="-825.4" font-family="Arial" font-size="14.00" fill="#666666">[bigint unsigned]</text>
<polygon fill="none" stroke="black" points="404.54,-782.4 404.54,-813.2 623.24,-813.2 623.24,-782.4 404.54,-782.4"/>
<text text-anchor="start" x="411.54" y="-794.6" font-family="Arial" font-size="14.00">job_category_id </text>
<text text-anchor="start" x="514.28" y="-794.6" font-family="Arial" font-size="14.00" fill="#666666">[bigint unsigned]</text>
<polygon fill="none" stroke="black" points="404.54,-751.6 404.54,-782.4 623.24,-782.4 623.24,-751.6 404.54,-751.6"/>
<text text-anchor="start" x="411.54" y="-763.8" font-family="Arial" font-size="14.00">location_id </text>
<text text-anchor="start" x="482.37" y="-763.8" font-family="Arial" font-size="14.00" fill="#666666">[bigint unsigned]</text>
<polygon fill="none" stroke="black" points="404.54,-720.8 404.54,-751.6 623.24,-751.6 623.24,-720.8 404.54,-720.8"/>
<text text-anchor="start" x="411.54" y="-733" font-family="Arial" font-size="14.00">title </text>
<text text-anchor="start" x="437.21" y="-733" font-family="Arial" font-size="14.00" fill="#666666">[varchar(255)]</text>
<polygon fill="none" stroke="black" points="404.54,-690 404.54,-720.8 623.24,-720.8 623.24,-690 404.54,-690"/>
<text text-anchor="start" x="411.54" y="-702.2" font-family="Arial" font-size="14.00">location </text>
<text text-anchor="start" x="463.68" y="-702.2" font-family="Arial" font-size="14.00" fill="#666666">[varchar(255)]</text>
<polygon fill="none" stroke="black" points="404.54,-659.2 404.54,-690 623.24,-690 623.24,-659.2 404.54,-659.2"/>
<text text-anchor="start" x="411.54" y="-671.4" font-family="Arial" font-size="14.00">salary_min </text>
<text text-anchor="start" x="483.12" y="-671.4" font-family="Arial" font-size="14.00" fill="#666666">[int unsigned]</text>
<polygon fill="none" stroke="black" points="404.54,-628.4 404.54,-659.2 623.24,-659.2 623.24,-628.4 404.54,-628.4"/>
<text text-anchor="start" x="411.54" y="-640.6" font-family="Arial" font-size="14.00">salary_max </text>
<text text-anchor="start" x="487.01" y="-640.6" font-family="Arial" font-size="14.00" fill="#666666">[int unsigned]</text>
<polygon fill="none" stroke="black" points="404.54,-597.6 404.54,-628.4 623.24,-628.4 623.24,-597.6 404.54,-597.6"/>
<text text-anchor="start" x="411.54" y="-609.8" font-family="Arial" font-size="14.00">employment_type </text>
<text text-anchor="start" x="525.93" y="-609.8" font-family="Arial" font-size="14.00" fill="#666666">[tinyint]</text>
<polygon fill="none" stroke="black" points="404.54,-566.8 404.54,-597.6 623.24,-597.6 623.24,-566.8 404.54,-566.8"/>
<text text-anchor="start" x="411.54" y="-579" font-family="Arial" font-size="14.00">description </text>
<text text-anchor="start" x="483.13" y="-579" font-family="Arial" font-size="14.00" fill="#666666">[text]</text>
<polygon fill="none" stroke="black" points="404.54,-536 404.54,-566.8 623.24,-566.8 623.24,-536 404.54,-536"/>
<text text-anchor="start" x="411.54" y="-548.2" font-family="Arial" font-size="14.00">requirements </text>
<text text-anchor="start" x="497.13" y="-548.2" font-family="Arial" font-size="14.00" fill="#666666">[text]</text>
<polygon fill="none" stroke="black" points="404.54,-505.2 404.54,-536 623.24,-536 623.24,-505.2 404.54,-505.2"/>
<text text-anchor="start" x="411.54" y="-517.4" font-family="Arial" font-size="14.00">welcome_skills </text>
<text text-anchor="start" x="508.79" y="-517.4" font-family="Arial" font-size="14.00" fill="#666666">[text]</text>
<polygon fill="none" stroke="black" points="404.54,-474.4 404.54,-505.2 623.24,-505.2 623.24,-474.4 404.54,-474.4"/>
<text text-anchor="start" x="411.54" y="-486.6" font-family="Arial" font-size="14.00">required_qualifications </text>
<text text-anchor="start" x="555.52" y="-486.6" font-family="Arial" font-size="14.00" fill="#666666">[text]</text>
<polygon fill="none" stroke="black" points="404.54,-443.6 404.54,-474.4 623.24,-474.4 623.24,-443.6 404.54,-443.6"/>
<text text-anchor="start" x="411.54" y="-455.8" font-family="Arial" font-size="14.00">tools </text>
<text text-anchor="start" x="445" y="-455.8" font-family="Arial" font-size="14.00" fill="#666666">[text]</text>
<polygon fill="none" stroke="black" points="404.54,-412.8 404.54,-443.6 623.24,-443.6 623.24,-412.8 404.54,-412.8"/>
<text text-anchor="start" x="411.54" y="-425" font-family="Arial" font-size="14.00">selection_flow </text>
<text text-anchor="start" x="503.37" y="-425" font-family="Arial" font-size="14.00" fill="#666666">[text]</text>
<polygon fill="none" stroke="black" points="404.54,-382 404.54,-412.8 623.24,-412.8 623.24,-382 404.54,-382"/>
<text text-anchor="start" x="411.54" y="-394.2" font-family="Arial" font-size="14.00">required_documents </text>
<text text-anchor="start" x="543.06" y="-394.2" font-family="Arial" font-size="14.00" fill="#666666">[text]</text>
<polygon fill="none" stroke="black" points="404.54,-351.2 404.54,-382 623.24,-382 623.24,-351.2 404.54,-351.2"/>
<text text-anchor="start" x="411.54" y="-363.4" font-family="Arial" font-size="14.00">interview_place </text>
<text text-anchor="start" x="511.92" y="-363.4" font-family="Arial" font-size="14.00" fill="#666666">[varchar(255)]</text>
<polygon fill="none" stroke="black" points="404.54,-320.4 404.54,-351.2 623.24,-351.2 623.24,-320.4 404.54,-320.4"/>
<text text-anchor="start" x="411.54" y="-332.6" font-family="Arial" font-size="14.00">benefits </text>
<text text-anchor="start" x="464.46" y="-332.6" font-family="Arial" font-size="14.00" fill="#666666">[text]</text>
<polygon fill="none" stroke="black" points="404.54,-289.6 404.54,-320.4 623.24,-320.4 623.24,-289.6 404.54,-289.6"/>
<text text-anchor="start" x="411.54" y="-301.8" font-family="Arial" font-size="14.00">work_time </text>
<text text-anchor="start" x="479.22" y="-301.8" font-family="Arial" font-size="14.00" fill="#666666">[varchar(255)]</text>
<polygon fill="none" stroke="black" points="404.54,-258.8 404.54,-289.6 623.24,-289.6 623.24,-258.8 404.54,-258.8"/>
<text text-anchor="start" x="411.54" y="-271" font-family="Arial" font-size="14.00">holiday </text>
<text text-anchor="start" x="459.79" y="-271" font-family="Arial" font-size="14.00" fill="#666666">[varchar(255)]</text>
<polygon fill="none" stroke="black" points="404.54,-228 404.54,-258.8 623.24,-258.8 623.24,-228 404.54,-228"/>
<text text-anchor="start" x="411.54" y="-240.2" font-family="Arial" font-size="14.00">number_of_positions </text>
<text text-anchor="start" x="545.4" y="-240.2" font-family="Arial" font-size="14.00" fill="#666666">[int]</text>
<polygon fill="none" stroke="black" points="404.54,-197.2 404.54,-228 623.24,-228 623.24,-197.2 404.54,-197.2"/>
<text text-anchor="start" x="411.54" y="-209.4" font-family="Arial" font-size="14.00">is_active </text>
<text text-anchor="start" x="469.9" y="-209.4" font-family="Arial" font-size="14.00" fill="#666666">[tinyint(1)]</text>
<polygon fill="none" stroke="black" points="404.54,-166.4 404.54,-197.2 623.24,-197.2 623.24,-166.4 404.54,-166.4"/>
<text text-anchor="start" x="411.54" y="-178.6" font-family="Arial" font-size="14.00">is_featured </text>
<text text-anchor="start" x="484.7" y="-178.6" font-family="Arial" font-size="14.00" fill="#666666">[tinyint(1)]</text>
<polygon fill="none" stroke="black" points="404.54,-135.6 404.54,-166.4 623.24,-166.4 623.24,-135.6 404.54,-135.6"/>
<text text-anchor="start" x="411.54" y="-147.8" font-family="Arial" font-size="14.00">is_closed </text>
<text text-anchor="start" x="473.79" y="-147.8" font-family="Arial" font-size="14.00" fill="#666666">[tinyint(1)]</text>
<polygon fill="none" stroke="black" points="404.54,-104.8 404.54,-135.6 623.24,-135.6 623.24,-104.8 404.54,-104.8"/>
<text text-anchor="start" x="411.54" y="-117" font-family="Arial" font-size="14.00">application_deadline </text>
<text text-anchor="start" x="543.09" y="-117" font-family="Arial" font-size="14.00" fill="#666666">[date]</text>
<polygon fill="none" stroke="black" points="404.54,-74 404.54,-104.8 623.24,-104.8 623.24,-74 404.54,-74"/>
<text text-anchor="start" x="411.54" y="-86.2" font-family="Arial" font-size="14.00">created_at </text>
<text text-anchor="start" x="481.59" y="-86.2" font-family="Arial" font-size="14.00" fill="#666666">[timestamp]</text>
<polygon fill="none" stroke="black" points="404.54,-43.2 404.54,-74 623.24,-74 623.24,-43.2 404.54,-43.2"/>
<text text-anchor="start" x="411.54" y="-55.4" font-family="Arial" font-size="14.00">updated_at </text>
<text text-anchor="start" x="485.5" y="-55.4" font-family="Arial" font-size="14.00" fill="#666666">[timestamp]</text>
</g>
<!-- applications&#45;&gt;jobs -->
<g id="edge3" class="edge">
<title>applications:job_id&#45;&gt;jobs:id</title>
<path fill="none" stroke="black" d="M477.99,-1235.51C573.44,-1225.99 519.66,-1081.23 466.62,-989.6 450.64,-961.99 420.61,-981.15 404.54,-953.6 383.45,-917.43 361.67,-859.4 403.54,-859.4"/>
<polygon fill="black" stroke="black" points="477.95,-1235.51 467.74,-1231.49 472.62,-1235.76 468.29,-1235.97 468.29,-1235.97 468.29,-1235.97 472.62,-1235.76 468.17,-1240.48 477.95,-1235.51"/>
<text text-anchor="start" x="474.62" y="-1246" font-family="Arial" font-size="10.00">FOREIGN KEY (job_id) REFERENCES jobs (id)</text>
</g>
<!-- application_files -->
<g id="node2" class="node">
<title>application_files</title>
<polygon fill="#efefef" stroke="none" points="224.66,-1658.8 224.66,-1694.4 483.12,-1694.4 483.12,-1658.8 224.66,-1658.8"/>
<polygon fill="none" stroke="black" points="224.66,-1658.8 224.66,-1694.4 483.12,-1694.4 483.12,-1658.8 224.66,-1658.8"/>
<text text-anchor="start" x="231.66" y="-1672.2" font-family="Arial Bold" font-size="18.00">application_files</text>
<text text-anchor="start" x="351.63" y="-1672.2" font-family="Arial" font-size="14.00">    </text>
<text text-anchor="start" x="382.74" y="-1672.2" font-family="Arial" font-size="14.00" fill="#666666">[BASE TABLE]</text>
<polygon fill="none" stroke="black" points="224.66,-1628 224.66,-1658.8 483.12,-1658.8 483.12,-1628 224.66,-1628"/>
<text text-anchor="start" x="231.66" y="-1640.2" font-family="Arial" font-size="14.00">id </text>
<text text-anchor="start" x="246.45" y="-1640.2" font-family="Arial" font-size="14.00" fill="#666666">[bigint unsigned]</text>
<polygon fill="none" stroke="black" points="224.66,-1597.2 224.66,-1628 483.12,-1628 483.12,-1597.2 224.66,-1597.2"/>
<text text-anchor="start" x="231.66" y="-1609.4" font-family="Arial" font-size="14.00">application_id </text>
<text text-anchor="start" x="321.17" y="-1609.4" font-family="Arial" font-size="14.00" fill="#666666">[bigint unsigned]</text>
<polygon fill="none" stroke="black" points="224.66,-1566.4 224.66,-1597.2 483.12,-1597.2 483.12,-1566.4 224.66,-1566.4"/>
<text text-anchor="start" x="231.66" y="-1578.6" font-family="Arial" font-size="14.00">file_path </text>
<text text-anchor="start" x="288.48" y="-1578.6" font-family="Arial" font-size="14.00" fill="#666666">[varchar(255)]</text>
<polygon fill="none" stroke="black" points="224.66,-1535.6 224.66,-1566.4 483.12,-1566.4 483.12,-1535.6 224.66,-1535.6"/>
<text text-anchor="start" x="231.66" y="-1547.8" font-family="Arial" font-size="14.00">original_name </text>
<text text-anchor="start" x="323.5" y="-1547.8" font-family="Arial" font-size="14.00" fill="#666666">[varchar(255)]</text>
<polygon fill="none" stroke="black" points="224.66,-1504.8 224.66,-1535.6 483.12,-1535.6 483.12,-1504.8 224.66,-1504.8"/>
<text text-anchor="start" x="231.66" y="-1517" font-family="Arial" font-size="14.00">created_at </text>
<text text-anchor="start" x="301.71" y="-1517" font-family="Arial" font-size="14.00" fill="#666666">[timestamp]</text>
<polygon fill="none" stroke="black" points="224.66,-1474 224.66,-1504.8 483.12,-1504.8 483.12,-1474 224.66,-1474"/>
<text text-anchor="start" x="231.66" y="-1486.2" font-family="Arial" font-size="14.00">updated_at </text>
<text text-anchor="start" x="305.62" y="-1486.2" font-family="Arial" font-size="14.00" fill="#666666">[timestamp]</text>
</g>
<!-- application_files&#45;&gt;applications -->
<g id="edge1" class="edge">
<title>application_files:application_id&#45;&gt;applications:id</title>
<path fill="none" stroke="black" d="M494.49,-1612C623.39,-1596.81 604.26,-1297.6 467.62,-1297.6"/>
<polygon fill="black" stroke="black" points="494.43,-1612 484.19,-1608.09 489.11,-1612.31 484.78,-1612.56 484.78,-1612.56 484.78,-1612.56 489.11,-1612.31 484.71,-1617.07 494.43,-1612"/>
<text text-anchor="start" x="491.12" y="-1622.6" font-family="Arial" font-size="10.00">FOREIGN KEY (application_id) REFERENCES applications (id)</text>
</g>
</g>
</svg>
