<?xml version="1.0" encoding="UTF-8" standalone="no"?>
<!DOCTYPE svg PUBLIC "-//W3C//DTD SVG 1.1//EN"
 "http://www.w3.org/Graphics/SVG/1.1/DTD/svg11.dtd">
<!-- Generated by graphviz version 12.1.2 (20240928.0832)
 -->
<!-- Title: application_files Pages: 1 -->
<svg width="611pt" height="756pt"
 viewBox="0.00 0.00 610.53 756.00" xmlns="http://www.w3.org/2000/svg" xmlns:xlink="http://www.w3.org/1999/xlink">
<g id="graph0" class="graph" transform="scale(1 1) rotate(0) translate(4 752)">
<title>application_files</title>
<polygon fill="white" stroke="none" points="-4,4 -4,-752 606.53,-752 606.53,4 -4,4"/>
<!-- application_files -->
<g id="node1" class="node">
<title>application_files</title>
<polygon fill="#efefef" stroke="none" points="46.2,-666.2 46.2,-701.8 304.65,-701.8 304.65,-666.2 46.2,-666.2"/>
<polygon fill="none" stroke="black" points="46.2,-666.2 46.2,-701.8 304.65,-701.8 304.65,-666.2 46.2,-666.2"/>
<text text-anchor="start" x="53.2" y="-679.6" font-family="Arial Bold" font-size="18.00">application_files</text>
<text text-anchor="start" x="173.16" y="-679.6" font-family="Arial" font-size="14.00">    </text>
<text text-anchor="start" x="204.28" y="-679.6" font-family="Arial" font-size="14.00" fill="#666666">[BASE TABLE]</text>
<polygon fill="none" stroke="black" points="46.2,-635.4 46.2,-666.2 304.65,-666.2 304.65,-635.4 46.2,-635.4"/>
<text text-anchor="start" x="53.2" y="-647.6" font-family="Arial" font-size="14.00">id </text>
<text text-anchor="start" x="67.99" y="-647.6" font-family="Arial" font-size="14.00" fill="#666666">[bigint unsigned]</text>
<polygon fill="none" stroke="black" points="46.2,-604.6 46.2,-635.4 304.65,-635.4 304.65,-604.6 46.2,-604.6"/>
<text text-anchor="start" x="53.2" y="-616.8" font-family="Arial" font-size="14.00">application_id </text>
<text text-anchor="start" x="142.71" y="-616.8" font-family="Arial" font-size="14.00" fill="#666666">[bigint unsigned]</text>
<polygon fill="none" stroke="black" points="46.2,-573.8 46.2,-604.6 304.65,-604.6 304.65,-573.8 46.2,-573.8"/>
<text text-anchor="start" x="53.2" y="-586" font-family="Arial" font-size="14.00">file_path </text>
<text text-anchor="start" x="110.02" y="-586" font-family="Arial" font-size="14.00" fill="#666666">[varchar(255)]</text>
<polygon fill="none" stroke="black" points="46.2,-543 46.2,-573.8 304.65,-573.8 304.65,-543 46.2,-543"/>
<text text-anchor="start" x="53.2" y="-555.2" font-family="Arial" font-size="14.00">original_name </text>
<text text-anchor="start" x="145.03" y="-555.2" font-family="Arial" font-size="14.00" fill="#666666">[varchar(255)]</text>
<polygon fill="none" stroke="black" points="46.2,-512.2 46.2,-543 304.65,-543 304.65,-512.2 46.2,-512.2"/>
<text text-anchor="start" x="53.2" y="-524.4" font-family="Arial" font-size="14.00">created_at </text>
<text text-anchor="start" x="123.25" y="-524.4" font-family="Arial" font-size="14.00" fill="#666666">[timestamp]</text>
<polygon fill="none" stroke="black" points="46.2,-481.4 46.2,-512.2 304.65,-512.2 304.65,-481.4 46.2,-481.4"/>
<text text-anchor="start" x="53.2" y="-493.6" font-family="Arial" font-size="14.00">updated_at </text>
<text text-anchor="start" x="127.16" y="-493.6" font-family="Arial" font-size="14.00" fill="#666666">[timestamp]</text>
<polygon fill="none" stroke="black" stroke-width="3" points="44.7,-479.9 44.7,-703.3 306.15,-703.3 306.15,-479.9 44.7,-479.9"/>
</g>
<!-- applications -->
<g id="node2" class="node">
<title>applications</title>
<polygon fill="#efefef" stroke="none" points="62.69,-320.4 62.69,-356 288.16,-356 288.16,-320.4 62.69,-320.4"/>
<polygon fill="none" stroke="black" points="62.69,-320.4 62.69,-356 288.16,-356 288.16,-320.4 62.69,-320.4"/>
<text text-anchor="start" x="69.69" y="-333.8" font-family="Arial Bold" font-size="18.00">applications</text>
<text text-anchor="start" x="156.67" y="-333.8" font-family="Arial" font-size="14.00">    </text>
<text text-anchor="start" x="187.79" y="-333.8" font-family="Arial" font-size="14.00" fill="#666666">[BASE TABLE]</text>
<polygon fill="none" stroke="black" points="62.69,-289.6 62.69,-320.4 288.16,-320.4 288.16,-289.6 62.69,-289.6"/>
<text text-anchor="start" x="69.69" y="-301.8" font-family="Arial" font-size="14.00">id </text>
<text text-anchor="start" x="84.48" y="-301.8" font-family="Arial" font-size="14.00" fill="#666666">[bigint unsigned]</text>
<polygon fill="none" stroke="black" points="62.69,-258.8 62.69,-289.6 288.16,-289.6 288.16,-258.8 62.69,-258.8"/>
<text text-anchor="start" x="69.69" y="-271" font-family="Arial" font-size="14.00">user_id </text>
<text text-anchor="start" x="119.5" y="-271" font-family="Arial" font-size="14.00" fill="#666666">[bigint unsigned]</text>
<polygon fill="none" stroke="black" points="62.69,-228 62.69,-258.8 288.16,-258.8 288.16,-228 62.69,-228"/>
<text text-anchor="start" x="69.69" y="-240.2" font-family="Arial" font-size="14.00">job_id </text>
<text text-anchor="start" x="110.95" y="-240.2" font-family="Arial" font-size="14.00" fill="#666666">[bigint unsigned]</text>
<polygon fill="none" stroke="black" points="62.69,-197.2 62.69,-228 288.16,-228 288.16,-197.2 62.69,-197.2"/>
<text text-anchor="start" x="69.69" y="-209.4" font-family="Arial" font-size="14.00">status </text>
<text text-anchor="start" x="110.93" y="-209.4" font-family="Arial" font-size="14.00" fill="#666666">[tinyint]</text>
<polygon fill="none" stroke="black" points="62.69,-166.4 62.69,-197.2 288.16,-197.2 288.16,-166.4 62.69,-166.4"/>
<text text-anchor="start" x="69.69" y="-178.6" font-family="Arial" font-size="14.00">message </text>
<text text-anchor="start" x="130.39" y="-178.6" font-family="Arial" font-size="14.00" fill="#666666">[text]</text>
<polygon fill="none" stroke="black" points="62.69,-135.6 62.69,-166.4 288.16,-166.4 288.16,-135.6 62.69,-135.6"/>
<text text-anchor="start" x="69.69" y="-147.8" font-family="Arial" font-size="14.00">motivation </text>
<text text-anchor="start" x="137.39" y="-147.8" font-family="Arial" font-size="14.00" fill="#666666">[text]</text>
<polygon fill="none" stroke="black" points="62.69,-104.8 62.69,-135.6 288.16,-135.6 288.16,-104.8 62.69,-104.8"/>
<text text-anchor="start" x="69.69" y="-117" font-family="Arial" font-size="14.00">resume_path </text>
<text text-anchor="start" x="155.3" y="-117" font-family="Arial" font-size="14.00" fill="#666666">[varchar(255)]</text>
<polygon fill="none" stroke="black" points="62.69,-74 62.69,-104.8 288.16,-104.8 288.16,-74 62.69,-74"/>
<text text-anchor="start" x="69.69" y="-86.2" font-family="Arial" font-size="14.00">created_at </text>
<text text-anchor="start" x="139.74" y="-86.2" font-family="Arial" font-size="14.00" fill="#666666">[timestamp]</text>
<polygon fill="none" stroke="black" points="62.69,-43.2 62.69,-74 288.16,-74 288.16,-43.2 62.69,-43.2"/>
<text text-anchor="start" x="69.69" y="-55.4" font-family="Arial" font-size="14.00">updated_at </text>
<text text-anchor="start" x="143.65" y="-55.4" font-family="Arial" font-size="14.00" fill="#666666">[timestamp]</text>
</g>
<!-- application_files&#45;&gt;applications -->
<g id="edge1" class="edge">
<title>application_files:application_id&#45;&gt;applications:id</title>
<path fill="none" stroke="black" d="M315.66,-617.65C373.93,-588.82 355.69,-305 289.16,-305"/>
<polygon fill="black" stroke="black" points="315.71,-617.63 304.95,-615.54 310.52,-618.86 306.3,-619.85 306.3,-619.85 306.3,-619.85 310.52,-618.86 307.01,-624.3 315.71,-617.63"/>
<text text-anchor="start" x="312.65" y="-630" font-family="Arial" font-size="10.00">FOREIGN KEY (application_id) REFERENCES applications (id)</text>
</g>
</g>
</svg>
