<?xml version="1.0" encoding="UTF-8" standalone="no"?>
<!DOCTYPE svg PUBLIC "-//W3C//DTD SVG 1.1//EN"
 "http://www.w3.org/Graphics/SVG/1.1/DTD/svg11.dtd">
<!-- Generated by graphviz version 12.1.2 (20240928.0832)
 -->
<!-- Title: areas Pages: 1 -->
<svg width="497pt" height="694pt"
 viewBox="0.00 0.00 497.04 694.40" xmlns="http://www.w3.org/2000/svg" xmlns:xlink="http://www.w3.org/1999/xlink">
<g id="graph0" class="graph" transform="scale(1 1) rotate(0) translate(4 690.4)">
<title>areas</title>
<polygon fill="white" stroke="none" points="-4,4 -4,-690.4 493.04,-690.4 493.04,4 -4,4"/>
<!-- areas -->
<g id="node1" class="node">
<title>areas</title>
<polygon fill="#efefef" stroke="none" points="46.2,-231 46.2,-266.6 243.85,-266.6 243.85,-231 46.2,-231"/>
<polygon fill="none" stroke="black" points="46.2,-231 46.2,-266.6 243.85,-266.6 243.85,-231 46.2,-231"/>
<text text-anchor="start" x="64.3" y="-244.4" font-family="Arial Bold" font-size="18.00">areas</text>
<text text-anchor="start" x="101.26" y="-244.4" font-family="Arial" font-size="14.00">    </text>
<text text-anchor="start" x="132.38" y="-244.4" font-family="Arial" font-size="14.00" fill="#666666">[BASE TABLE]</text>
<polygon fill="none" stroke="black" points="46.2,-200.2 46.2,-231 243.85,-231 243.85,-200.2 46.2,-200.2"/>
<text text-anchor="start" x="53.2" y="-212.4" font-family="Arial" font-size="14.00">id </text>
<text text-anchor="start" x="67.99" y="-212.4" font-family="Arial" font-size="14.00" fill="#666666">[bigint unsigned]</text>
<polygon fill="none" stroke="black" points="46.2,-169.4 46.2,-200.2 243.85,-200.2 243.85,-169.4 46.2,-169.4"/>
<text text-anchor="start" x="53.2" y="-181.6" font-family="Arial" font-size="14.00">name </text>
<text text-anchor="start" x="92.11" y="-181.6" font-family="Arial" font-size="14.00" fill="#666666">[varchar(255)]</text>
<polygon fill="none" stroke="black" points="46.2,-138.6 46.2,-169.4 243.85,-169.4 243.85,-138.6 46.2,-138.6"/>
<text text-anchor="start" x="53.2" y="-150.8" font-family="Arial" font-size="14.00">slug </text>
<text text-anchor="start" x="82.77" y="-150.8" font-family="Arial" font-size="14.00" fill="#666666">[varchar(255)]</text>
<polygon fill="none" stroke="black" points="46.2,-107.8 46.2,-138.6 243.85,-138.6 243.85,-107.8 46.2,-107.8"/>
<text text-anchor="start" x="53.2" y="-120" font-family="Arial" font-size="14.00">sort_order </text>
<text text-anchor="start" x="120.9" y="-120" font-family="Arial" font-size="14.00" fill="#666666">[smallint unsigned]</text>
<polygon fill="none" stroke="black" points="46.2,-77 46.2,-107.8 243.85,-107.8 243.85,-77 46.2,-77"/>
<text text-anchor="start" x="53.2" y="-89.2" font-family="Arial" font-size="14.00">created_at </text>
<text text-anchor="start" x="123.25" y="-89.2" font-family="Arial" font-size="14.00" fill="#666666">[timestamp]</text>
<polygon fill="none" stroke="black" points="46.2,-46.2 46.2,-77 243.85,-77 243.85,-46.2 46.2,-46.2"/>
<text text-anchor="start" x="53.2" y="-58.4" font-family="Arial" font-size="14.00">updated_at </text>
<text text-anchor="start" x="127.16" y="-58.4" font-family="Arial" font-size="14.00" fill="#666666">[timestamp]</text>
<polygon fill="none" stroke="black" stroke-width="3" points="44.7,-44.7 44.7,-268.1 245.35,-268.1 245.35,-44.7 44.7,-44.7"/>
</g>
<!-- locations -->
<g id="node2" class="node">
<title>locations</title>
<polygon fill="#efefef" stroke="none" points="43.29,-607.6 43.29,-643.2 246.76,-643.2 246.76,-607.6 43.29,-607.6"/>
<polygon fill="none" stroke="black" points="43.29,-607.6 43.29,-643.2 246.76,-643.2 246.76,-607.6 43.29,-607.6"/>
<text text-anchor="start" x="50.29" y="-621" font-family="Arial Bold" font-size="18.00">locations</text>
<text text-anchor="start" x="115.27" y="-621" font-family="Arial" font-size="14.00">    </text>
<text text-anchor="start" x="146.39" y="-621" font-family="Arial" font-size="14.00" fill="#666666">[BASE TABLE]</text>
<polygon fill="none" stroke="black" points="43.29,-576.8 43.29,-607.6 246.76,-607.6 246.76,-576.8 43.29,-576.8"/>
<text text-anchor="start" x="50.29" y="-589" font-family="Arial" font-size="14.00">id </text>
<text text-anchor="start" x="65.07" y="-589" font-family="Arial" font-size="14.00" fill="#666666">[bigint unsigned]</text>
<polygon fill="none" stroke="black" points="43.29,-546 43.29,-576.8 246.76,-576.8 246.76,-546 43.29,-546"/>
<text text-anchor="start" x="50.29" y="-558.2" font-family="Arial" font-size="14.00">name </text>
<text text-anchor="start" x="89.2" y="-558.2" font-family="Arial" font-size="14.00" fill="#666666">[varchar(255)]</text>
<polygon fill="none" stroke="black" points="43.29,-515.2 43.29,-546 246.76,-546 246.76,-515.2 43.29,-515.2"/>
<text text-anchor="start" x="50.29" y="-527.4" font-family="Arial" font-size="14.00">slug </text>
<text text-anchor="start" x="79.86" y="-527.4" font-family="Arial" font-size="14.00" fill="#666666">[varchar(255)]</text>
<polygon fill="none" stroke="black" points="43.29,-484.4 43.29,-515.2 246.76,-515.2 246.76,-484.4 43.29,-484.4"/>
<text text-anchor="start" x="50.29" y="-496.6" font-family="Arial" font-size="14.00">area_id </text>
<text text-anchor="start" x="100.88" y="-496.6" font-family="Arial" font-size="14.00" fill="#666666">[bigint unsigned]</text>
<polygon fill="none" stroke="black" points="43.29,-453.6 43.29,-484.4 246.76,-484.4 246.76,-453.6 43.29,-453.6"/>
<text text-anchor="start" x="50.29" y="-465.8" font-family="Arial" font-size="14.00">sort_order </text>
<text text-anchor="start" x="117.98" y="-465.8" font-family="Arial" font-size="14.00" fill="#666666">[smallint unsigned]</text>
<polygon fill="none" stroke="black" points="43.29,-422.8 43.29,-453.6 246.76,-453.6 246.76,-422.8 43.29,-422.8"/>
<text text-anchor="start" x="50.29" y="-435" font-family="Arial" font-size="14.00">created_at </text>
<text text-anchor="start" x="120.33" y="-435" font-family="Arial" font-size="14.00" fill="#666666">[timestamp]</text>
<polygon fill="none" stroke="black" points="43.29,-392 43.29,-422.8 246.76,-422.8 246.76,-392 43.29,-392"/>
<text text-anchor="start" x="50.29" y="-404.2" font-family="Arial" font-size="14.00">updated_at </text>
<text text-anchor="start" x="124.24" y="-404.2" font-family="Arial" font-size="14.00" fill="#666666">[timestamp]</text>
</g>
<!-- locations&#45;&gt;areas -->
<g id="edge1" class="edge">
<title>locations:area_id&#45;&gt;areas:id</title>
<path fill="none" stroke="black" d="M257.86,-497.17C310.4,-468.52 304.43,-215.6 244.85,-215.6"/>
<polygon fill="black" stroke="black" points="257.76,-497.19 246.95,-495.36 252.6,-498.54 248.41,-499.63 248.41,-499.63 248.41,-499.63 252.6,-498.54 249.22,-504.07 257.76,-497.19"/>
<text text-anchor="start" x="254.76" y="-509.8" font-family="Arial" font-size="10.00">FOREIGN KEY (area_id) REFERENCES areas (id)</text>
</g>
</g>
</svg>
