<?xml version="1.0" encoding="UTF-8" standalone="no"?>
<!DOCTYPE svg PUBLIC "-//W3C//DTD SVG 1.1//EN"
 "http://www.w3.org/Graphics/SVG/1.1/DTD/svg11.dtd">
<!-- Generated by graphviz version 12.1.2 (20240928.0832)
 -->
<!-- Title: company_applications Pages: 1 -->
<svg width="401pt" height="567pt"
 viewBox="0.00 0.00 400.85 567.20" xmlns="http://www.w3.org/2000/svg" xmlns:xlink="http://www.w3.org/1999/xlink">
<g id="graph0" class="graph" transform="scale(1 1) rotate(0) translate(4 563.2)">
<title>company_applications</title>
<polygon fill="white" stroke="none" points="-4,4 -4,-563.2 396.85,-563.2 396.85,4 -4,4"/>
<!-- company_applications -->
<g id="node1" class="node">
<title>company_applications</title>
<polygon fill="#efefef" stroke="none" points="46.2,-477.4 46.2,-513 346.65,-513 346.65,-477.4 46.2,-477.4"/>
<polygon fill="none" stroke="black" points="46.2,-477.4 46.2,-513 346.65,-513 346.65,-477.4 46.2,-477.4"/>
<text text-anchor="start" x="53.2" y="-490.8" font-family="Arial Bold" font-size="18.00">company_applications</text>
<text text-anchor="start" x="215.16" y="-490.8" font-family="Arial" font-size="14.00">    </text>
<text text-anchor="start" x="246.27" y="-490.8" font-family="Arial" font-size="14.00" fill="#666666">[BASE TABLE]</text>
<polygon fill="none" stroke="black" points="46.2,-446.6 46.2,-477.4 346.65,-477.4 346.65,-446.6 46.2,-446.6"/>
<text text-anchor="start" x="53.2" y="-458.8" font-family="Arial" font-size="14.00">id </text>
<text text-anchor="start" x="67.99" y="-458.8" font-family="Arial" font-size="14.00" fill="#666666">[bigint unsigned]</text>
<polygon fill="none" stroke="black" points="46.2,-415.8 46.2,-446.6 346.65,-446.6 346.65,-415.8 46.2,-415.8"/>
<text text-anchor="start" x="53.2" y="-428" font-family="Arial" font-size="14.00">company_name </text>
<text text-anchor="start" x="156.7" y="-428" font-family="Arial" font-size="14.00" fill="#666666">[varchar(255)]</text>
<polygon fill="none" stroke="black" points="46.2,-385 46.2,-415.8 346.65,-415.8 346.65,-385 46.2,-385"/>
<text text-anchor="start" x="53.2" y="-397.2" font-family="Arial" font-size="14.00">company_email </text>
<text text-anchor="start" x="155.14" y="-397.2" font-family="Arial" font-size="14.00" fill="#666666">[varchar(255)]</text>
<polygon fill="none" stroke="black" points="46.2,-354.2 46.2,-385 346.65,-385 346.65,-354.2 46.2,-354.2"/>
<text text-anchor="start" x="53.2" y="-366.4" font-family="Arial" font-size="14.00">company_description </text>
<text text-anchor="start" x="189.39" y="-366.4" font-family="Arial" font-size="14.00" fill="#666666">[text]</text>
<polygon fill="none" stroke="black" points="46.2,-323.4 46.2,-354.2 346.65,-354.2 346.65,-323.4 46.2,-323.4"/>
<text text-anchor="start" x="53.2" y="-335.6" font-family="Arial" font-size="14.00">contact_name </text>
<text text-anchor="start" x="145.03" y="-335.6" font-family="Arial" font-size="14.00" fill="#666666">[varchar(255)]</text>
<polygon fill="none" stroke="black" points="46.2,-292.6 46.2,-323.4 346.65,-323.4 346.65,-292.6 46.2,-292.6"/>
<text text-anchor="start" x="53.2" y="-304.8" font-family="Arial" font-size="14.00">contact_email </text>
<text text-anchor="start" x="143.47" y="-304.8" font-family="Arial" font-size="14.00" fill="#666666">[varchar(255)]</text>
<polygon fill="none" stroke="black" points="46.2,-261.8 46.2,-292.6 346.65,-292.6 346.65,-261.8 46.2,-261.8"/>
<text text-anchor="start" x="53.2" y="-274" font-family="Arial" font-size="14.00">contact_phone </text>
<text text-anchor="start" x="148.94" y="-274" font-family="Arial" font-size="14.00" fill="#666666">[varchar(255)]</text>
<polygon fill="none" stroke="black" points="46.2,-231 46.2,-261.8 346.65,-261.8 346.65,-231 46.2,-231"/>
<text text-anchor="start" x="53.2" y="-243.2" font-family="Arial" font-size="14.00">status </text>
<text text-anchor="start" x="94.44" y="-243.2" font-family="Arial" font-size="14.00" fill="#666666">[enum(&#39;pending&#39;,&#39;approved&#39;,&#39;rejected&#39;)]</text>
<polygon fill="none" stroke="black" points="46.2,-200.2 46.2,-231 346.65,-231 346.65,-200.2 46.2,-200.2"/>
<text text-anchor="start" x="53.2" y="-212.4" font-family="Arial" font-size="14.00">rejection_reason </text>
<text text-anchor="start" x="160.6" y="-212.4" font-family="Arial" font-size="14.00" fill="#666666">[text]</text>
<polygon fill="none" stroke="black" points="46.2,-169.4 46.2,-200.2 346.65,-200.2 346.65,-169.4 46.2,-169.4"/>
<text text-anchor="start" x="53.2" y="-181.6" font-family="Arial" font-size="14.00">approved_at </text>
<text text-anchor="start" x="134.93" y="-181.6" font-family="Arial" font-size="14.00" fill="#666666">[datetime]</text>
<polygon fill="none" stroke="black" points="46.2,-138.6 46.2,-169.4 346.65,-169.4 346.65,-138.6 46.2,-138.6"/>
<text text-anchor="start" x="53.2" y="-150.8" font-family="Arial" font-size="14.00">rejected_at </text>
<text text-anchor="start" x="126.36" y="-150.8" font-family="Arial" font-size="14.00" fill="#666666">[datetime]</text>
<polygon fill="none" stroke="black" points="46.2,-107.8 46.2,-138.6 346.65,-138.6 346.65,-107.8 46.2,-107.8"/>
<text text-anchor="start" x="53.2" y="-120" font-family="Arial" font-size="14.00">admin_user_id </text>
<text text-anchor="start" x="148.92" y="-120" font-family="Arial" font-size="14.00" fill="#666666">[bigint unsigned]</text>
<polygon fill="none" stroke="black" points="46.2,-77 46.2,-107.8 346.65,-107.8 346.65,-77 46.2,-77"/>
<text text-anchor="start" x="53.2" y="-89.2" font-family="Arial" font-size="14.00">created_at </text>
<text text-anchor="start" x="123.25" y="-89.2" font-family="Arial" font-size="14.00" fill="#666666">[timestamp]</text>
<polygon fill="none" stroke="black" points="46.2,-46.2 46.2,-77 346.65,-77 346.65,-46.2 46.2,-46.2"/>
<text text-anchor="start" x="53.2" y="-58.4" font-family="Arial" font-size="14.00">updated_at </text>
<text text-anchor="start" x="127.16" y="-58.4" font-family="Arial" font-size="14.00" fill="#666666">[timestamp]</text>
<polygon fill="none" stroke="black" stroke-width="3" points="44.7,-44.7 44.7,-514.5 348.15,-514.5 348.15,-44.7 44.7,-44.7"/>
</g>
</g>
</svg>
