<?xml version="1.0" encoding="UTF-8" standalone="no"?>
<!DOCTYPE svg PUBLIC "-//W3C//DTD SVG 1.1//EN"
 "http://www.w3.org/Graphics/SVG/1.1/DTD/svg11.dtd">
<!-- Generated by graphviz version 12.1.2 (20240928.0832)
 -->
<!-- Title: company_users Pages: 1 -->
<svg width="591pt" height="941pt"
 viewBox="0.00 0.00 590.85 940.80" xmlns="http://www.w3.org/2000/svg" xmlns:xlink="http://www.w3.org/1999/xlink">
<g id="graph0" class="graph" transform="scale(1 1) rotate(0) translate(4 936.8)">
<title>company_users</title>
<polygon fill="white" stroke="none" points="-4,4 -4,-936.8 586.85,-936.8 586.85,4 -4,4"/>
<!-- company_users -->
<g id="node1" class="node">
<title>company_users</title>
<polygon fill="#efefef" stroke="none" points="46.2,-851 46.2,-886.6 296.66,-886.6 296.66,-851 46.2,-851"/>
<polygon fill="none" stroke="black" points="46.2,-851 46.2,-886.6 296.66,-886.6 296.66,-851 46.2,-851"/>
<text text-anchor="start" x="53.2" y="-864.4" font-family="Arial Bold" font-size="18.00">company_users</text>
<text text-anchor="start" x="165.17" y="-864.4" font-family="Arial" font-size="14.00">    </text>
<text text-anchor="start" x="196.29" y="-864.4" font-family="Arial" font-size="14.00" fill="#666666">[BASE TABLE]</text>
<polygon fill="none" stroke="black" points="46.2,-820.2 46.2,-851 296.66,-851 296.66,-820.2 46.2,-820.2"/>
<text text-anchor="start" x="53.2" y="-832.4" font-family="Arial" font-size="14.00">id </text>
<text text-anchor="start" x="67.99" y="-832.4" font-family="Arial" font-size="14.00" fill="#666666">[bigint unsigned]</text>
<polygon fill="none" stroke="black" points="46.2,-789.4 46.2,-820.2 296.66,-820.2 296.66,-789.4 46.2,-789.4"/>
<text text-anchor="start" x="53.2" y="-801.6" font-family="Arial" font-size="14.00">company_id </text>
<text text-anchor="start" x="132.58" y="-801.6" font-family="Arial" font-size="14.00" fill="#666666">[bigint unsigned]</text>
<polygon fill="none" stroke="black" points="46.2,-758.6 46.2,-789.4 296.66,-789.4 296.66,-758.6 46.2,-758.6"/>
<text text-anchor="start" x="53.2" y="-770.8" font-family="Arial" font-size="14.00">name </text>
<text text-anchor="start" x="92.11" y="-770.8" font-family="Arial" font-size="14.00" fill="#666666">[varchar(255)]</text>
<polygon fill="none" stroke="black" points="46.2,-727.8 46.2,-758.6 296.66,-758.6 296.66,-727.8 46.2,-727.8"/>
<text text-anchor="start" x="53.2" y="-740" font-family="Arial" font-size="14.00">email </text>
<text text-anchor="start" x="90.54" y="-740" font-family="Arial" font-size="14.00" fill="#666666">[varchar(255)]</text>
<polygon fill="none" stroke="black" points="46.2,-697 46.2,-727.8 296.66,-727.8 296.66,-697 46.2,-697"/>
<text text-anchor="start" x="53.2" y="-709.2" font-family="Arial" font-size="14.00">password </text>
<text text-anchor="start" x="117.01" y="-709.2" font-family="Arial" font-size="14.00" fill="#666666">[varchar(255)]</text>
<polygon fill="none" stroke="black" points="46.2,-666.2 46.2,-697 296.66,-697 296.66,-666.2 46.2,-666.2"/>
<text text-anchor="start" x="53.2" y="-678.4" font-family="Arial" font-size="14.00">role </text>
<text text-anchor="start" x="80.43" y="-678.4" font-family="Arial" font-size="14.00" fill="#666666">[tinyint]</text>
<polygon fill="none" stroke="black" points="46.2,-635.4 46.2,-666.2 296.66,-666.2 296.66,-635.4 46.2,-635.4"/>
<text text-anchor="start" x="53.2" y="-647.6" font-family="Arial" font-size="14.00">remember_token </text>
<text text-anchor="start" x="162.92" y="-647.6" font-family="Arial" font-size="14.00" fill="#666666">[varchar(100)]</text>
<polygon fill="none" stroke="black" points="46.2,-604.6 46.2,-635.4 296.66,-635.4 296.66,-604.6 46.2,-604.6"/>
<text text-anchor="start" x="53.2" y="-616.8" font-family="Arial" font-size="14.00">created_at </text>
<text text-anchor="start" x="123.25" y="-616.8" font-family="Arial" font-size="14.00" fill="#666666">[timestamp]</text>
<polygon fill="none" stroke="black" points="46.2,-573.8 46.2,-604.6 296.66,-604.6 296.66,-573.8 46.2,-573.8"/>
<text text-anchor="start" x="53.2" y="-586" font-family="Arial" font-size="14.00">updated_at </text>
<text text-anchor="start" x="127.16" y="-586" font-family="Arial" font-size="14.00" fill="#666666">[timestamp]</text>
<polygon fill="none" stroke="black" stroke-width="3" points="44.7,-572.3 44.7,-888.1 298.16,-888.1 298.16,-572.3 44.7,-572.3"/>
</g>
<!-- companies -->
<g id="node2" class="node">
<title>companies</title>
<polygon fill="#efefef" stroke="none" points="63.7,-412.8 63.7,-448.4 279.16,-448.4 279.16,-412.8 63.7,-412.8"/>
<polygon fill="none" stroke="black" points="63.7,-412.8 63.7,-448.4 279.16,-448.4 279.16,-412.8 63.7,-412.8"/>
<text text-anchor="start" x="70.7" y="-426.2" font-family="Arial Bold" font-size="18.00">companies</text>
<text text-anchor="start" x="147.67" y="-426.2" font-family="Arial" font-size="14.00">    </text>
<text text-anchor="start" x="178.79" y="-426.2" font-family="Arial" font-size="14.00" fill="#666666">[BASE TABLE]</text>
<polygon fill="none" stroke="black" points="63.7,-382 63.7,-412.8 279.16,-412.8 279.16,-382 63.7,-382"/>
<text text-anchor="start" x="70.7" y="-394.2" font-family="Arial" font-size="14.00">id </text>
<text text-anchor="start" x="85.49" y="-394.2" font-family="Arial" font-size="14.00" fill="#666666">[bigint unsigned]</text>
<polygon fill="none" stroke="black" points="63.7,-351.2 63.7,-382 279.16,-382 279.16,-351.2 63.7,-351.2"/>
<text text-anchor="start" x="70.7" y="-363.4" font-family="Arial" font-size="14.00">name </text>
<text text-anchor="start" x="109.61" y="-363.4" font-family="Arial" font-size="14.00" fill="#666666">[varchar(255)]</text>
<polygon fill="none" stroke="black" points="63.7,-320.4 63.7,-351.2 279.16,-351.2 279.16,-320.4 63.7,-320.4"/>
<text text-anchor="start" x="70.7" y="-332.6" font-family="Arial" font-size="14.00">email </text>
<text text-anchor="start" x="108.04" y="-332.6" font-family="Arial" font-size="14.00" fill="#666666">[varchar(255)]</text>
<polygon fill="none" stroke="black" points="63.7,-289.6 63.7,-320.4 279.16,-320.4 279.16,-289.6 63.7,-289.6"/>
<text text-anchor="start" x="70.7" y="-301.8" font-family="Arial" font-size="14.00">website </text>
<text text-anchor="start" x="122.06" y="-301.8" font-family="Arial" font-size="14.00" fill="#666666">[varchar(255)]</text>
<polygon fill="none" stroke="black" points="63.7,-258.8 63.7,-289.6 279.16,-289.6 279.16,-258.8 63.7,-258.8"/>
<text text-anchor="start" x="70.7" y="-271" font-family="Arial" font-size="14.00">business </text>
<text text-anchor="start" x="129.84" y="-271" font-family="Arial" font-size="14.00" fill="#666666">[varchar(255)]</text>
<polygon fill="none" stroke="black" points="63.7,-228 63.7,-258.8 279.16,-258.8 279.16,-228 63.7,-228"/>
<text text-anchor="start" x="70.7" y="-240.2" font-family="Arial" font-size="14.00">description </text>
<text text-anchor="start" x="142.29" y="-240.2" font-family="Arial" font-size="14.00" fill="#666666">[text]</text>
<polygon fill="none" stroke="black" points="63.7,-197.2 63.7,-228 279.16,-228 279.16,-197.2 63.7,-197.2"/>
<text text-anchor="start" x="70.7" y="-209.4" font-family="Arial" font-size="14.00">founded_at </text>
<text text-anchor="start" x="144.66" y="-209.4" font-family="Arial" font-size="14.00" fill="#666666">[date]</text>
<polygon fill="none" stroke="black" points="63.7,-166.4 63.7,-197.2 279.16,-197.2 279.16,-166.4 63.7,-166.4"/>
<text text-anchor="start" x="70.7" y="-178.6" font-family="Arial" font-size="14.00">capital </text>
<text text-anchor="start" x="115.06" y="-178.6" font-family="Arial" font-size="14.00" fill="#666666">[int unsigned]</text>
<polygon fill="none" stroke="black" points="63.7,-135.6 63.7,-166.4 279.16,-166.4 279.16,-135.6 63.7,-135.6"/>
<text text-anchor="start" x="70.7" y="-147.8" font-family="Arial" font-size="14.00">employee_count </text>
<text text-anchor="start" x="177.33" y="-147.8" font-family="Arial" font-size="14.00" fill="#666666">[int unsigned]</text>
<polygon fill="none" stroke="black" points="63.7,-104.8 63.7,-135.6 279.16,-135.6 279.16,-104.8 63.7,-104.8"/>
<text text-anchor="start" x="70.7" y="-117" font-family="Arial" font-size="14.00">created_at </text>
<text text-anchor="start" x="140.75" y="-117" font-family="Arial" font-size="14.00" fill="#666666">[timestamp]</text>
<polygon fill="none" stroke="black" points="63.7,-74 63.7,-104.8 279.16,-104.8 279.16,-74 63.7,-74"/>
<text text-anchor="start" x="70.7" y="-86.2" font-family="Arial" font-size="14.00">updated_at </text>
<text text-anchor="start" x="144.66" y="-86.2" font-family="Arial" font-size="14.00" fill="#666666">[timestamp]</text>
<polygon fill="none" stroke="black" points="63.7,-43.2 63.7,-74 279.16,-74 279.16,-43.2 63.7,-43.2"/>
<text text-anchor="start" x="70.7" y="-55.4" font-family="Arial" font-size="14.00">deleted_at </text>
<text text-anchor="start" x="139.98" y="-55.4" font-family="Arial" font-size="14.00" fill="#666666">[timestamp]</text>
</g>
<!-- company_users&#45;&gt;companies -->
<g id="edge1" class="edge">
<title>company_users:company_id&#45;&gt;companies:id</title>
<path fill="none" stroke="black" d="M307.79,-802.98C386.8,-773.59 367.24,-397.4 280.16,-397.4"/>
<polygon fill="black" stroke="black" points="307.83,-802.98 297.2,-800.31 302.58,-803.92 298.32,-804.68 298.32,-804.68 298.32,-804.68 302.58,-803.92 298.79,-809.17 307.83,-802.98"/>
<text text-anchor="start" x="304.66" y="-814.8" font-family="Arial" font-size="10.00">FOREIGN KEY (company_id) REFERENCES companies (id)</text>
</g>
</g>
</svg>
