<?xml version="1.0" encoding="UTF-8" standalone="no"?>
<!DOCTYPE svg PUBLIC "-//W3C//DTD SVG 1.1//EN"
 "http://www.w3.org/Graphics/SVG/1.1/DTD/svg11.dtd">
<!-- Generated by graphviz version 12.1.2 (20240928.0832)
 -->
<!-- Title: companies Pages: 1 -->
<svg width="1037pt" height="1495pt"
 viewBox="0.00 0.00 1036.98 1495.20" xmlns="http://www.w3.org/2000/svg" xmlns:xlink="http://www.w3.org/1999/xlink">
<g id="graph0" class="graph" transform="scale(1 1) rotate(0) translate(4 1491.2)">
<title>companies</title>
<polygon fill="white" stroke="none" points="-4,4 -4,-1491.2 1032.98,-1491.2 1032.98,4 -4,4"/>
<!-- companies -->
<g id="node1" class="node">
<title>companies</title>
<polygon fill="#efefef" stroke="none" points="429.7,-415.8 429.7,-451.4 645.16,-451.4 645.16,-415.8 429.7,-415.8"/>
<polygon fill="none" stroke="black" points="429.7,-415.8 429.7,-451.4 645.16,-451.4 645.16,-415.8 429.7,-415.8"/>
<text text-anchor="start" x="436.7" y="-429.2" font-family="Arial Bold" font-size="18.00">companies</text>
<text text-anchor="start" x="513.67" y="-429.2" font-family="Arial" font-size="14.00">    </text>
<text text-anchor="start" x="544.79" y="-429.2" font-family="Arial" font-size="14.00" fill="#666666">[BASE TABLE]</text>
<polygon fill="none" stroke="black" points="429.7,-385 429.7,-415.8 645.16,-415.8 645.16,-385 429.7,-385"/>
<text text-anchor="start" x="436.7" y="-397.2" font-family="Arial" font-size="14.00">id </text>
<text text-anchor="start" x="451.48" y="-397.2" font-family="Arial" font-size="14.00" fill="#666666">[bigint unsigned]</text>
<polygon fill="none" stroke="black" points="429.7,-354.2 429.7,-385 645.16,-385 645.16,-354.2 429.7,-354.2"/>
<text text-anchor="start" x="436.7" y="-366.4" font-family="Arial" font-size="14.00">name </text>
<text text-anchor="start" x="475.61" y="-366.4" font-family="Arial" font-size="14.00" fill="#666666">[varchar(255)]</text>
<polygon fill="none" stroke="black" points="429.7,-323.4 429.7,-354.2 645.16,-354.2 645.16,-323.4 429.7,-323.4"/>
<text text-anchor="start" x="436.7" y="-335.6" font-family="Arial" font-size="14.00">email </text>
<text text-anchor="start" x="474.04" y="-335.6" font-family="Arial" font-size="14.00" fill="#666666">[varchar(255)]</text>
<polygon fill="none" stroke="black" points="429.7,-292.6 429.7,-323.4 645.16,-323.4 645.16,-292.6 429.7,-292.6"/>
<text text-anchor="start" x="436.7" y="-304.8" font-family="Arial" font-size="14.00">website </text>
<text text-anchor="start" x="488.05" y="-304.8" font-family="Arial" font-size="14.00" fill="#666666">[varchar(255)]</text>
<polygon fill="none" stroke="black" points="429.7,-261.8 429.7,-292.6 645.16,-292.6 645.16,-261.8 429.7,-261.8"/>
<text text-anchor="start" x="436.7" y="-274" font-family="Arial" font-size="14.00">business </text>
<text text-anchor="start" x="495.84" y="-274" font-family="Arial" font-size="14.00" fill="#666666">[varchar(255)]</text>
<polygon fill="none" stroke="black" points="429.7,-231 429.7,-261.8 645.16,-261.8 645.16,-231 429.7,-231"/>
<text text-anchor="start" x="436.7" y="-243.2" font-family="Arial" font-size="14.00">description </text>
<text text-anchor="start" x="508.29" y="-243.2" font-family="Arial" font-size="14.00" fill="#666666">[text]</text>
<polygon fill="none" stroke="black" points="429.7,-200.2 429.7,-231 645.16,-231 645.16,-200.2 429.7,-200.2"/>
<text text-anchor="start" x="436.7" y="-212.4" font-family="Arial" font-size="14.00">founded_at </text>
<text text-anchor="start" x="510.65" y="-212.4" font-family="Arial" font-size="14.00" fill="#666666">[date]</text>
<polygon fill="none" stroke="black" points="429.7,-169.4 429.7,-200.2 645.16,-200.2 645.16,-169.4 429.7,-169.4"/>
<text text-anchor="start" x="436.7" y="-181.6" font-family="Arial" font-size="14.00">capital </text>
<text text-anchor="start" x="481.05" y="-181.6" font-family="Arial" font-size="14.00" fill="#666666">[int unsigned]</text>
<polygon fill="none" stroke="black" points="429.7,-138.6 429.7,-169.4 645.16,-169.4 645.16,-138.6 429.7,-138.6"/>
<text text-anchor="start" x="436.7" y="-150.8" font-family="Arial" font-size="14.00">employee_count </text>
<text text-anchor="start" x="543.32" y="-150.8" font-family="Arial" font-size="14.00" fill="#666666">[int unsigned]</text>
<polygon fill="none" stroke="black" points="429.7,-107.8 429.7,-138.6 645.16,-138.6 645.16,-107.8 429.7,-107.8"/>
<text text-anchor="start" x="436.7" y="-120" font-family="Arial" font-size="14.00">created_at </text>
<text text-anchor="start" x="506.74" y="-120" font-family="Arial" font-size="14.00" fill="#666666">[timestamp]</text>
<polygon fill="none" stroke="black" points="429.7,-77 429.7,-107.8 645.16,-107.8 645.16,-77 429.7,-77"/>
<text text-anchor="start" x="436.7" y="-89.2" font-family="Arial" font-size="14.00">updated_at </text>
<text text-anchor="start" x="510.65" y="-89.2" font-family="Arial" font-size="14.00" fill="#666666">[timestamp]</text>
<polygon fill="none" stroke="black" points="429.7,-46.2 429.7,-77 645.16,-77 645.16,-46.2 429.7,-46.2"/>
<text text-anchor="start" x="436.7" y="-58.4" font-family="Arial" font-size="14.00">deleted_at </text>
<text text-anchor="start" x="505.98" y="-58.4" font-family="Arial" font-size="14.00" fill="#666666">[timestamp]</text>
<polygon fill="none" stroke="black" stroke-width="3" points="428.2,-44.7 428.2,-452.9 646.66,-452.9 646.66,-44.7 428.2,-44.7"/>
</g>
<!-- company_images -->
<g id="node2" class="node">
<title>company_images</title>
<polygon fill="#efefef" stroke="none" points="43.2,-1085 43.2,-1120.6 307.65,-1120.6 307.65,-1085 43.2,-1085"/>
<polygon fill="none" stroke="black" points="43.2,-1085 43.2,-1120.6 307.65,-1120.6 307.65,-1085 43.2,-1085"/>
<text text-anchor="start" x="50.2" y="-1098.4" font-family="Arial Bold" font-size="18.00">company_images</text>
<text text-anchor="start" x="176.16" y="-1098.4" font-family="Arial" font-size="14.00">    </text>
<text text-anchor="start" x="207.28" y="-1098.4" font-family="Arial" font-size="14.00" fill="#666666">[BASE TABLE]</text>
<polygon fill="none" stroke="black" points="43.2,-1054.2 43.2,-1085 307.65,-1085 307.65,-1054.2 43.2,-1054.2"/>
<text text-anchor="start" x="50.2" y="-1066.4" font-family="Arial" font-size="14.00">id </text>
<text text-anchor="start" x="64.99" y="-1066.4" font-family="Arial" font-size="14.00" fill="#666666">[bigint unsigned]</text>
<polygon fill="none" stroke="black" points="43.2,-1023.4 43.2,-1054.2 307.65,-1054.2 307.65,-1023.4 43.2,-1023.4"/>
<text text-anchor="start" x="50.2" y="-1035.6" font-family="Arial" font-size="14.00">company_id </text>
<text text-anchor="start" x="129.58" y="-1035.6" font-family="Arial" font-size="14.00" fill="#666666">[bigint unsigned]</text>
<polygon fill="none" stroke="black" points="43.2,-992.6 43.2,-1023.4 307.65,-1023.4 307.65,-992.6 43.2,-992.6"/>
<text text-anchor="start" x="50.2" y="-1004.8" font-family="Arial" font-size="14.00">file_path </text>
<text text-anchor="start" x="107.02" y="-1004.8" font-family="Arial" font-size="14.00" fill="#666666">[varchar(255)]</text>
<polygon fill="none" stroke="black" points="43.2,-961.8 43.2,-992.6 307.65,-992.6 307.65,-961.8 43.2,-961.8"/>
<text text-anchor="start" x="50.2" y="-974" font-family="Arial" font-size="14.00">order </text>
<text text-anchor="start" x="86.77" y="-974" font-family="Arial" font-size="14.00" fill="#666666">[int]</text>
<polygon fill="none" stroke="black" points="43.2,-931 43.2,-961.8 307.65,-961.8 307.65,-931 43.2,-931"/>
<text text-anchor="start" x="50.2" y="-943.2" font-family="Arial" font-size="14.00">created_at </text>
<text text-anchor="start" x="120.25" y="-943.2" font-family="Arial" font-size="14.00" fill="#666666">[timestamp]</text>
<polygon fill="none" stroke="black" points="43.2,-900.2 43.2,-931 307.65,-931 307.65,-900.2 43.2,-900.2"/>
<text text-anchor="start" x="50.2" y="-912.4" font-family="Arial" font-size="14.00">updated_at </text>
<text text-anchor="start" x="124.16" y="-912.4" font-family="Arial" font-size="14.00" fill="#666666">[timestamp]</text>
</g>
<!-- company_images&#45;&gt;companies -->
<g id="edge1" class="edge">
<title>company_images:company_id&#45;&gt;companies:id</title>
<path fill="none" stroke="black" d="M317.8,-1034.32C362.78,-987.3 345.35,-584.54 360.43,-533.6 379.31,-469.81 362.17,-400.4 428.7,-400.4"/>
<polygon fill="black" stroke="black" points="317.94,-1034.26 306.98,-1034.61 313.15,-1036.6 309.26,-1038.51 309.26,-1038.51 309.26,-1038.51 313.15,-1036.6 310.93,-1042.7 317.94,-1034.26"/>
<text text-anchor="start" x="315.65" y="-1048.8" font-family="Arial" font-size="10.00">FOREIGN KEY (company_id) REFERENCES companies (id)</text>
</g>
<!-- company_users -->
<g id="node3" class="node">
<title>company_users</title>
<polygon fill="#efefef" stroke="none" points="412.2,-1131.2 412.2,-1166.8 662.66,-1166.8 662.66,-1131.2 412.2,-1131.2"/>
<polygon fill="none" stroke="black" points="412.2,-1131.2 412.2,-1166.8 662.66,-1166.8 662.66,-1131.2 412.2,-1131.2"/>
<text text-anchor="start" x="419.2" y="-1144.6" font-family="Arial Bold" font-size="18.00">company_users</text>
<text text-anchor="start" x="531.17" y="-1144.6" font-family="Arial" font-size="14.00">    </text>
<text text-anchor="start" x="562.29" y="-1144.6" font-family="Arial" font-size="14.00" fill="#666666">[BASE TABLE]</text>
<polygon fill="none" stroke="black" points="412.2,-1100.4 412.2,-1131.2 662.66,-1131.2 662.66,-1100.4 412.2,-1100.4"/>
<text text-anchor="start" x="419.2" y="-1112.6" font-family="Arial" font-size="14.00">id </text>
<text text-anchor="start" x="433.98" y="-1112.6" font-family="Arial" font-size="14.00" fill="#666666">[bigint unsigned]</text>
<polygon fill="none" stroke="black" points="412.2,-1069.6 412.2,-1100.4 662.66,-1100.4 662.66,-1069.6 412.2,-1069.6"/>
<text text-anchor="start" x="419.2" y="-1081.8" font-family="Arial" font-size="14.00">company_id </text>
<text text-anchor="start" x="498.58" y="-1081.8" font-family="Arial" font-size="14.00" fill="#666666">[bigint unsigned]</text>
<polygon fill="none" stroke="black" points="412.2,-1038.8 412.2,-1069.6 662.66,-1069.6 662.66,-1038.8 412.2,-1038.8"/>
<text text-anchor="start" x="419.2" y="-1051" font-family="Arial" font-size="14.00">name </text>
<text text-anchor="start" x="458.11" y="-1051" font-family="Arial" font-size="14.00" fill="#666666">[varchar(255)]</text>
<polygon fill="none" stroke="black" points="412.2,-1008 412.2,-1038.8 662.66,-1038.8 662.66,-1008 412.2,-1008"/>
<text text-anchor="start" x="419.2" y="-1020.2" font-family="Arial" font-size="14.00">email </text>
<text text-anchor="start" x="456.54" y="-1020.2" font-family="Arial" font-size="14.00" fill="#666666">[varchar(255)]</text>
<polygon fill="none" stroke="black" points="412.2,-977.2 412.2,-1008 662.66,-1008 662.66,-977.2 412.2,-977.2"/>
<text text-anchor="start" x="419.2" y="-989.4" font-family="Arial" font-size="14.00">password </text>
<text text-anchor="start" x="483" y="-989.4" font-family="Arial" font-size="14.00" fill="#666666">[varchar(255)]</text>
<polygon fill="none" stroke="black" points="412.2,-946.4 412.2,-977.2 662.66,-977.2 662.66,-946.4 412.2,-946.4"/>
<text text-anchor="start" x="419.2" y="-958.6" font-family="Arial" font-size="14.00">role </text>
<text text-anchor="start" x="446.43" y="-958.6" font-family="Arial" font-size="14.00" fill="#666666">[tinyint]</text>
<polygon fill="none" stroke="black" points="412.2,-915.6 412.2,-946.4 662.66,-946.4 662.66,-915.6 412.2,-915.6"/>
<text text-anchor="start" x="419.2" y="-927.8" font-family="Arial" font-size="14.00">remember_token </text>
<text text-anchor="start" x="528.91" y="-927.8" font-family="Arial" font-size="14.00" fill="#666666">[varchar(100)]</text>
<polygon fill="none" stroke="black" points="412.2,-884.8 412.2,-915.6 662.66,-915.6 662.66,-884.8 412.2,-884.8"/>
<text text-anchor="start" x="419.2" y="-897" font-family="Arial" font-size="14.00">created_at </text>
<text text-anchor="start" x="489.24" y="-897" font-family="Arial" font-size="14.00" fill="#666666">[timestamp]</text>
<polygon fill="none" stroke="black" points="412.2,-854 412.2,-884.8 662.66,-884.8 662.66,-854 412.2,-854"/>
<text text-anchor="start" x="419.2" y="-866.2" font-family="Arial" font-size="14.00">updated_at </text>
<text text-anchor="start" x="493.15" y="-866.2" font-family="Arial" font-size="14.00" fill="#666666">[timestamp]</text>
</g>
<!-- company_users&#45;&gt;companies -->
<g id="edge2" class="edge">
<title>company_users:company_id&#45;&gt;companies:id</title>
<path fill="none" stroke="black" d="M672.95,-1081.32C738.14,-1027.43 718.98,-400.4 646.16,-400.4"/>
<polygon fill="black" stroke="black" points="673.27,-1081.19 662.31,-1080.69 668.31,-1083.16 664.28,-1084.75 664.28,-1084.75 664.28,-1084.75 668.31,-1083.16 665.63,-1089.06 673.27,-1081.19"/>
<text text-anchor="start" x="670.66" y="-1095" font-family="Arial" font-size="10.00">FOREIGN KEY (company_id) REFERENCES companies (id)</text>
</g>
<!-- jobs -->
<g id="node4" class="node">
<title>jobs</title>
<polygon fill="#efefef" stroke="none" points="767.08,-1408.4 767.08,-1444 985.78,-1444 985.78,-1408.4 767.08,-1408.4"/>
<polygon fill="none" stroke="black" points="767.08,-1408.4 767.08,-1444 985.78,-1444 985.78,-1408.4 767.08,-1408.4"/>
<text text-anchor="start" x="799.18" y="-1421.8" font-family="Arial Bold" font-size="18.00">jobs</text>
<text text-anchor="start" x="829.19" y="-1421.8" font-family="Arial" font-size="14.00">    </text>
<text text-anchor="start" x="860.3" y="-1421.8" font-family="Arial" font-size="14.00" fill="#666666">[BASE TABLE]</text>
<polygon fill="none" stroke="black" points="767.08,-1377.6 767.08,-1408.4 985.78,-1408.4 985.78,-1377.6 767.08,-1377.6"/>
<text text-anchor="start" x="774.08" y="-1389.8" font-family="Arial" font-size="14.00">id </text>
<text text-anchor="start" x="788.86" y="-1389.8" font-family="Arial" font-size="14.00" fill="#666666">[bigint unsigned]</text>
<polygon fill="none" stroke="black" points="767.08,-1346.8 767.08,-1377.6 985.78,-1377.6 985.78,-1346.8 767.08,-1346.8"/>
<text text-anchor="start" x="774.08" y="-1359" font-family="Arial" font-size="14.00">company_id </text>
<text text-anchor="start" x="853.45" y="-1359" font-family="Arial" font-size="14.00" fill="#666666">[bigint unsigned]</text>
<polygon fill="none" stroke="black" points="767.08,-1316 767.08,-1346.8 985.78,-1346.8 985.78,-1316 767.08,-1316"/>
<text text-anchor="start" x="774.08" y="-1328.2" font-family="Arial" font-size="14.00">job_category_id </text>
<text text-anchor="start" x="876.81" y="-1328.2" font-family="Arial" font-size="14.00" fill="#666666">[bigint unsigned]</text>
<polygon fill="none" stroke="black" points="767.08,-1285.2 767.08,-1316 985.78,-1316 985.78,-1285.2 767.08,-1285.2"/>
<text text-anchor="start" x="774.08" y="-1297.4" font-family="Arial" font-size="14.00">location_id </text>
<text text-anchor="start" x="844.9" y="-1297.4" font-family="Arial" font-size="14.00" fill="#666666">[bigint unsigned]</text>
<polygon fill="none" stroke="black" points="767.08,-1254.4 767.08,-1285.2 985.78,-1285.2 985.78,-1254.4 767.08,-1254.4"/>
<text text-anchor="start" x="774.08" y="-1266.6" font-family="Arial" font-size="14.00">title </text>
<text text-anchor="start" x="799.75" y="-1266.6" font-family="Arial" font-size="14.00" fill="#666666">[varchar(255)]</text>
<polygon fill="none" stroke="black" points="767.08,-1223.6 767.08,-1254.4 985.78,-1254.4 985.78,-1223.6 767.08,-1223.6"/>
<text text-anchor="start" x="774.08" y="-1235.8" font-family="Arial" font-size="14.00">location </text>
<text text-anchor="start" x="826.22" y="-1235.8" font-family="Arial" font-size="14.00" fill="#666666">[varchar(255)]</text>
<polygon fill="none" stroke="black" points="767.08,-1192.8 767.08,-1223.6 985.78,-1223.6 985.78,-1192.8 767.08,-1192.8"/>
<text text-anchor="start" x="774.08" y="-1205" font-family="Arial" font-size="14.00">salary_min </text>
<text text-anchor="start" x="845.66" y="-1205" font-family="Arial" font-size="14.00" fill="#666666">[int unsigned]</text>
<polygon fill="none" stroke="black" points="767.08,-1162 767.08,-1192.8 985.78,-1192.8 985.78,-1162 767.08,-1162"/>
<text text-anchor="start" x="774.08" y="-1174.2" font-family="Arial" font-size="14.00">salary_max </text>
<text text-anchor="start" x="849.54" y="-1174.2" font-family="Arial" font-size="14.00" fill="#666666">[int unsigned]</text>
<polygon fill="none" stroke="black" points="767.08,-1131.2 767.08,-1162 985.78,-1162 985.78,-1131.2 767.08,-1131.2"/>
<text text-anchor="start" x="774.08" y="-1143.4" font-family="Arial" font-size="14.00">employment_type </text>
<text text-anchor="start" x="888.47" y="-1143.4" font-family="Arial" font-size="14.00" fill="#666666">[tinyint]</text>
<polygon fill="none" stroke="black" points="767.08,-1100.4 767.08,-1131.2 985.78,-1131.2 985.78,-1100.4 767.08,-1100.4"/>
<text text-anchor="start" x="774.08" y="-1112.6" font-family="Arial" font-size="14.00">description </text>
<text text-anchor="start" x="845.67" y="-1112.6" font-family="Arial" font-size="14.00" fill="#666666">[text]</text>
<polygon fill="none" stroke="black" points="767.08,-1069.6 767.08,-1100.4 985.78,-1100.4 985.78,-1069.6 767.08,-1069.6"/>
<text text-anchor="start" x="774.08" y="-1081.8" font-family="Arial" font-size="14.00">requirements </text>
<text text-anchor="start" x="859.67" y="-1081.8" font-family="Arial" font-size="14.00" fill="#666666">[text]</text>
<polygon fill="none" stroke="black" points="767.08,-1038.8 767.08,-1069.6 985.78,-1069.6 985.78,-1038.8 767.08,-1038.8"/>
<text text-anchor="start" x="774.08" y="-1051" font-family="Arial" font-size="14.00">welcome_skills </text>
<text text-anchor="start" x="871.32" y="-1051" font-family="Arial" font-size="14.00" fill="#666666">[text]</text>
<polygon fill="none" stroke="black" points="767.08,-1008 767.08,-1038.8 985.78,-1038.8 985.78,-1008 767.08,-1008"/>
<text text-anchor="start" x="774.08" y="-1020.2" font-family="Arial" font-size="14.00">required_qualifications </text>
<text text-anchor="start" x="918.05" y="-1020.2" font-family="Arial" font-size="14.00" fill="#666666">[text]</text>
<polygon fill="none" stroke="black" points="767.08,-977.2 767.08,-1008 985.78,-1008 985.78,-977.2 767.08,-977.2"/>
<text text-anchor="start" x="774.08" y="-989.4" font-family="Arial" font-size="14.00">tools </text>
<text text-anchor="start" x="807.54" y="-989.4" font-family="Arial" font-size="14.00" fill="#666666">[text]</text>
<polygon fill="none" stroke="black" points="767.08,-946.4 767.08,-977.2 985.78,-977.2 985.78,-946.4 767.08,-946.4"/>
<text text-anchor="start" x="774.08" y="-958.6" font-family="Arial" font-size="14.00">selection_flow </text>
<text text-anchor="start" x="865.9" y="-958.6" font-family="Arial" font-size="14.00" fill="#666666">[text]</text>
<polygon fill="none" stroke="black" points="767.08,-915.6 767.08,-946.4 985.78,-946.4 985.78,-915.6 767.08,-915.6"/>
<text text-anchor="start" x="774.08" y="-927.8" font-family="Arial" font-size="14.00">required_documents </text>
<text text-anchor="start" x="905.6" y="-927.8" font-family="Arial" font-size="14.00" fill="#666666">[text]</text>
<polygon fill="none" stroke="black" points="767.08,-884.8 767.08,-915.6 985.78,-915.6 985.78,-884.8 767.08,-884.8"/>
<text text-anchor="start" x="774.08" y="-897" font-family="Arial" font-size="14.00">interview_place </text>
<text text-anchor="start" x="874.46" y="-897" font-family="Arial" font-size="14.00" fill="#666666">[varchar(255)]</text>
<polygon fill="none" stroke="black" points="767.08,-854 767.08,-884.8 985.78,-884.8 985.78,-854 767.08,-854"/>
<text text-anchor="start" x="774.08" y="-866.2" font-family="Arial" font-size="14.00">benefits </text>
<text text-anchor="start" x="827" y="-866.2" font-family="Arial" font-size="14.00" fill="#666666">[text]</text>
<polygon fill="none" stroke="black" points="767.08,-823.2 767.08,-854 985.78,-854 985.78,-823.2 767.08,-823.2"/>
<text text-anchor="start" x="774.08" y="-835.4" font-family="Arial" font-size="14.00">work_time </text>
<text text-anchor="start" x="841.76" y="-835.4" font-family="Arial" font-size="14.00" fill="#666666">[varchar(255)]</text>
<polygon fill="none" stroke="black" points="767.08,-792.4 767.08,-823.2 985.78,-823.2 985.78,-792.4 767.08,-792.4"/>
<text text-anchor="start" x="774.08" y="-804.6" font-family="Arial" font-size="14.00">holiday </text>
<text text-anchor="start" x="822.33" y="-804.6" font-family="Arial" font-size="14.00" fill="#666666">[varchar(255)]</text>
<polygon fill="none" stroke="black" points="767.08,-761.6 767.08,-792.4 985.78,-792.4 985.78,-761.6 767.08,-761.6"/>
<text text-anchor="start" x="774.08" y="-773.8" font-family="Arial" font-size="14.00">number_of_positions </text>
<text text-anchor="start" x="907.94" y="-773.8" font-family="Arial" font-size="14.00" fill="#666666">[int]</text>
<polygon fill="none" stroke="black" points="767.08,-730.8 767.08,-761.6 985.78,-761.6 985.78,-730.8 767.08,-730.8"/>
<text text-anchor="start" x="774.08" y="-743" font-family="Arial" font-size="14.00">is_active </text>
<text text-anchor="start" x="832.43" y="-743" font-family="Arial" font-size="14.00" fill="#666666">[tinyint(1)]</text>
<polygon fill="none" stroke="black" points="767.08,-700 767.08,-730.8 985.78,-730.8 985.78,-700 767.08,-700"/>
<text text-anchor="start" x="774.08" y="-712.2" font-family="Arial" font-size="14.00">is_featured </text>
<text text-anchor="start" x="847.23" y="-712.2" font-family="Arial" font-size="14.00" fill="#666666">[tinyint(1)]</text>
<polygon fill="none" stroke="black" points="767.08,-669.2 767.08,-700 985.78,-700 985.78,-669.2 767.08,-669.2"/>
<text text-anchor="start" x="774.08" y="-681.4" font-family="Arial" font-size="14.00">is_closed </text>
<text text-anchor="start" x="836.33" y="-681.4" font-family="Arial" font-size="14.00" fill="#666666">[tinyint(1)]</text>
<polygon fill="none" stroke="black" points="767.08,-638.4 767.08,-669.2 985.78,-669.2 985.78,-638.4 767.08,-638.4"/>
<text text-anchor="start" x="774.08" y="-650.6" font-family="Arial" font-size="14.00">application_deadline </text>
<text text-anchor="start" x="905.63" y="-650.6" font-family="Arial" font-size="14.00" fill="#666666">[date]</text>
<polygon fill="none" stroke="black" points="767.08,-607.6 767.08,-638.4 985.78,-638.4 985.78,-607.6 767.08,-607.6"/>
<text text-anchor="start" x="774.08" y="-619.8" font-family="Arial" font-size="14.00">created_at </text>
<text text-anchor="start" x="844.12" y="-619.8" font-family="Arial" font-size="14.00" fill="#666666">[timestamp]</text>
<polygon fill="none" stroke="black" points="767.08,-576.8 767.08,-607.6 985.78,-607.6 985.78,-576.8 767.08,-576.8"/>
<text text-anchor="start" x="774.08" y="-589" font-family="Arial" font-size="14.00">updated_at </text>
<text text-anchor="start" x="848.03" y="-589" font-family="Arial" font-size="14.00" fill="#666666">[timestamp]</text>
</g>
<!-- jobs&#45;&gt;companies -->
<g id="edge3" class="edge">
<title>jobs:company_id&#45;&gt;companies:id</title>
<path fill="none" stroke="black" d="M756.44,-1359.22C678.53,-1308.2 737.94,-619.25 714.43,-533.6 696.82,-469.45 712.68,-400.4 646.16,-400.4"/>
<polygon fill="black" stroke="black" points="756.2,-1359.14 764.42,-1366.4 761.3,-1360.72 765.44,-1362 765.44,-1362 765.44,-1362 761.3,-1360.72 767.09,-1357.8 756.2,-1359.14"/>
<text text-anchor="start" x="487.89" y="-1372.2" font-family="Arial" font-size="10.00">FOREIGN KEY (company_id) REFERENCES companies (id)</text>
</g>
</g>
</svg>
