<?xml version="1.0" encoding="UTF-8" standalone="no"?>
<!DOCTYPE svg PUBLIC "-//W3C//DTD SVG 1.1//EN"
 "http://www.w3.org/Graphics/SVG/1.1/DTD/svg11.dtd">
<!-- Generated by graphviz version 12.1.2 (20240928.0832)
 -->
<!-- Title: company_images Pages: 1 -->
<svg width="605pt" height="848pt"
 viewBox="0.00 0.00 604.84 848.40" xmlns="http://www.w3.org/2000/svg" xmlns:xlink="http://www.w3.org/1999/xlink">
<g id="graph0" class="graph" transform="scale(1 1) rotate(0) translate(4 844.4)">
<title>company_images</title>
<polygon fill="white" stroke="none" points="-4,4 -4,-844.4 600.84,-844.4 600.84,4 -4,4"/>
<!-- company_images -->
<g id="node1" class="node">
<title>company_images</title>
<polygon fill="#efefef" stroke="none" points="46.2,-758.6 46.2,-794.2 310.65,-794.2 310.65,-758.6 46.2,-758.6"/>
<polygon fill="none" stroke="black" points="46.2,-758.6 46.2,-794.2 310.65,-794.2 310.65,-758.6 46.2,-758.6"/>
<text text-anchor="start" x="53.2" y="-772" font-family="Arial Bold" font-size="18.00">company_images</text>
<text text-anchor="start" x="179.16" y="-772" font-family="Arial" font-size="14.00">    </text>
<text text-anchor="start" x="210.28" y="-772" font-family="Arial" font-size="14.00" fill="#666666">[BASE TABLE]</text>
<polygon fill="none" stroke="black" points="46.2,-727.8 46.2,-758.6 310.65,-758.6 310.65,-727.8 46.2,-727.8"/>
<text text-anchor="start" x="53.2" y="-740" font-family="Arial" font-size="14.00">id </text>
<text text-anchor="start" x="67.99" y="-740" font-family="Arial" font-size="14.00" fill="#666666">[bigint unsigned]</text>
<polygon fill="none" stroke="black" points="46.2,-697 46.2,-727.8 310.65,-727.8 310.65,-697 46.2,-697"/>
<text text-anchor="start" x="53.2" y="-709.2" font-family="Arial" font-size="14.00">company_id </text>
<text text-anchor="start" x="132.58" y="-709.2" font-family="Arial" font-size="14.00" fill="#666666">[bigint unsigned]</text>
<polygon fill="none" stroke="black" points="46.2,-666.2 46.2,-697 310.65,-697 310.65,-666.2 46.2,-666.2"/>
<text text-anchor="start" x="53.2" y="-678.4" font-family="Arial" font-size="14.00">file_path </text>
<text text-anchor="start" x="110.02" y="-678.4" font-family="Arial" font-size="14.00" fill="#666666">[varchar(255)]</text>
<polygon fill="none" stroke="black" points="46.2,-635.4 46.2,-666.2 310.65,-666.2 310.65,-635.4 46.2,-635.4"/>
<text text-anchor="start" x="53.2" y="-647.6" font-family="Arial" font-size="14.00">order </text>
<text text-anchor="start" x="89.77" y="-647.6" font-family="Arial" font-size="14.00" fill="#666666">[int]</text>
<polygon fill="none" stroke="black" points="46.2,-604.6 46.2,-635.4 310.65,-635.4 310.65,-604.6 46.2,-604.6"/>
<text text-anchor="start" x="53.2" y="-616.8" font-family="Arial" font-size="14.00">created_at </text>
<text text-anchor="start" x="123.25" y="-616.8" font-family="Arial" font-size="14.00" fill="#666666">[timestamp]</text>
<polygon fill="none" stroke="black" points="46.2,-573.8 46.2,-604.6 310.65,-604.6 310.65,-573.8 46.2,-573.8"/>
<text text-anchor="start" x="53.2" y="-586" font-family="Arial" font-size="14.00">updated_at </text>
<text text-anchor="start" x="127.16" y="-586" font-family="Arial" font-size="14.00" fill="#666666">[timestamp]</text>
<polygon fill="none" stroke="black" stroke-width="3" points="44.7,-572.3 44.7,-795.7 312.15,-795.7 312.15,-572.3 44.7,-572.3"/>
</g>
<!-- companies -->
<g id="node2" class="node">
<title>companies</title>
<polygon fill="#efefef" stroke="none" points="70.7,-412.8 70.7,-448.4 286.16,-448.4 286.16,-412.8 70.7,-412.8"/>
<polygon fill="none" stroke="black" points="70.7,-412.8 70.7,-448.4 286.16,-448.4 286.16,-412.8 70.7,-412.8"/>
<text text-anchor="start" x="77.7" y="-426.2" font-family="Arial Bold" font-size="18.00">companies</text>
<text text-anchor="start" x="154.67" y="-426.2" font-family="Arial" font-size="14.00">    </text>
<text text-anchor="start" x="185.79" y="-426.2" font-family="Arial" font-size="14.00" fill="#666666">[BASE TABLE]</text>
<polygon fill="none" stroke="black" points="70.7,-382 70.7,-412.8 286.16,-412.8 286.16,-382 70.7,-382"/>
<text text-anchor="start" x="77.7" y="-394.2" font-family="Arial" font-size="14.00">id </text>
<text text-anchor="start" x="92.48" y="-394.2" font-family="Arial" font-size="14.00" fill="#666666">[bigint unsigned]</text>
<polygon fill="none" stroke="black" points="70.7,-351.2 70.7,-382 286.16,-382 286.16,-351.2 70.7,-351.2"/>
<text text-anchor="start" x="77.7" y="-363.4" font-family="Arial" font-size="14.00">name </text>
<text text-anchor="start" x="116.61" y="-363.4" font-family="Arial" font-size="14.00" fill="#666666">[varchar(255)]</text>
<polygon fill="none" stroke="black" points="70.7,-320.4 70.7,-351.2 286.16,-351.2 286.16,-320.4 70.7,-320.4"/>
<text text-anchor="start" x="77.7" y="-332.6" font-family="Arial" font-size="14.00">email </text>
<text text-anchor="start" x="115.04" y="-332.6" font-family="Arial" font-size="14.00" fill="#666666">[varchar(255)]</text>
<polygon fill="none" stroke="black" points="70.7,-289.6 70.7,-320.4 286.16,-320.4 286.16,-289.6 70.7,-289.6"/>
<text text-anchor="start" x="77.7" y="-301.8" font-family="Arial" font-size="14.00">website </text>
<text text-anchor="start" x="129.05" y="-301.8" font-family="Arial" font-size="14.00" fill="#666666">[varchar(255)]</text>
<polygon fill="none" stroke="black" points="70.7,-258.8 70.7,-289.6 286.16,-289.6 286.16,-258.8 70.7,-258.8"/>
<text text-anchor="start" x="77.7" y="-271" font-family="Arial" font-size="14.00">business </text>
<text text-anchor="start" x="136.84" y="-271" font-family="Arial" font-size="14.00" fill="#666666">[varchar(255)]</text>
<polygon fill="none" stroke="black" points="70.7,-228 70.7,-258.8 286.16,-258.8 286.16,-228 70.7,-228"/>
<text text-anchor="start" x="77.7" y="-240.2" font-family="Arial" font-size="14.00">description </text>
<text text-anchor="start" x="149.29" y="-240.2" font-family="Arial" font-size="14.00" fill="#666666">[text]</text>
<polygon fill="none" stroke="black" points="70.7,-197.2 70.7,-228 286.16,-228 286.16,-197.2 70.7,-197.2"/>
<text text-anchor="start" x="77.7" y="-209.4" font-family="Arial" font-size="14.00">founded_at </text>
<text text-anchor="start" x="151.65" y="-209.4" font-family="Arial" font-size="14.00" fill="#666666">[date]</text>
<polygon fill="none" stroke="black" points="70.7,-166.4 70.7,-197.2 286.16,-197.2 286.16,-166.4 70.7,-166.4"/>
<text text-anchor="start" x="77.7" y="-178.6" font-family="Arial" font-size="14.00">capital </text>
<text text-anchor="start" x="122.05" y="-178.6" font-family="Arial" font-size="14.00" fill="#666666">[int unsigned]</text>
<polygon fill="none" stroke="black" points="70.7,-135.6 70.7,-166.4 286.16,-166.4 286.16,-135.6 70.7,-135.6"/>
<text text-anchor="start" x="77.7" y="-147.8" font-family="Arial" font-size="14.00">employee_count </text>
<text text-anchor="start" x="184.32" y="-147.8" font-family="Arial" font-size="14.00" fill="#666666">[int unsigned]</text>
<polygon fill="none" stroke="black" points="70.7,-104.8 70.7,-135.6 286.16,-135.6 286.16,-104.8 70.7,-104.8"/>
<text text-anchor="start" x="77.7" y="-117" font-family="Arial" font-size="14.00">created_at </text>
<text text-anchor="start" x="147.74" y="-117" font-family="Arial" font-size="14.00" fill="#666666">[timestamp]</text>
<polygon fill="none" stroke="black" points="70.7,-74 70.7,-104.8 286.16,-104.8 286.16,-74 70.7,-74"/>
<text text-anchor="start" x="77.7" y="-86.2" font-family="Arial" font-size="14.00">updated_at </text>
<text text-anchor="start" x="151.65" y="-86.2" font-family="Arial" font-size="14.00" fill="#666666">[timestamp]</text>
<polygon fill="none" stroke="black" points="70.7,-43.2 70.7,-74 286.16,-74 286.16,-43.2 70.7,-43.2"/>
<text text-anchor="start" x="77.7" y="-55.4" font-family="Arial" font-size="14.00">deleted_at </text>
<text text-anchor="start" x="146.98" y="-55.4" font-family="Arial" font-size="14.00" fill="#666666">[timestamp]</text>
</g>
<!-- company_images&#45;&gt;companies -->
<g id="edge1" class="edge">
<title>company_images:company_id&#45;&gt;companies:id</title>
<path fill="none" stroke="black" d="M321.62,-710.05C379.26,-681.22 353.8,-397.4 287.16,-397.4"/>
<polygon fill="black" stroke="black" points="321.71,-710.02 310.95,-707.94 316.52,-711.25 312.31,-712.25 312.31,-712.25 312.31,-712.25 316.52,-711.25 313.01,-716.7 321.71,-710.02"/>
<text text-anchor="start" x="318.65" y="-722.4" font-family="Arial" font-size="10.00">FOREIGN KEY (company_id) REFERENCES companies (id)</text>
</g>
</g>
</svg>
