<?xml version="1.0" encoding="UTF-8" standalone="no"?>
<!DOCTYPE svg PUBLIC "-//W3C//DTD SVG 1.1//EN"
 "http://www.w3.org/Graphics/SVG/1.1/DTD/svg11.dtd">
<!-- Generated by graphviz version 12.1.2 (20240928.0832)
 -->
<!-- Title: educations Pages: 1 -->
<svg width="511pt" height="879pt"
 viewBox="0.00 0.00 510.82 879.20" xmlns="http://www.w3.org/2000/svg" xmlns:xlink="http://www.w3.org/1999/xlink">
<g id="graph0" class="graph" transform="scale(1 1) rotate(0) translate(4 875.2)">
<title>educations</title>
<polygon fill="white" stroke="none" points="-4,4 -4,-875.2 506.82,-875.2 506.82,4 -4,4"/>
<!-- educations -->
<g id="node1" class="node">
<title>educations</title>
<polygon fill="#efefef" stroke="none" points="46.2,-789.4 46.2,-825 261.66,-825 261.66,-789.4 46.2,-789.4"/>
<polygon fill="none" stroke="black" points="46.2,-789.4 46.2,-825 261.66,-825 261.66,-789.4 46.2,-789.4"/>
<text text-anchor="start" x="53.2" y="-802.8" font-family="Arial Bold" font-size="18.00">educations</text>
<text text-anchor="start" x="130.17" y="-802.8" font-family="Arial" font-size="14.00">    </text>
<text text-anchor="start" x="161.29" y="-802.8" font-family="Arial" font-size="14.00" fill="#666666">[BASE TABLE]</text>
<polygon fill="none" stroke="black" points="46.2,-758.6 46.2,-789.4 261.66,-789.4 261.66,-758.6 46.2,-758.6"/>
<text text-anchor="start" x="53.2" y="-770.8" font-family="Arial" font-size="14.00">id </text>
<text text-anchor="start" x="67.99" y="-770.8" font-family="Arial" font-size="14.00" fill="#666666">[bigint unsigned]</text>
<polygon fill="none" stroke="black" points="46.2,-727.8 46.2,-758.6 261.66,-758.6 261.66,-727.8 46.2,-727.8"/>
<text text-anchor="start" x="53.2" y="-740" font-family="Arial" font-size="14.00">user_id </text>
<text text-anchor="start" x="103.01" y="-740" font-family="Arial" font-size="14.00" fill="#666666">[bigint unsigned]</text>
<polygon fill="none" stroke="black" points="46.2,-697 46.2,-727.8 261.66,-727.8 261.66,-697 46.2,-697"/>
<text text-anchor="start" x="53.2" y="-709.2" font-family="Arial" font-size="14.00">school_name </text>
<text text-anchor="start" x="140.37" y="-709.2" font-family="Arial" font-size="14.00" fill="#666666">[varchar(255)]</text>
<polygon fill="none" stroke="black" points="46.2,-666.2 46.2,-697 261.66,-697 261.66,-666.2 46.2,-666.2"/>
<text text-anchor="start" x="53.2" y="-678.4" font-family="Arial" font-size="14.00">degree </text>
<text text-anchor="start" x="100.68" y="-678.4" font-family="Arial" font-size="14.00" fill="#666666">[varchar(255)]</text>
<polygon fill="none" stroke="black" points="46.2,-635.4 46.2,-666.2 261.66,-666.2 261.66,-635.4 46.2,-635.4"/>
<text text-anchor="start" x="53.2" y="-647.6" font-family="Arial" font-size="14.00">major </text>
<text text-anchor="start" x="92.1" y="-647.6" font-family="Arial" font-size="14.00" fill="#666666">[varchar(255)]</text>
<polygon fill="none" stroke="black" points="46.2,-604.6 46.2,-635.4 261.66,-635.4 261.66,-604.6 46.2,-604.6"/>
<text text-anchor="start" x="53.2" y="-616.8" font-family="Arial" font-size="14.00">start_date </text>
<text text-anchor="start" x="119.35" y="-616.8" font-family="Arial" font-size="14.00" fill="#666666">[date]</text>
<polygon fill="none" stroke="black" points="46.2,-573.8 46.2,-604.6 261.66,-604.6 261.66,-573.8 46.2,-573.8"/>
<text text-anchor="start" x="53.2" y="-586" font-family="Arial" font-size="14.00">end_date </text>
<text text-anchor="start" x="115.48" y="-586" font-family="Arial" font-size="14.00" fill="#666666">[date]</text>
<polygon fill="none" stroke="black" points="46.2,-543 46.2,-573.8 261.66,-573.8 261.66,-543 46.2,-543"/>
<text text-anchor="start" x="53.2" y="-555.2" font-family="Arial" font-size="14.00">created_at </text>
<text text-anchor="start" x="123.25" y="-555.2" font-family="Arial" font-size="14.00" fill="#666666">[timestamp]</text>
<polygon fill="none" stroke="black" points="46.2,-512.2 46.2,-543 261.66,-543 261.66,-512.2 46.2,-512.2"/>
<text text-anchor="start" x="53.2" y="-524.4" font-family="Arial" font-size="14.00">updated_at </text>
<text text-anchor="start" x="127.16" y="-524.4" font-family="Arial" font-size="14.00" fill="#666666">[timestamp]</text>
<polygon fill="none" stroke="black" stroke-width="3" points="44.7,-510.7 44.7,-826.5 263.16,-826.5 263.16,-510.7 44.7,-510.7"/>
</g>
<!-- users -->
<g id="node2" class="node">
<title>users</title>
<polygon fill="#efefef" stroke="none" points="48.5,-351.2 48.5,-386.8 259.36,-386.8 259.36,-351.2 48.5,-351.2"/>
<polygon fill="none" stroke="black" points="48.5,-351.2 48.5,-386.8 259.36,-386.8 259.36,-351.2 48.5,-351.2"/>
<text text-anchor="start" x="73.19" y="-364.6" font-family="Arial Bold" font-size="18.00">users</text>
<text text-anchor="start" x="110.18" y="-364.6" font-family="Arial" font-size="14.00">    </text>
<text text-anchor="start" x="141.3" y="-364.6" font-family="Arial" font-size="14.00" fill="#666666">[BASE TABLE]</text>
<polygon fill="none" stroke="black" points="48.5,-320.4 48.5,-351.2 259.36,-351.2 259.36,-320.4 48.5,-320.4"/>
<text text-anchor="start" x="55.5" y="-332.6" font-family="Arial" font-size="14.00">id </text>
<text text-anchor="start" x="70.29" y="-332.6" font-family="Arial" font-size="14.00" fill="#666666">[bigint unsigned]</text>
<polygon fill="none" stroke="black" points="48.5,-289.6 48.5,-320.4 259.36,-320.4 259.36,-289.6 48.5,-289.6"/>
<text text-anchor="start" x="55.5" y="-301.8" font-family="Arial" font-size="14.00">name </text>
<text text-anchor="start" x="94.41" y="-301.8" font-family="Arial" font-size="14.00" fill="#666666">[varchar(255)]</text>
<polygon fill="none" stroke="black" points="48.5,-258.8 48.5,-289.6 259.36,-289.6 259.36,-258.8 48.5,-258.8"/>
<text text-anchor="start" x="55.5" y="-271" font-family="Arial" font-size="14.00">email </text>
<text text-anchor="start" x="92.85" y="-271" font-family="Arial" font-size="14.00" fill="#666666">[varchar(255)]</text>
<polygon fill="none" stroke="black" points="48.5,-228 48.5,-258.8 259.36,-258.8 259.36,-228 48.5,-228"/>
<text text-anchor="start" x="55.5" y="-240.2" font-family="Arial" font-size="14.00">email_verified_at </text>
<text text-anchor="start" x="165.22" y="-240.2" font-family="Arial" font-size="14.00" fill="#666666">[timestamp]</text>
<polygon fill="none" stroke="black" points="48.5,-197.2 48.5,-228 259.36,-228 259.36,-197.2 48.5,-197.2"/>
<text text-anchor="start" x="55.5" y="-209.4" font-family="Arial" font-size="14.00">phone </text>
<text text-anchor="start" x="98.32" y="-209.4" font-family="Arial" font-size="14.00" fill="#666666">[varchar(255)]</text>
<polygon fill="none" stroke="black" points="48.5,-166.4 48.5,-197.2 259.36,-197.2 259.36,-166.4 48.5,-166.4"/>
<text text-anchor="start" x="55.5" y="-178.6" font-family="Arial" font-size="14.00">address </text>
<text text-anchor="start" x="109.2" y="-178.6" font-family="Arial" font-size="14.00" fill="#666666">[varchar(255)]</text>
<polygon fill="none" stroke="black" points="48.5,-135.6 48.5,-166.4 259.36,-166.4 259.36,-135.6 48.5,-135.6"/>
<text text-anchor="start" x="55.5" y="-147.8" font-family="Arial" font-size="14.00">password </text>
<text text-anchor="start" x="119.31" y="-147.8" font-family="Arial" font-size="14.00" fill="#666666">[varchar(255)]</text>
<polygon fill="none" stroke="black" points="48.5,-104.8 48.5,-135.6 259.36,-135.6 259.36,-104.8 48.5,-104.8"/>
<text text-anchor="start" x="55.5" y="-117" font-family="Arial" font-size="14.00">remember_token </text>
<text text-anchor="start" x="165.22" y="-117" font-family="Arial" font-size="14.00" fill="#666666">[varchar(100)]</text>
<polygon fill="none" stroke="black" points="48.5,-74 48.5,-104.8 259.36,-104.8 259.36,-74 48.5,-74"/>
<text text-anchor="start" x="55.5" y="-86.2" font-family="Arial" font-size="14.00">created_at </text>
<text text-anchor="start" x="125.55" y="-86.2" font-family="Arial" font-size="14.00" fill="#666666">[timestamp]</text>
<polygon fill="none" stroke="black" points="48.5,-43.2 48.5,-74 259.36,-74 259.36,-43.2 48.5,-43.2"/>
<text text-anchor="start" x="55.5" y="-55.4" font-family="Arial" font-size="14.00">updated_at </text>
<text text-anchor="start" x="129.46" y="-55.4" font-family="Arial" font-size="14.00" fill="#666666">[timestamp]</text>
</g>
<!-- educations&#45;&gt;users -->
<g id="edge1" class="edge">
<title>educations:user_id&#45;&gt;users:id</title>
<path fill="none" stroke="black" d="M272.85,-741.38C352.88,-711.99 347.36,-335.8 260.36,-335.8"/>
<polygon fill="black" stroke="black" points="272.84,-741.39 262.2,-738.71 267.59,-742.32 263.32,-743.08 263.32,-743.08 263.32,-743.08 267.59,-742.32 263.78,-747.57 272.84,-741.39"/>
<text text-anchor="start" x="269.66" y="-753.2" font-family="Arial" font-size="10.00">FOREIGN KEY (user_id) REFERENCES users (id)</text>
</g>
</g>
</svg>
