<?xml version="1.0" encoding="UTF-8" standalone="no"?>
<!DOCTYPE svg PUBLIC "-//W3C//DTD SVG 1.1//EN"
 "http://www.w3.org/Graphics/SVG/1.1/DTD/svg11.dtd">
<!-- Generated by graphviz version 12.1.2 (20240928.0832)
 -->
<!-- Title: job_categories Pages: 1 -->
<svg width="726pt" height="1341pt"
 viewBox="0.00 0.00 725.80 1341.20" xmlns="http://www.w3.org/2000/svg" xmlns:xlink="http://www.w3.org/1999/xlink">
<g id="graph0" class="graph" transform="scale(1 1) rotate(0) translate(4 1337.2)">
<title>job_categories</title>
<polygon fill="white" stroke="none" points="-4,4 -4,-1337.2 721.8,-1337.2 721.8,4 -4,4"/>
<!-- job_categories -->
<g id="node1" class="node">
<title>job_categories</title>
<polygon fill="#efefef" stroke="none" points="167.17,-261.8 167.17,-297.4 410.62,-297.4 410.62,-261.8 167.17,-261.8"/>
<polygon fill="none" stroke="black" points="167.17,-261.8 167.17,-297.4 410.62,-297.4 410.62,-261.8 167.17,-261.8"/>
<text text-anchor="start" x="174.17" y="-275.2" font-family="Arial Bold" font-size="18.00">job_categories</text>
<text text-anchor="start" x="279.13" y="-275.2" font-family="Arial" font-size="14.00">    </text>
<text text-anchor="start" x="310.25" y="-275.2" font-family="Arial" font-size="14.00" fill="#666666">[BASE TABLE]</text>
<polygon fill="none" stroke="black" points="167.17,-231 167.17,-261.8 410.62,-261.8 410.62,-231 167.17,-231"/>
<text text-anchor="start" x="174.17" y="-243.2" font-family="Arial" font-size="14.00">id </text>
<text text-anchor="start" x="188.96" y="-243.2" font-family="Arial" font-size="14.00" fill="#666666">[bigint unsigned]</text>
<polygon fill="none" stroke="black" points="167.17,-200.2 167.17,-231 410.62,-231 410.62,-200.2 167.17,-200.2"/>
<text text-anchor="start" x="174.17" y="-212.4" font-family="Arial" font-size="14.00">name </text>
<text text-anchor="start" x="213.08" y="-212.4" font-family="Arial" font-size="14.00" fill="#666666">[varchar(255)]</text>
<polygon fill="none" stroke="black" points="167.17,-169.4 167.17,-200.2 410.62,-200.2 410.62,-169.4 167.17,-169.4"/>
<text text-anchor="start" x="174.17" y="-181.6" font-family="Arial" font-size="14.00">slug </text>
<text text-anchor="start" x="203.74" y="-181.6" font-family="Arial" font-size="14.00" fill="#666666">[varchar(255)]</text>
<polygon fill="none" stroke="black" points="167.17,-138.6 167.17,-169.4 410.62,-169.4 410.62,-138.6 167.17,-138.6"/>
<text text-anchor="start" x="174.17" y="-150.8" font-family="Arial" font-size="14.00">parent_id </text>
<text text-anchor="start" x="236.44" y="-150.8" font-family="Arial" font-size="14.00" fill="#666666">[bigint unsigned]</text>
<polygon fill="none" stroke="black" points="167.17,-107.8 167.17,-138.6 410.62,-138.6 410.62,-107.8 167.17,-107.8"/>
<text text-anchor="start" x="174.17" y="-120" font-family="Arial" font-size="14.00">icon </text>
<text text-anchor="start" x="203.74" y="-120" font-family="Arial" font-size="14.00" fill="#666666">[varchar(255)]</text>
<polygon fill="none" stroke="black" points="167.17,-77 167.17,-107.8 410.62,-107.8 410.62,-77 167.17,-77"/>
<text text-anchor="start" x="174.17" y="-89.2" font-family="Arial" font-size="14.00">created_at </text>
<text text-anchor="start" x="244.22" y="-89.2" font-family="Arial" font-size="14.00" fill="#666666">[timestamp]</text>
<polygon fill="none" stroke="black" points="167.17,-46.2 167.17,-77 410.62,-77 410.62,-46.2 167.17,-46.2"/>
<text text-anchor="start" x="174.17" y="-58.4" font-family="Arial" font-size="14.00">updated_at </text>
<text text-anchor="start" x="248.13" y="-58.4" font-family="Arial" font-size="14.00" fill="#666666">[timestamp]</text>
<polygon fill="none" stroke="black" stroke-width="3" points="165.67,-44.7 165.67,-298.9 412.12,-298.9 412.12,-44.7 165.67,-44.7"/>
</g>
<!-- job_categories&#45;&gt;job_categories -->
<g id="edge1" class="edge">
<title>job_categories:parent_id&#45;&gt;job_categories:id</title>
<path fill="none" stroke="black" d="M290.11,-179.53C297.87,-358.67 297.47,-685.9 288.89,-685.9 280.16,-685.9 279.9,-433.25 288.13,-261.7"/>
<polygon fill="black" stroke="black" points="290.11,-179.59 294.16,-169.4 289.87,-174.26 289.68,-169.94 289.68,-169.94 289.68,-169.94 289.87,-174.26 285.17,-169.8 290.11,-179.59"/>
<text text-anchor="start" x="7" y="-179.27" font-family="Arial" font-size="10.00">FOREIGN KEY (parent_id) REFERENCES job_categories (id)</text>
</g>
<!-- jobs -->
<g id="node2" class="node">
<title>jobs</title>
<polygon fill="#efefef" stroke="none" points="179.54,-1254.4 179.54,-1290 398.25,-1290 398.25,-1254.4 179.54,-1254.4"/>
<polygon fill="none" stroke="black" points="179.54,-1254.4 179.54,-1290 398.25,-1290 398.25,-1254.4 179.54,-1254.4"/>
<text text-anchor="start" x="211.65" y="-1267.8" font-family="Arial Bold" font-size="18.00">jobs</text>
<text text-anchor="start" x="241.65" y="-1267.8" font-family="Arial" font-size="14.00">    </text>
<text text-anchor="start" x="272.77" y="-1267.8" font-family="Arial" font-size="14.00" fill="#666666">[BASE TABLE]</text>
<polygon fill="none" stroke="black" points="179.54,-1223.6 179.54,-1254.4 398.25,-1254.4 398.25,-1223.6 179.54,-1223.6"/>
<text text-anchor="start" x="186.54" y="-1235.8" font-family="Arial" font-size="14.00">id </text>
<text text-anchor="start" x="201.33" y="-1235.8" font-family="Arial" font-size="14.00" fill="#666666">[bigint unsigned]</text>
<polygon fill="none" stroke="black" points="179.54,-1192.8 179.54,-1223.6 398.25,-1223.6 398.25,-1192.8 179.54,-1192.8"/>
<text text-anchor="start" x="186.54" y="-1205" font-family="Arial" font-size="14.00">company_id </text>
<text text-anchor="start" x="265.92" y="-1205" font-family="Arial" font-size="14.00" fill="#666666">[bigint unsigned]</text>
<polygon fill="none" stroke="black" points="179.54,-1162 179.54,-1192.8 398.25,-1192.8 398.25,-1162 179.54,-1162"/>
<text text-anchor="start" x="186.54" y="-1174.2" font-family="Arial" font-size="14.00">job_category_id </text>
<text text-anchor="start" x="289.28" y="-1174.2" font-family="Arial" font-size="14.00" fill="#666666">[bigint unsigned]</text>
<polygon fill="none" stroke="black" points="179.54,-1131.2 179.54,-1162 398.25,-1162 398.25,-1131.2 179.54,-1131.2"/>
<text text-anchor="start" x="186.54" y="-1143.4" font-family="Arial" font-size="14.00">location_id </text>
<text text-anchor="start" x="257.37" y="-1143.4" font-family="Arial" font-size="14.00" fill="#666666">[bigint unsigned]</text>
<polygon fill="none" stroke="black" points="179.54,-1100.4 179.54,-1131.2 398.25,-1131.2 398.25,-1100.4 179.54,-1100.4"/>
<text text-anchor="start" x="186.54" y="-1112.6" font-family="Arial" font-size="14.00">title </text>
<text text-anchor="start" x="212.22" y="-1112.6" font-family="Arial" font-size="14.00" fill="#666666">[varchar(255)]</text>
<polygon fill="none" stroke="black" points="179.54,-1069.6 179.54,-1100.4 398.25,-1100.4 398.25,-1069.6 179.54,-1069.6"/>
<text text-anchor="start" x="186.54" y="-1081.8" font-family="Arial" font-size="14.00">location </text>
<text text-anchor="start" x="238.69" y="-1081.8" font-family="Arial" font-size="14.00" fill="#666666">[varchar(255)]</text>
<polygon fill="none" stroke="black" points="179.54,-1038.8 179.54,-1069.6 398.25,-1069.6 398.25,-1038.8 179.54,-1038.8"/>
<text text-anchor="start" x="186.54" y="-1051" font-family="Arial" font-size="14.00">salary_min </text>
<text text-anchor="start" x="258.12" y="-1051" font-family="Arial" font-size="14.00" fill="#666666">[int unsigned]</text>
<polygon fill="none" stroke="black" points="179.54,-1008 179.54,-1038.8 398.25,-1038.8 398.25,-1008 179.54,-1008"/>
<text text-anchor="start" x="186.54" y="-1020.2" font-family="Arial" font-size="14.00">salary_max </text>
<text text-anchor="start" x="262.01" y="-1020.2" font-family="Arial" font-size="14.00" fill="#666666">[int unsigned]</text>
<polygon fill="none" stroke="black" points="179.54,-977.2 179.54,-1008 398.25,-1008 398.25,-977.2 179.54,-977.2"/>
<text text-anchor="start" x="186.54" y="-989.4" font-family="Arial" font-size="14.00">employment_type </text>
<text text-anchor="start" x="300.94" y="-989.4" font-family="Arial" font-size="14.00" fill="#666666">[tinyint]</text>
<polygon fill="none" stroke="black" points="179.54,-946.4 179.54,-977.2 398.25,-977.2 398.25,-946.4 179.54,-946.4"/>
<text text-anchor="start" x="186.54" y="-958.6" font-family="Arial" font-size="14.00">description </text>
<text text-anchor="start" x="258.14" y="-958.6" font-family="Arial" font-size="14.00" fill="#666666">[text]</text>
<polygon fill="none" stroke="black" points="179.54,-915.6 179.54,-946.4 398.25,-946.4 398.25,-915.6 179.54,-915.6"/>
<text text-anchor="start" x="186.54" y="-927.8" font-family="Arial" font-size="14.00">requirements </text>
<text text-anchor="start" x="272.14" y="-927.8" font-family="Arial" font-size="14.00" fill="#666666">[text]</text>
<polygon fill="none" stroke="black" points="179.54,-884.8 179.54,-915.6 398.25,-915.6 398.25,-884.8 179.54,-884.8"/>
<text text-anchor="start" x="186.54" y="-897" font-family="Arial" font-size="14.00">welcome_skills </text>
<text text-anchor="start" x="283.79" y="-897" font-family="Arial" font-size="14.00" fill="#666666">[text]</text>
<polygon fill="none" stroke="black" points="179.54,-854 179.54,-884.8 398.25,-884.8 398.25,-854 179.54,-854"/>
<text text-anchor="start" x="186.54" y="-866.2" font-family="Arial" font-size="14.00">required_qualifications </text>
<text text-anchor="start" x="330.52" y="-866.2" font-family="Arial" font-size="14.00" fill="#666666">[text]</text>
<polygon fill="none" stroke="black" points="179.54,-823.2 179.54,-854 398.25,-854 398.25,-823.2 179.54,-823.2"/>
<text text-anchor="start" x="186.54" y="-835.4" font-family="Arial" font-size="14.00">tools </text>
<text text-anchor="start" x="220" y="-835.4" font-family="Arial" font-size="14.00" fill="#666666">[text]</text>
<polygon fill="none" stroke="black" points="179.54,-792.4 179.54,-823.2 398.25,-823.2 398.25,-792.4 179.54,-792.4"/>
<text text-anchor="start" x="186.54" y="-804.6" font-family="Arial" font-size="14.00">selection_flow </text>
<text text-anchor="start" x="278.37" y="-804.6" font-family="Arial" font-size="14.00" fill="#666666">[text]</text>
<polygon fill="none" stroke="black" points="179.54,-761.6 179.54,-792.4 398.25,-792.4 398.25,-761.6 179.54,-761.6"/>
<text text-anchor="start" x="186.54" y="-773.8" font-family="Arial" font-size="14.00">required_documents </text>
<text text-anchor="start" x="318.07" y="-773.8" font-family="Arial" font-size="14.00" fill="#666666">[text]</text>
<polygon fill="none" stroke="black" points="179.54,-730.8 179.54,-761.6 398.25,-761.6 398.25,-730.8 179.54,-730.8"/>
<text text-anchor="start" x="186.54" y="-743" font-family="Arial" font-size="14.00">interview_place </text>
<text text-anchor="start" x="286.93" y="-743" font-family="Arial" font-size="14.00" fill="#666666">[varchar(255)]</text>
<polygon fill="none" stroke="black" points="179.54,-700 179.54,-730.8 398.25,-730.8 398.25,-700 179.54,-700"/>
<text text-anchor="start" x="186.54" y="-712.2" font-family="Arial" font-size="14.00">benefits </text>
<text text-anchor="start" x="239.47" y="-712.2" font-family="Arial" font-size="14.00" fill="#666666">[text]</text>
<polygon fill="none" stroke="black" points="179.54,-669.2 179.54,-700 398.25,-700 398.25,-669.2 179.54,-669.2"/>
<text text-anchor="start" x="186.54" y="-681.4" font-family="Arial" font-size="14.00">work_time </text>
<text text-anchor="start" x="254.23" y="-681.4" font-family="Arial" font-size="14.00" fill="#666666">[varchar(255)]</text>
<polygon fill="none" stroke="black" points="179.54,-638.4 179.54,-669.2 398.25,-669.2 398.25,-638.4 179.54,-638.4"/>
<text text-anchor="start" x="186.54" y="-650.6" font-family="Arial" font-size="14.00">holiday </text>
<text text-anchor="start" x="234.8" y="-650.6" font-family="Arial" font-size="14.00" fill="#666666">[varchar(255)]</text>
<polygon fill="none" stroke="black" points="179.54,-607.6 179.54,-638.4 398.25,-638.4 398.25,-607.6 179.54,-607.6"/>
<text text-anchor="start" x="186.54" y="-619.8" font-family="Arial" font-size="14.00">number_of_positions </text>
<text text-anchor="start" x="320.4" y="-619.8" font-family="Arial" font-size="14.00" fill="#666666">[int]</text>
<polygon fill="none" stroke="black" points="179.54,-576.8 179.54,-607.6 398.25,-607.6 398.25,-576.8 179.54,-576.8"/>
<text text-anchor="start" x="186.54" y="-589" font-family="Arial" font-size="14.00">is_active </text>
<text text-anchor="start" x="244.9" y="-589" font-family="Arial" font-size="14.00" fill="#666666">[tinyint(1)]</text>
<polygon fill="none" stroke="black" points="179.54,-546 179.54,-576.8 398.25,-576.8 398.25,-546 179.54,-546"/>
<text text-anchor="start" x="186.54" y="-558.2" font-family="Arial" font-size="14.00">is_featured </text>
<text text-anchor="start" x="259.7" y="-558.2" font-family="Arial" font-size="14.00" fill="#666666">[tinyint(1)]</text>
<polygon fill="none" stroke="black" points="179.54,-515.2 179.54,-546 398.25,-546 398.25,-515.2 179.54,-515.2"/>
<text text-anchor="start" x="186.54" y="-527.4" font-family="Arial" font-size="14.00">is_closed </text>
<text text-anchor="start" x="248.8" y="-527.4" font-family="Arial" font-size="14.00" fill="#666666">[tinyint(1)]</text>
<polygon fill="none" stroke="black" points="179.54,-484.4 179.54,-515.2 398.25,-515.2 398.25,-484.4 179.54,-484.4"/>
<text text-anchor="start" x="186.54" y="-496.6" font-family="Arial" font-size="14.00">application_deadline </text>
<text text-anchor="start" x="318.09" y="-496.6" font-family="Arial" font-size="14.00" fill="#666666">[date]</text>
<polygon fill="none" stroke="black" points="179.54,-453.6 179.54,-484.4 398.25,-484.4 398.25,-453.6 179.54,-453.6"/>
<text text-anchor="start" x="186.54" y="-465.8" font-family="Arial" font-size="14.00">created_at </text>
<text text-anchor="start" x="256.59" y="-465.8" font-family="Arial" font-size="14.00" fill="#666666">[timestamp]</text>
<polygon fill="none" stroke="black" points="179.54,-422.8 179.54,-453.6 398.25,-453.6 398.25,-422.8 179.54,-422.8"/>
<text text-anchor="start" x="186.54" y="-435" font-family="Arial" font-size="14.00">updated_at </text>
<text text-anchor="start" x="260.5" y="-435" font-family="Arial" font-size="14.00" fill="#666666">[timestamp]</text>
</g>
<!-- jobs&#45;&gt;job_categories -->
<g id="edge2" class="edge">
<title>jobs:job_category_id&#45;&gt;job_categories:id</title>
<path fill="none" stroke="black" d="M406.82,-1170.44C452.06,-1085.25 460.72,-246.4 411.62,-246.4"/>
<polygon fill="black" stroke="black" points="406.85,-1170.41 396.45,-1173.86 402.93,-1174.02 399.74,-1176.95 399.74,-1176.95 399.74,-1176.95 402.93,-1174.02 402.54,-1180.49 406.85,-1170.41"/>
<text text-anchor="start" x="406.25" y="-1187.4" font-family="Arial" font-size="10.00">FOREIGN KEY (job_category_id) REFERENCES job_categories (id)</text>
</g>
</g>
</svg>
