<?xml version="1.0" encoding="UTF-8" standalone="no"?>
<!DOCTYPE svg PUBLIC "-//W3C//DTD SVG 1.1//EN"
 "http://www.w3.org/Graphics/SVG/1.1/DTD/svg11.dtd">
<!-- Generated by graphviz version 12.1.2 (20240928.0832)
 -->
<!-- Title: job_tag Pages: 1 -->
<svg width="659pt" height="1280pt"
 viewBox="0.00 0.00 659.47 1279.60" xmlns="http://www.w3.org/2000/svg" xmlns:xlink="http://www.w3.org/1999/xlink">
<g id="graph0" class="graph" transform="scale(1 1) rotate(0) translate(4 1275.6)">
<title>job_tag</title>
<polygon fill="white" stroke="none" points="-4,4 -4,-1275.6 655.47,-1275.6 655.47,4 -4,4"/>
<!-- job_tag -->
<g id="node1" class="node">
<title>job_tag</title>
<polygon fill="#efefef" stroke="none" points="228.94,-1189.8 228.94,-1225.4 421.42,-1225.4 421.42,-1189.8 228.94,-1189.8"/>
<polygon fill="none" stroke="black" points="228.94,-1189.8 228.94,-1225.4 421.42,-1225.4 421.42,-1189.8 228.94,-1189.8"/>
<text text-anchor="start" x="235.94" y="-1203.2" font-family="Arial Bold" font-size="18.00">job_tag</text>
<text text-anchor="start" x="289.93" y="-1203.2" font-family="Arial" font-size="14.00">    </text>
<text text-anchor="start" x="321.05" y="-1203.2" font-family="Arial" font-size="14.00" fill="#666666">[BASE TABLE]</text>
<polygon fill="none" stroke="black" points="228.94,-1159 228.94,-1189.8 421.42,-1189.8 421.42,-1159 228.94,-1159"/>
<text text-anchor="start" x="235.94" y="-1171.2" font-family="Arial" font-size="14.00">id </text>
<text text-anchor="start" x="250.73" y="-1171.2" font-family="Arial" font-size="14.00" fill="#666666">[bigint unsigned]</text>
<polygon fill="none" stroke="black" points="228.94,-1128.2 228.94,-1159 421.42,-1159 421.42,-1128.2 228.94,-1128.2"/>
<text text-anchor="start" x="235.94" y="-1140.4" font-family="Arial" font-size="14.00">job_id </text>
<text text-anchor="start" x="277.2" y="-1140.4" font-family="Arial" font-size="14.00" fill="#666666">[bigint unsigned]</text>
<polygon fill="none" stroke="black" points="228.94,-1097.4 228.94,-1128.2 421.42,-1128.2 421.42,-1097.4 228.94,-1097.4"/>
<text text-anchor="start" x="235.94" y="-1109.6" font-family="Arial" font-size="14.00">tag_id </text>
<text text-anchor="start" x="277.97" y="-1109.6" font-family="Arial" font-size="14.00" fill="#666666">[bigint unsigned]</text>
<polygon fill="none" stroke="black" points="228.94,-1066.6 228.94,-1097.4 421.42,-1097.4 421.42,-1066.6 228.94,-1066.6"/>
<text text-anchor="start" x="235.94" y="-1078.8" font-family="Arial" font-size="14.00">created_at </text>
<text text-anchor="start" x="305.99" y="-1078.8" font-family="Arial" font-size="14.00" fill="#666666">[timestamp]</text>
<polygon fill="none" stroke="black" points="228.94,-1035.8 228.94,-1066.6 421.42,-1066.6 421.42,-1035.8 228.94,-1035.8"/>
<text text-anchor="start" x="235.94" y="-1048" font-family="Arial" font-size="14.00">updated_at </text>
<text text-anchor="start" x="309.9" y="-1048" font-family="Arial" font-size="14.00" fill="#666666">[timestamp]</text>
<polygon fill="none" stroke="black" stroke-width="3" points="227.44,-1034.3 227.44,-1226.9 422.92,-1226.9 422.92,-1034.3 227.44,-1034.3"/>
</g>
<!-- jobs -->
<g id="node2" class="node">
<title>jobs</title>
<polygon fill="#efefef" stroke="none" points="67.83,-874.8 67.83,-910.4 286.53,-910.4 286.53,-874.8 67.83,-874.8"/>
<polygon fill="none" stroke="black" points="67.83,-874.8 67.83,-910.4 286.53,-910.4 286.53,-874.8 67.83,-874.8"/>
<text text-anchor="start" x="99.93" y="-888.2" font-family="Arial Bold" font-size="18.00">jobs</text>
<text text-anchor="start" x="129.94" y="-888.2" font-family="Arial" font-size="14.00">    </text>
<text text-anchor="start" x="161.06" y="-888.2" font-family="Arial" font-size="14.00" fill="#666666">[BASE TABLE]</text>
<polygon fill="none" stroke="black" points="67.83,-844 67.83,-874.8 286.53,-874.8 286.53,-844 67.83,-844"/>
<text text-anchor="start" x="74.83" y="-856.2" font-family="Arial" font-size="14.00">id </text>
<text text-anchor="start" x="89.62" y="-856.2" font-family="Arial" font-size="14.00" fill="#666666">[bigint unsigned]</text>
<polygon fill="none" stroke="black" points="67.83,-813.2 67.83,-844 286.53,-844 286.53,-813.2 67.83,-813.2"/>
<text text-anchor="start" x="74.83" y="-825.4" font-family="Arial" font-size="14.00">company_id </text>
<text text-anchor="start" x="154.21" y="-825.4" font-family="Arial" font-size="14.00" fill="#666666">[bigint unsigned]</text>
<polygon fill="none" stroke="black" points="67.83,-782.4 67.83,-813.2 286.53,-813.2 286.53,-782.4 67.83,-782.4"/>
<text text-anchor="start" x="74.83" y="-794.6" font-family="Arial" font-size="14.00">job_category_id </text>
<text text-anchor="start" x="177.57" y="-794.6" font-family="Arial" font-size="14.00" fill="#666666">[bigint unsigned]</text>
<polygon fill="none" stroke="black" points="67.83,-751.6 67.83,-782.4 286.53,-782.4 286.53,-751.6 67.83,-751.6"/>
<text text-anchor="start" x="74.83" y="-763.8" font-family="Arial" font-size="14.00">location_id </text>
<text text-anchor="start" x="145.66" y="-763.8" font-family="Arial" font-size="14.00" fill="#666666">[bigint unsigned]</text>
<polygon fill="none" stroke="black" points="67.83,-720.8 67.83,-751.6 286.53,-751.6 286.53,-720.8 67.83,-720.8"/>
<text text-anchor="start" x="74.83" y="-733" font-family="Arial" font-size="14.00">title </text>
<text text-anchor="start" x="100.51" y="-733" font-family="Arial" font-size="14.00" fill="#666666">[varchar(255)]</text>
<polygon fill="none" stroke="black" points="67.83,-690 67.83,-720.8 286.53,-720.8 286.53,-690 67.83,-690"/>
<text text-anchor="start" x="74.83" y="-702.2" font-family="Arial" font-size="14.00">location </text>
<text text-anchor="start" x="126.97" y="-702.2" font-family="Arial" font-size="14.00" fill="#666666">[varchar(255)]</text>
<polygon fill="none" stroke="black" points="67.83,-659.2 67.83,-690 286.53,-690 286.53,-659.2 67.83,-659.2"/>
<text text-anchor="start" x="74.83" y="-671.4" font-family="Arial" font-size="14.00">salary_min </text>
<text text-anchor="start" x="146.41" y="-671.4" font-family="Arial" font-size="14.00" fill="#666666">[int unsigned]</text>
<polygon fill="none" stroke="black" points="67.83,-628.4 67.83,-659.2 286.53,-659.2 286.53,-628.4 67.83,-628.4"/>
<text text-anchor="start" x="74.83" y="-640.6" font-family="Arial" font-size="14.00">salary_max </text>
<text text-anchor="start" x="150.3" y="-640.6" font-family="Arial" font-size="14.00" fill="#666666">[int unsigned]</text>
<polygon fill="none" stroke="black" points="67.83,-597.6 67.83,-628.4 286.53,-628.4 286.53,-597.6 67.83,-597.6"/>
<text text-anchor="start" x="74.83" y="-609.8" font-family="Arial" font-size="14.00">employment_type </text>
<text text-anchor="start" x="189.22" y="-609.8" font-family="Arial" font-size="14.00" fill="#666666">[tinyint]</text>
<polygon fill="none" stroke="black" points="67.83,-566.8 67.83,-597.6 286.53,-597.6 286.53,-566.8 67.83,-566.8"/>
<text text-anchor="start" x="74.83" y="-579" font-family="Arial" font-size="14.00">description </text>
<text text-anchor="start" x="146.42" y="-579" font-family="Arial" font-size="14.00" fill="#666666">[text]</text>
<polygon fill="none" stroke="black" points="67.83,-536 67.83,-566.8 286.53,-566.8 286.53,-536 67.83,-536"/>
<text text-anchor="start" x="74.83" y="-548.2" font-family="Arial" font-size="14.00">requirements </text>
<text text-anchor="start" x="160.42" y="-548.2" font-family="Arial" font-size="14.00" fill="#666666">[text]</text>
<polygon fill="none" stroke="black" points="67.83,-505.2 67.83,-536 286.53,-536 286.53,-505.2 67.83,-505.2"/>
<text text-anchor="start" x="74.83" y="-517.4" font-family="Arial" font-size="14.00">welcome_skills </text>
<text text-anchor="start" x="172.08" y="-517.4" font-family="Arial" font-size="14.00" fill="#666666">[text]</text>
<polygon fill="none" stroke="black" points="67.83,-474.4 67.83,-505.2 286.53,-505.2 286.53,-474.4 67.83,-474.4"/>
<text text-anchor="start" x="74.83" y="-486.6" font-family="Arial" font-size="14.00">required_qualifications </text>
<text text-anchor="start" x="218.81" y="-486.6" font-family="Arial" font-size="14.00" fill="#666666">[text]</text>
<polygon fill="none" stroke="black" points="67.83,-443.6 67.83,-474.4 286.53,-474.4 286.53,-443.6 67.83,-443.6"/>
<text text-anchor="start" x="74.83" y="-455.8" font-family="Arial" font-size="14.00">tools </text>
<text text-anchor="start" x="108.29" y="-455.8" font-family="Arial" font-size="14.00" fill="#666666">[text]</text>
<polygon fill="none" stroke="black" points="67.83,-412.8 67.83,-443.6 286.53,-443.6 286.53,-412.8 67.83,-412.8"/>
<text text-anchor="start" x="74.83" y="-425" font-family="Arial" font-size="14.00">selection_flow </text>
<text text-anchor="start" x="166.66" y="-425" font-family="Arial" font-size="14.00" fill="#666666">[text]</text>
<polygon fill="none" stroke="black" points="67.83,-382 67.83,-412.8 286.53,-412.8 286.53,-382 67.83,-382"/>
<text text-anchor="start" x="74.83" y="-394.2" font-family="Arial" font-size="14.00">required_documents </text>
<text text-anchor="start" x="206.35" y="-394.2" font-family="Arial" font-size="14.00" fill="#666666">[text]</text>
<polygon fill="none" stroke="black" points="67.83,-351.2 67.83,-382 286.53,-382 286.53,-351.2 67.83,-351.2"/>
<text text-anchor="start" x="74.83" y="-363.4" font-family="Arial" font-size="14.00">interview_place </text>
<text text-anchor="start" x="175.22" y="-363.4" font-family="Arial" font-size="14.00" fill="#666666">[varchar(255)]</text>
<polygon fill="none" stroke="black" points="67.83,-320.4 67.83,-351.2 286.53,-351.2 286.53,-320.4 67.83,-320.4"/>
<text text-anchor="start" x="74.83" y="-332.6" font-family="Arial" font-size="14.00">benefits </text>
<text text-anchor="start" x="127.75" y="-332.6" font-family="Arial" font-size="14.00" fill="#666666">[text]</text>
<polygon fill="none" stroke="black" points="67.83,-289.6 67.83,-320.4 286.53,-320.4 286.53,-289.6 67.83,-289.6"/>
<text text-anchor="start" x="74.83" y="-301.8" font-family="Arial" font-size="14.00">work_time </text>
<text text-anchor="start" x="142.51" y="-301.8" font-family="Arial" font-size="14.00" fill="#666666">[varchar(255)]</text>
<polygon fill="none" stroke="black" points="67.83,-258.8 67.83,-289.6 286.53,-289.6 286.53,-258.8 67.83,-258.8"/>
<text text-anchor="start" x="74.83" y="-271" font-family="Arial" font-size="14.00">holiday </text>
<text text-anchor="start" x="123.08" y="-271" font-family="Arial" font-size="14.00" fill="#666666">[varchar(255)]</text>
<polygon fill="none" stroke="black" points="67.83,-228 67.83,-258.8 286.53,-258.8 286.53,-228 67.83,-228"/>
<text text-anchor="start" x="74.83" y="-240.2" font-family="Arial" font-size="14.00">number_of_positions </text>
<text text-anchor="start" x="208.69" y="-240.2" font-family="Arial" font-size="14.00" fill="#666666">[int]</text>
<polygon fill="none" stroke="black" points="67.83,-197.2 67.83,-228 286.53,-228 286.53,-197.2 67.83,-197.2"/>
<text text-anchor="start" x="74.83" y="-209.4" font-family="Arial" font-size="14.00">is_active </text>
<text text-anchor="start" x="133.19" y="-209.4" font-family="Arial" font-size="14.00" fill="#666666">[tinyint(1)]</text>
<polygon fill="none" stroke="black" points="67.83,-166.4 67.83,-197.2 286.53,-197.2 286.53,-166.4 67.83,-166.4"/>
<text text-anchor="start" x="74.83" y="-178.6" font-family="Arial" font-size="14.00">is_featured </text>
<text text-anchor="start" x="147.99" y="-178.6" font-family="Arial" font-size="14.00" fill="#666666">[tinyint(1)]</text>
<polygon fill="none" stroke="black" points="67.83,-135.6 67.83,-166.4 286.53,-166.4 286.53,-135.6 67.83,-135.6"/>
<text text-anchor="start" x="74.83" y="-147.8" font-family="Arial" font-size="14.00">is_closed </text>
<text text-anchor="start" x="137.08" y="-147.8" font-family="Arial" font-size="14.00" fill="#666666">[tinyint(1)]</text>
<polygon fill="none" stroke="black" points="67.83,-104.8 67.83,-135.6 286.53,-135.6 286.53,-104.8 67.83,-104.8"/>
<text text-anchor="start" x="74.83" y="-117" font-family="Arial" font-size="14.00">application_deadline </text>
<text text-anchor="start" x="206.38" y="-117" font-family="Arial" font-size="14.00" fill="#666666">[date]</text>
<polygon fill="none" stroke="black" points="67.83,-74 67.83,-104.8 286.53,-104.8 286.53,-74 67.83,-74"/>
<text text-anchor="start" x="74.83" y="-86.2" font-family="Arial" font-size="14.00">created_at </text>
<text text-anchor="start" x="144.88" y="-86.2" font-family="Arial" font-size="14.00" fill="#666666">[timestamp]</text>
<polygon fill="none" stroke="black" points="67.83,-43.2 67.83,-74 286.53,-74 286.53,-43.2 67.83,-43.2"/>
<text text-anchor="start" x="74.83" y="-55.4" font-family="Arial" font-size="14.00">updated_at </text>
<text text-anchor="start" x="148.79" y="-55.4" font-family="Arial" font-size="14.00" fill="#666666">[timestamp]</text>
</g>
<!-- job_tag&#45;&gt;jobs -->
<g id="edge1" class="edge">
<title>job_tag:job_id&#45;&gt;jobs:id</title>
<path fill="none" stroke="black" d="M217.63,-1142.78C163.43,-1133.4 197.39,-1046.09 228.94,-989.6 243.66,-963.25 271.76,-979.92 286.53,-953.6 307.02,-917.09 329.4,-859.4 287.53,-859.4"/>
<polygon fill="black" stroke="black" points="217.64,-1142.78 227.25,-1148.06 222.96,-1143.2 227.27,-1143.55 227.27,-1143.55 227.27,-1143.55 222.96,-1143.2 227.97,-1139.09 217.64,-1142.78"/>
<text text-anchor="start" x="7" y="-1153.6" font-family="Arial" font-size="10.00">FOREIGN KEY (job_id) REFERENCES jobs (id)</text>
</g>
<!-- tags -->
<g id="node3" class="node">
<title>tags</title>
<polygon fill="#efefef" stroke="none" points="390.44,-551.4 390.44,-587 557.92,-587 557.92,-551.4 390.44,-551.4"/>
<polygon fill="none" stroke="black" points="390.44,-551.4 390.44,-587 557.92,-587 557.92,-551.4 390.44,-551.4"/>
<text text-anchor="start" x="397.44" y="-564.8" font-family="Arial Bold" font-size="18.00">tags</text>
<text text-anchor="start" x="426.43" y="-564.8" font-family="Arial" font-size="14.00">    </text>
<text text-anchor="start" x="457.55" y="-564.8" font-family="Arial" font-size="14.00" fill="#666666">[BASE TABLE]</text>
<polygon fill="none" stroke="black" points="390.44,-520.6 390.44,-551.4 557.92,-551.4 557.92,-520.6 390.44,-520.6"/>
<text text-anchor="start" x="397.44" y="-532.8" font-family="Arial" font-size="14.00">id </text>
<text text-anchor="start" x="412.22" y="-532.8" font-family="Arial" font-size="14.00" fill="#666666">[bigint unsigned]</text>
<polygon fill="none" stroke="black" points="390.44,-489.8 390.44,-520.6 557.92,-520.6 557.92,-489.8 390.44,-489.8"/>
<text text-anchor="start" x="397.44" y="-502" font-family="Arial" font-size="14.00">label </text>
<text text-anchor="start" x="430.91" y="-502" font-family="Arial" font-size="14.00" fill="#666666">[varchar(255)]</text>
<polygon fill="none" stroke="black" points="390.44,-459 390.44,-489.8 557.92,-489.8 557.92,-459 390.44,-459"/>
<text text-anchor="start" x="397.44" y="-471.2" font-family="Arial" font-size="14.00">slug </text>
<text text-anchor="start" x="427.01" y="-471.2" font-family="Arial" font-size="14.00" fill="#666666">[varchar(255)]</text>
<polygon fill="none" stroke="black" points="390.44,-428.2 390.44,-459 557.92,-459 557.92,-428.2 390.44,-428.2"/>
<text text-anchor="start" x="397.44" y="-440.4" font-family="Arial" font-size="14.00">sort_order </text>
<text text-anchor="start" x="465.13" y="-440.4" font-family="Arial" font-size="14.00" fill="#666666">[int]</text>
<polygon fill="none" stroke="black" points="390.44,-397.4 390.44,-428.2 557.92,-428.2 557.92,-397.4 390.44,-397.4"/>
<text text-anchor="start" x="397.44" y="-409.6" font-family="Arial" font-size="14.00">created_at </text>
<text text-anchor="start" x="467.49" y="-409.6" font-family="Arial" font-size="14.00" fill="#666666">[timestamp]</text>
<polygon fill="none" stroke="black" points="390.44,-366.6 390.44,-397.4 557.92,-397.4 557.92,-366.6 390.44,-366.6"/>
<text text-anchor="start" x="397.44" y="-378.8" font-family="Arial" font-size="14.00">updated_at </text>
<text text-anchor="start" x="471.4" y="-378.8" font-family="Arial" font-size="14.00" fill="#666666">[timestamp]</text>
</g>
<!-- job_tag&#45;&gt;tags -->
<g id="edge2" class="edge">
<title>job_tag:tag_id&#45;&gt;tags:id</title>
<path fill="none" stroke="black" d="M432.65,-1111.34C534.19,-1079.5 264.81,-536 389.44,-536"/>
<polygon fill="black" stroke="black" points="432.65,-1111.34 422.12,-1108.3 427.37,-1112.1 423.08,-1112.71 423.08,-1112.71 423.08,-1112.71 427.37,-1112.1 423.39,-1117.21 432.65,-1111.34"/>
<text text-anchor="start" x="429.42" y="-1122.8" font-family="Arial" font-size="10.00">FOREIGN KEY (tag_id) REFERENCES tags (id)</text>
</g>
</g>
</svg>
