<?xml version="1.0" encoding="UTF-8" standalone="no"?>
<!DOCTYPE svg PUBLIC "-//W3C//DTD SVG 1.1//EN"
 "http://www.w3.org/Graphics/SVG/1.1/DTD/svg11.dtd">
<!-- Generated by graphviz version 12.1.2 (20240928.0832)
 -->
<!-- Title: jobs Pages: 1 -->
<svg width="966pt" height="1930pt"
 viewBox="0.00 0.00 965.87 1930.40" xmlns="http://www.w3.org/2000/svg" xmlns:xlink="http://www.w3.org/1999/xlink">
<g id="graph0" class="graph" transform="scale(1 1) rotate(0) translate(4 1926.4)">
<title>jobs</title>
<polygon fill="white" stroke="none" points="-4,4 -4,-1926.4 961.87,-1926.4 961.87,4 -4,4"/>
<!-- jobs -->
<g id="node1" class="node">
<title>jobs</title>
<polygon fill="#efefef" stroke="none" points="375.58,-1405.4 375.58,-1441 594.28,-1441 594.28,-1405.4 375.58,-1405.4"/>
<polygon fill="none" stroke="black" points="375.58,-1405.4 375.58,-1441 594.28,-1441 594.28,-1405.4 375.58,-1405.4"/>
<text text-anchor="start" x="407.68" y="-1418.8" font-family="Arial Bold" font-size="18.00">jobs</text>
<text text-anchor="start" x="437.69" y="-1418.8" font-family="Arial" font-size="14.00">    </text>
<text text-anchor="start" x="468.81" y="-1418.8" font-family="Arial" font-size="14.00" fill="#666666">[BASE TABLE]</text>
<polygon fill="none" stroke="black" points="375.58,-1374.6 375.58,-1405.4 594.28,-1405.4 594.28,-1374.6 375.58,-1374.6"/>
<text text-anchor="start" x="382.58" y="-1386.8" font-family="Arial" font-size="14.00">id </text>
<text text-anchor="start" x="397.37" y="-1386.8" font-family="Arial" font-size="14.00" fill="#666666">[bigint unsigned]</text>
<polygon fill="none" stroke="black" points="375.58,-1343.8 375.58,-1374.6 594.28,-1374.6 594.28,-1343.8 375.58,-1343.8"/>
<text text-anchor="start" x="382.58" y="-1356" font-family="Arial" font-size="14.00">company_id </text>
<text text-anchor="start" x="461.96" y="-1356" font-family="Arial" font-size="14.00" fill="#666666">[bigint unsigned]</text>
<polygon fill="none" stroke="black" points="375.58,-1313 375.58,-1343.8 594.28,-1343.8 594.28,-1313 375.58,-1313"/>
<text text-anchor="start" x="382.58" y="-1325.2" font-family="Arial" font-size="14.00">job_category_id </text>
<text text-anchor="start" x="485.32" y="-1325.2" font-family="Arial" font-size="14.00" fill="#666666">[bigint unsigned]</text>
<polygon fill="none" stroke="black" points="375.58,-1282.2 375.58,-1313 594.28,-1313 594.28,-1282.2 375.58,-1282.2"/>
<text text-anchor="start" x="382.58" y="-1294.4" font-family="Arial" font-size="14.00">location_id </text>
<text text-anchor="start" x="453.41" y="-1294.4" font-family="Arial" font-size="14.00" fill="#666666">[bigint unsigned]</text>
<polygon fill="none" stroke="black" points="375.58,-1251.4 375.58,-1282.2 594.28,-1282.2 594.28,-1251.4 375.58,-1251.4"/>
<text text-anchor="start" x="382.58" y="-1263.6" font-family="Arial" font-size="14.00">title </text>
<text text-anchor="start" x="408.26" y="-1263.6" font-family="Arial" font-size="14.00" fill="#666666">[varchar(255)]</text>
<polygon fill="none" stroke="black" points="375.58,-1220.6 375.58,-1251.4 594.28,-1251.4 594.28,-1220.6 375.58,-1220.6"/>
<text text-anchor="start" x="382.58" y="-1232.8" font-family="Arial" font-size="14.00">location </text>
<text text-anchor="start" x="434.73" y="-1232.8" font-family="Arial" font-size="14.00" fill="#666666">[varchar(255)]</text>
<polygon fill="none" stroke="black" points="375.58,-1189.8 375.58,-1220.6 594.28,-1220.6 594.28,-1189.8 375.58,-1189.8"/>
<text text-anchor="start" x="382.58" y="-1202" font-family="Arial" font-size="14.00">salary_min </text>
<text text-anchor="start" x="454.16" y="-1202" font-family="Arial" font-size="14.00" fill="#666666">[int unsigned]</text>
<polygon fill="none" stroke="black" points="375.58,-1159 375.58,-1189.8 594.28,-1189.8 594.28,-1159 375.58,-1159"/>
<text text-anchor="start" x="382.58" y="-1171.2" font-family="Arial" font-size="14.00">salary_max </text>
<text text-anchor="start" x="458.05" y="-1171.2" font-family="Arial" font-size="14.00" fill="#666666">[int unsigned]</text>
<polygon fill="none" stroke="black" points="375.58,-1128.2 375.58,-1159 594.28,-1159 594.28,-1128.2 375.58,-1128.2"/>
<text text-anchor="start" x="382.58" y="-1140.4" font-family="Arial" font-size="14.00">employment_type </text>
<text text-anchor="start" x="496.97" y="-1140.4" font-family="Arial" font-size="14.00" fill="#666666">[tinyint]</text>
<polygon fill="none" stroke="black" points="375.58,-1097.4 375.58,-1128.2 594.28,-1128.2 594.28,-1097.4 375.58,-1097.4"/>
<text text-anchor="start" x="382.58" y="-1109.6" font-family="Arial" font-size="14.00">description </text>
<text text-anchor="start" x="454.17" y="-1109.6" font-family="Arial" font-size="14.00" fill="#666666">[text]</text>
<polygon fill="none" stroke="black" points="375.58,-1066.6 375.58,-1097.4 594.28,-1097.4 594.28,-1066.6 375.58,-1066.6"/>
<text text-anchor="start" x="382.58" y="-1078.8" font-family="Arial" font-size="14.00">requirements </text>
<text text-anchor="start" x="468.17" y="-1078.8" font-family="Arial" font-size="14.00" fill="#666666">[text]</text>
<polygon fill="none" stroke="black" points="375.58,-1035.8 375.58,-1066.6 594.28,-1066.6 594.28,-1035.8 375.58,-1035.8"/>
<text text-anchor="start" x="382.58" y="-1048" font-family="Arial" font-size="14.00">welcome_skills </text>
<text text-anchor="start" x="479.83" y="-1048" font-family="Arial" font-size="14.00" fill="#666666">[text]</text>
<polygon fill="none" stroke="black" points="375.58,-1005 375.58,-1035.8 594.28,-1035.8 594.28,-1005 375.58,-1005"/>
<text text-anchor="start" x="382.58" y="-1017.2" font-family="Arial" font-size="14.00">required_qualifications </text>
<text text-anchor="start" x="526.56" y="-1017.2" font-family="Arial" font-size="14.00" fill="#666666">[text]</text>
<polygon fill="none" stroke="black" points="375.58,-974.2 375.58,-1005 594.28,-1005 594.28,-974.2 375.58,-974.2"/>
<text text-anchor="start" x="382.58" y="-986.4" font-family="Arial" font-size="14.00">tools </text>
<text text-anchor="start" x="416.04" y="-986.4" font-family="Arial" font-size="14.00" fill="#666666">[text]</text>
<polygon fill="none" stroke="black" points="375.58,-943.4 375.58,-974.2 594.28,-974.2 594.28,-943.4 375.58,-943.4"/>
<text text-anchor="start" x="382.58" y="-955.6" font-family="Arial" font-size="14.00">selection_flow </text>
<text text-anchor="start" x="474.41" y="-955.6" font-family="Arial" font-size="14.00" fill="#666666">[text]</text>
<polygon fill="none" stroke="black" points="375.58,-912.6 375.58,-943.4 594.28,-943.4 594.28,-912.6 375.58,-912.6"/>
<text text-anchor="start" x="382.58" y="-924.8" font-family="Arial" font-size="14.00">required_documents </text>
<text text-anchor="start" x="514.1" y="-924.8" font-family="Arial" font-size="14.00" fill="#666666">[text]</text>
<polygon fill="none" stroke="black" points="375.58,-881.8 375.58,-912.6 594.28,-912.6 594.28,-881.8 375.58,-881.8"/>
<text text-anchor="start" x="382.58" y="-894" font-family="Arial" font-size="14.00">interview_place </text>
<text text-anchor="start" x="482.97" y="-894" font-family="Arial" font-size="14.00" fill="#666666">[varchar(255)]</text>
<polygon fill="none" stroke="black" points="375.58,-851 375.58,-881.8 594.28,-881.8 594.28,-851 375.58,-851"/>
<text text-anchor="start" x="382.58" y="-863.2" font-family="Arial" font-size="14.00">benefits </text>
<text text-anchor="start" x="435.5" y="-863.2" font-family="Arial" font-size="14.00" fill="#666666">[text]</text>
<polygon fill="none" stroke="black" points="375.58,-820.2 375.58,-851 594.28,-851 594.28,-820.2 375.58,-820.2"/>
<text text-anchor="start" x="382.58" y="-832.4" font-family="Arial" font-size="14.00">work_time </text>
<text text-anchor="start" x="450.26" y="-832.4" font-family="Arial" font-size="14.00" fill="#666666">[varchar(255)]</text>
<polygon fill="none" stroke="black" points="375.58,-789.4 375.58,-820.2 594.28,-820.2 594.28,-789.4 375.58,-789.4"/>
<text text-anchor="start" x="382.58" y="-801.6" font-family="Arial" font-size="14.00">holiday </text>
<text text-anchor="start" x="430.84" y="-801.6" font-family="Arial" font-size="14.00" fill="#666666">[varchar(255)]</text>
<polygon fill="none" stroke="black" points="375.58,-758.6 375.58,-789.4 594.28,-789.4 594.28,-758.6 375.58,-758.6"/>
<text text-anchor="start" x="382.58" y="-770.8" font-family="Arial" font-size="14.00">number_of_positions </text>
<text text-anchor="start" x="516.44" y="-770.8" font-family="Arial" font-size="14.00" fill="#666666">[int]</text>
<polygon fill="none" stroke="black" points="375.58,-727.8 375.58,-758.6 594.28,-758.6 594.28,-727.8 375.58,-727.8"/>
<text text-anchor="start" x="382.58" y="-740" font-family="Arial" font-size="14.00">is_active </text>
<text text-anchor="start" x="440.94" y="-740" font-family="Arial" font-size="14.00" fill="#666666">[tinyint(1)]</text>
<polygon fill="none" stroke="black" points="375.58,-697 375.58,-727.8 594.28,-727.8 594.28,-697 375.58,-697"/>
<text text-anchor="start" x="382.58" y="-709.2" font-family="Arial" font-size="14.00">is_featured </text>
<text text-anchor="start" x="455.74" y="-709.2" font-family="Arial" font-size="14.00" fill="#666666">[tinyint(1)]</text>
<polygon fill="none" stroke="black" points="375.58,-666.2 375.58,-697 594.28,-697 594.28,-666.2 375.58,-666.2"/>
<text text-anchor="start" x="382.58" y="-678.4" font-family="Arial" font-size="14.00">is_closed </text>
<text text-anchor="start" x="444.84" y="-678.4" font-family="Arial" font-size="14.00" fill="#666666">[tinyint(1)]</text>
<polygon fill="none" stroke="black" points="375.58,-635.4 375.58,-666.2 594.28,-666.2 594.28,-635.4 375.58,-635.4"/>
<text text-anchor="start" x="382.58" y="-647.6" font-family="Arial" font-size="14.00">application_deadline </text>
<text text-anchor="start" x="514.13" y="-647.6" font-family="Arial" font-size="14.00" fill="#666666">[date]</text>
<polygon fill="none" stroke="black" points="375.58,-604.6 375.58,-635.4 594.28,-635.4 594.28,-604.6 375.58,-604.6"/>
<text text-anchor="start" x="382.58" y="-616.8" font-family="Arial" font-size="14.00">created_at </text>
<text text-anchor="start" x="452.63" y="-616.8" font-family="Arial" font-size="14.00" fill="#666666">[timestamp]</text>
<polygon fill="none" stroke="black" points="375.58,-573.8 375.58,-604.6 594.28,-604.6 594.28,-573.8 375.58,-573.8"/>
<text text-anchor="start" x="382.58" y="-586" font-family="Arial" font-size="14.00">updated_at </text>
<text text-anchor="start" x="456.54" y="-586" font-family="Arial" font-size="14.00" fill="#666666">[timestamp]</text>
<polygon fill="none" stroke="black" stroke-width="3" points="374.08,-572.3 374.08,-1442.5 595.78,-1442.5 595.78,-572.3 374.08,-572.3"/>
</g>
<!-- companies -->
<g id="node5" class="node">
<title>companies</title>
<polygon fill="#efefef" stroke="none" points="43.2,-412.8 43.2,-448.4 258.66,-448.4 258.66,-412.8 43.2,-412.8"/>
<polygon fill="none" stroke="black" points="43.2,-412.8 43.2,-448.4 258.66,-448.4 258.66,-412.8 43.2,-412.8"/>
<text text-anchor="start" x="50.2" y="-426.2" font-family="Arial Bold" font-size="18.00">companies</text>
<text text-anchor="start" x="127.17" y="-426.2" font-family="Arial" font-size="14.00">    </text>
<text text-anchor="start" x="158.29" y="-426.2" font-family="Arial" font-size="14.00" fill="#666666">[BASE TABLE]</text>
<polygon fill="none" stroke="black" points="43.2,-382 43.2,-412.8 258.66,-412.8 258.66,-382 43.2,-382"/>
<text text-anchor="start" x="50.2" y="-394.2" font-family="Arial" font-size="14.00">id </text>
<text text-anchor="start" x="64.99" y="-394.2" font-family="Arial" font-size="14.00" fill="#666666">[bigint unsigned]</text>
<polygon fill="none" stroke="black" points="43.2,-351.2 43.2,-382 258.66,-382 258.66,-351.2 43.2,-351.2"/>
<text text-anchor="start" x="50.2" y="-363.4" font-family="Arial" font-size="14.00">name </text>
<text text-anchor="start" x="89.11" y="-363.4" font-family="Arial" font-size="14.00" fill="#666666">[varchar(255)]</text>
<polygon fill="none" stroke="black" points="43.2,-320.4 43.2,-351.2 258.66,-351.2 258.66,-320.4 43.2,-320.4"/>
<text text-anchor="start" x="50.2" y="-332.6" font-family="Arial" font-size="14.00">email </text>
<text text-anchor="start" x="87.54" y="-332.6" font-family="Arial" font-size="14.00" fill="#666666">[varchar(255)]</text>
<polygon fill="none" stroke="black" points="43.2,-289.6 43.2,-320.4 258.66,-320.4 258.66,-289.6 43.2,-289.6"/>
<text text-anchor="start" x="50.2" y="-301.8" font-family="Arial" font-size="14.00">website </text>
<text text-anchor="start" x="101.56" y="-301.8" font-family="Arial" font-size="14.00" fill="#666666">[varchar(255)]</text>
<polygon fill="none" stroke="black" points="43.2,-258.8 43.2,-289.6 258.66,-289.6 258.66,-258.8 43.2,-258.8"/>
<text text-anchor="start" x="50.2" y="-271" font-family="Arial" font-size="14.00">business </text>
<text text-anchor="start" x="109.34" y="-271" font-family="Arial" font-size="14.00" fill="#666666">[varchar(255)]</text>
<polygon fill="none" stroke="black" points="43.2,-228 43.2,-258.8 258.66,-258.8 258.66,-228 43.2,-228"/>
<text text-anchor="start" x="50.2" y="-240.2" font-family="Arial" font-size="14.00">description </text>
<text text-anchor="start" x="121.79" y="-240.2" font-family="Arial" font-size="14.00" fill="#666666">[text]</text>
<polygon fill="none" stroke="black" points="43.2,-197.2 43.2,-228 258.66,-228 258.66,-197.2 43.2,-197.2"/>
<text text-anchor="start" x="50.2" y="-209.4" font-family="Arial" font-size="14.00">founded_at </text>
<text text-anchor="start" x="124.16" y="-209.4" font-family="Arial" font-size="14.00" fill="#666666">[date]</text>
<polygon fill="none" stroke="black" points="43.2,-166.4 43.2,-197.2 258.66,-197.2 258.66,-166.4 43.2,-166.4"/>
<text text-anchor="start" x="50.2" y="-178.6" font-family="Arial" font-size="14.00">capital </text>
<text text-anchor="start" x="94.56" y="-178.6" font-family="Arial" font-size="14.00" fill="#666666">[int unsigned]</text>
<polygon fill="none" stroke="black" points="43.2,-135.6 43.2,-166.4 258.66,-166.4 258.66,-135.6 43.2,-135.6"/>
<text text-anchor="start" x="50.2" y="-147.8" font-family="Arial" font-size="14.00">employee_count </text>
<text text-anchor="start" x="156.83" y="-147.8" font-family="Arial" font-size="14.00" fill="#666666">[int unsigned]</text>
<polygon fill="none" stroke="black" points="43.2,-104.8 43.2,-135.6 258.66,-135.6 258.66,-104.8 43.2,-104.8"/>
<text text-anchor="start" x="50.2" y="-117" font-family="Arial" font-size="14.00">created_at </text>
<text text-anchor="start" x="120.25" y="-117" font-family="Arial" font-size="14.00" fill="#666666">[timestamp]</text>
<polygon fill="none" stroke="black" points="43.2,-74 43.2,-104.8 258.66,-104.8 258.66,-74 43.2,-74"/>
<text text-anchor="start" x="50.2" y="-86.2" font-family="Arial" font-size="14.00">updated_at </text>
<text text-anchor="start" x="124.16" y="-86.2" font-family="Arial" font-size="14.00" fill="#666666">[timestamp]</text>
<polygon fill="none" stroke="black" points="43.2,-43.2 43.2,-74 258.66,-74 258.66,-43.2 43.2,-43.2"/>
<text text-anchor="start" x="50.2" y="-55.4" font-family="Arial" font-size="14.00">deleted_at </text>
<text text-anchor="start" x="119.48" y="-55.4" font-family="Arial" font-size="14.00" fill="#666666">[timestamp]</text>
</g>
<!-- jobs&#45;&gt;companies -->
<g id="edge4" class="edge">
<title>jobs:company_id&#45;&gt;companies:id</title>
<path fill="none" stroke="black" d="M364.81,-1356.27C273.21,-1298.21 363.82,-397.4 259.66,-397.4"/>
<polygon fill="black" stroke="black" points="364.68,-1356.23 372.97,-1363.41 369.79,-1357.76 373.94,-1359.01 373.94,-1359.01 373.94,-1359.01 369.79,-1357.76 375.55,-1354.79 364.68,-1356.23"/>
<text text-anchor="start" x="96.39" y="-1369.2" font-family="Arial" font-size="10.00">FOREIGN KEY (company_id) REFERENCES companies (id)</text>
</g>
<!-- job_categories -->
<g id="node6" class="node">
<title>job_categories</title>
<polygon fill="#efefef" stroke="none" points="363.21,-335.8 363.21,-371.4 606.66,-371.4 606.66,-335.8 363.21,-335.8"/>
<polygon fill="none" stroke="black" points="363.21,-335.8 363.21,-371.4 606.66,-371.4 606.66,-335.8 363.21,-335.8"/>
<text text-anchor="start" x="370.21" y="-349.2" font-family="Arial Bold" font-size="18.00">job_categories</text>
<text text-anchor="start" x="475.17" y="-349.2" font-family="Arial" font-size="14.00">    </text>
<text text-anchor="start" x="506.28" y="-349.2" font-family="Arial" font-size="14.00" fill="#666666">[BASE TABLE]</text>
<polygon fill="none" stroke="black" points="363.21,-305 363.21,-335.8 606.66,-335.8 606.66,-305 363.21,-305"/>
<text text-anchor="start" x="370.21" y="-317.2" font-family="Arial" font-size="14.00">id </text>
<text text-anchor="start" x="384.99" y="-317.2" font-family="Arial" font-size="14.00" fill="#666666">[bigint unsigned]</text>
<polygon fill="none" stroke="black" points="363.21,-274.2 363.21,-305 606.66,-305 606.66,-274.2 363.21,-274.2"/>
<text text-anchor="start" x="370.21" y="-286.4" font-family="Arial" font-size="14.00">name </text>
<text text-anchor="start" x="409.12" y="-286.4" font-family="Arial" font-size="14.00" fill="#666666">[varchar(255)]</text>
<polygon fill="none" stroke="black" points="363.21,-243.4 363.21,-274.2 606.66,-274.2 606.66,-243.4 363.21,-243.4"/>
<text text-anchor="start" x="370.21" y="-255.6" font-family="Arial" font-size="14.00">slug </text>
<text text-anchor="start" x="399.78" y="-255.6" font-family="Arial" font-size="14.00" fill="#666666">[varchar(255)]</text>
<polygon fill="none" stroke="black" points="363.21,-212.6 363.21,-243.4 606.66,-243.4 606.66,-212.6 363.21,-212.6"/>
<text text-anchor="start" x="370.21" y="-224.8" font-family="Arial" font-size="14.00">parent_id </text>
<text text-anchor="start" x="432.48" y="-224.8" font-family="Arial" font-size="14.00" fill="#666666">[bigint unsigned]</text>
<polygon fill="none" stroke="black" points="363.21,-181.8 363.21,-212.6 606.66,-212.6 606.66,-181.8 363.21,-181.8"/>
<text text-anchor="start" x="370.21" y="-194" font-family="Arial" font-size="14.00">icon </text>
<text text-anchor="start" x="399.78" y="-194" font-family="Arial" font-size="14.00" fill="#666666">[varchar(255)]</text>
<polygon fill="none" stroke="black" points="363.21,-151 363.21,-181.8 606.66,-181.8 606.66,-151 363.21,-151"/>
<text text-anchor="start" x="370.21" y="-163.2" font-family="Arial" font-size="14.00">created_at </text>
<text text-anchor="start" x="440.26" y="-163.2" font-family="Arial" font-size="14.00" fill="#666666">[timestamp]</text>
<polygon fill="none" stroke="black" points="363.21,-120.2 363.21,-151 606.66,-151 606.66,-120.2 363.21,-120.2"/>
<text text-anchor="start" x="370.21" y="-132.4" font-family="Arial" font-size="14.00">updated_at </text>
<text text-anchor="start" x="444.17" y="-132.4" font-family="Arial" font-size="14.00" fill="#666666">[timestamp]</text>
</g>
<!-- jobs&#45;&gt;job_categories -->
<g id="edge5" class="edge">
<title>jobs:job_category_id&#45;&gt;job_categories:id</title>
<path fill="none" stroke="black" d="M603.02,-1321.7C652.31,-1234.24 660.98,-320.4 607.66,-320.4"/>
<polygon fill="black" stroke="black" points="603.09,-1321.63 592.59,-1324.78 599.06,-1325.13 595.79,-1327.96 595.79,-1327.96 595.79,-1327.96 599.06,-1325.13 598.48,-1331.58 603.09,-1321.63"/>
<text text-anchor="start" x="602.28" y="-1338.4" font-family="Arial" font-size="10.00">FOREIGN KEY (job_category_id) REFERENCES job_categories (id)</text>
</g>
<!-- locations -->
<g id="node7" class="node">
<title>locations</title>
<polygon fill="#efefef" stroke="none" points="711.19,-335.8 711.19,-371.4 914.67,-371.4 914.67,-335.8 711.19,-335.8"/>
<polygon fill="none" stroke="black" points="711.19,-335.8 711.19,-371.4 914.67,-371.4 914.67,-335.8 711.19,-335.8"/>
<text text-anchor="start" x="718.19" y="-349.2" font-family="Arial Bold" font-size="18.00">locations</text>
<text text-anchor="start" x="783.18" y="-349.2" font-family="Arial" font-size="14.00">    </text>
<text text-anchor="start" x="814.3" y="-349.2" font-family="Arial" font-size="14.00" fill="#666666">[BASE TABLE]</text>
<polygon fill="none" stroke="black" points="711.19,-305 711.19,-335.8 914.67,-335.8 914.67,-305 711.19,-305"/>
<text text-anchor="start" x="718.19" y="-317.2" font-family="Arial" font-size="14.00">id </text>
<text text-anchor="start" x="732.98" y="-317.2" font-family="Arial" font-size="14.00" fill="#666666">[bigint unsigned]</text>
<polygon fill="none" stroke="black" points="711.19,-274.2 711.19,-305 914.67,-305 914.67,-274.2 711.19,-274.2"/>
<text text-anchor="start" x="718.19" y="-286.4" font-family="Arial" font-size="14.00">name </text>
<text text-anchor="start" x="757.1" y="-286.4" font-family="Arial" font-size="14.00" fill="#666666">[varchar(255)]</text>
<polygon fill="none" stroke="black" points="711.19,-243.4 711.19,-274.2 914.67,-274.2 914.67,-243.4 711.19,-243.4"/>
<text text-anchor="start" x="718.19" y="-255.6" font-family="Arial" font-size="14.00">slug </text>
<text text-anchor="start" x="747.77" y="-255.6" font-family="Arial" font-size="14.00" fill="#666666">[varchar(255)]</text>
<polygon fill="none" stroke="black" points="711.19,-212.6 711.19,-243.4 914.67,-243.4 914.67,-212.6 711.19,-212.6"/>
<text text-anchor="start" x="718.19" y="-224.8" font-family="Arial" font-size="14.00">area_id </text>
<text text-anchor="start" x="768.79" y="-224.8" font-family="Arial" font-size="14.00" fill="#666666">[bigint unsigned]</text>
<polygon fill="none" stroke="black" points="711.19,-181.8 711.19,-212.6 914.67,-212.6 914.67,-181.8 711.19,-181.8"/>
<text text-anchor="start" x="718.19" y="-194" font-family="Arial" font-size="14.00">sort_order </text>
<text text-anchor="start" x="785.89" y="-194" font-family="Arial" font-size="14.00" fill="#666666">[smallint unsigned]</text>
<polygon fill="none" stroke="black" points="711.19,-151 711.19,-181.8 914.67,-181.8 914.67,-151 711.19,-151"/>
<text text-anchor="start" x="718.19" y="-163.2" font-family="Arial" font-size="14.00">created_at </text>
<text text-anchor="start" x="788.24" y="-163.2" font-family="Arial" font-size="14.00" fill="#666666">[timestamp]</text>
<polygon fill="none" stroke="black" points="711.19,-120.2 711.19,-151 914.67,-151 914.67,-120.2 711.19,-120.2"/>
<text text-anchor="start" x="718.19" y="-132.4" font-family="Arial" font-size="14.00">updated_at </text>
<text text-anchor="start" x="792.15" y="-132.4" font-family="Arial" font-size="14.00" fill="#666666">[timestamp]</text>
</g>
<!-- jobs&#45;&gt;locations -->
<g id="edge6" class="edge">
<title>jobs:location_id&#45;&gt;locations:id</title>
<path fill="none" stroke="black" d="M605.2,-1294.62C698.14,-1235.63 604.39,-320.4 710.19,-320.4"/>
<polygon fill="black" stroke="black" points="605.18,-1294.63 594.31,-1293.19 600.07,-1296.16 595.92,-1297.41 595.92,-1297.41 595.92,-1297.41 600.07,-1296.16 596.9,-1301.81 605.18,-1294.63"/>
<text text-anchor="start" x="602.28" y="-1307.6" font-family="Arial" font-size="10.00">FOREIGN KEY (location_id) REFERENCES locations (id)</text>
</g>
<!-- applications -->
<g id="node2" class="node">
<title>applications</title>
<polygon fill="#efefef" stroke="none" points="59.2,-1843.6 59.2,-1879.2 284.66,-1879.2 284.66,-1843.6 59.2,-1843.6"/>
<polygon fill="none" stroke="black" points="59.2,-1843.6 59.2,-1879.2 284.66,-1879.2 284.66,-1843.6 59.2,-1843.6"/>
<text text-anchor="start" x="66.2" y="-1857" font-family="Arial Bold" font-size="18.00">applications</text>
<text text-anchor="start" x="153.18" y="-1857" font-family="Arial" font-size="14.00">    </text>
<text text-anchor="start" x="184.29" y="-1857" font-family="Arial" font-size="14.00" fill="#666666">[BASE TABLE]</text>
<polygon fill="none" stroke="black" points="59.2,-1812.8 59.2,-1843.6 284.66,-1843.6 284.66,-1812.8 59.2,-1812.8"/>
<text text-anchor="start" x="66.2" y="-1825" font-family="Arial" font-size="14.00">id </text>
<text text-anchor="start" x="80.99" y="-1825" font-family="Arial" font-size="14.00" fill="#666666">[bigint unsigned]</text>
<polygon fill="none" stroke="black" points="59.2,-1782 59.2,-1812.8 284.66,-1812.8 284.66,-1782 59.2,-1782"/>
<text text-anchor="start" x="66.2" y="-1794.2" font-family="Arial" font-size="14.00">user_id </text>
<text text-anchor="start" x="116.01" y="-1794.2" font-family="Arial" font-size="14.00" fill="#666666">[bigint unsigned]</text>
<polygon fill="none" stroke="black" points="59.2,-1751.2 59.2,-1782 284.66,-1782 284.66,-1751.2 59.2,-1751.2"/>
<text text-anchor="start" x="66.2" y="-1763.4" font-family="Arial" font-size="14.00">job_id </text>
<text text-anchor="start" x="107.45" y="-1763.4" font-family="Arial" font-size="14.00" fill="#666666">[bigint unsigned]</text>
<polygon fill="none" stroke="black" points="59.2,-1720.4 59.2,-1751.2 284.66,-1751.2 284.66,-1720.4 59.2,-1720.4"/>
<text text-anchor="start" x="66.2" y="-1732.6" font-family="Arial" font-size="14.00">status </text>
<text text-anchor="start" x="107.44" y="-1732.6" font-family="Arial" font-size="14.00" fill="#666666">[tinyint]</text>
<polygon fill="none" stroke="black" points="59.2,-1689.6 59.2,-1720.4 284.66,-1720.4 284.66,-1689.6 59.2,-1689.6"/>
<text text-anchor="start" x="66.2" y="-1701.8" font-family="Arial" font-size="14.00">message </text>
<text text-anchor="start" x="126.9" y="-1701.8" font-family="Arial" font-size="14.00" fill="#666666">[text]</text>
<polygon fill="none" stroke="black" points="59.2,-1658.8 59.2,-1689.6 284.66,-1689.6 284.66,-1658.8 59.2,-1658.8"/>
<text text-anchor="start" x="66.2" y="-1671" font-family="Arial" font-size="14.00">motivation </text>
<text text-anchor="start" x="133.9" y="-1671" font-family="Arial" font-size="14.00" fill="#666666">[text]</text>
<polygon fill="none" stroke="black" points="59.2,-1628 59.2,-1658.8 284.66,-1658.8 284.66,-1628 59.2,-1628"/>
<text text-anchor="start" x="66.2" y="-1640.2" font-family="Arial" font-size="14.00">resume_path </text>
<text text-anchor="start" x="151.81" y="-1640.2" font-family="Arial" font-size="14.00" fill="#666666">[varchar(255)]</text>
<polygon fill="none" stroke="black" points="59.2,-1597.2 59.2,-1628 284.66,-1628 284.66,-1597.2 59.2,-1597.2"/>
<text text-anchor="start" x="66.2" y="-1609.4" font-family="Arial" font-size="14.00">created_at </text>
<text text-anchor="start" x="136.25" y="-1609.4" font-family="Arial" font-size="14.00" fill="#666666">[timestamp]</text>
<polygon fill="none" stroke="black" points="59.2,-1566.4 59.2,-1597.2 284.66,-1597.2 284.66,-1566.4 59.2,-1566.4"/>
<text text-anchor="start" x="66.2" y="-1578.6" font-family="Arial" font-size="14.00">updated_at </text>
<text text-anchor="start" x="140.16" y="-1578.6" font-family="Arial" font-size="14.00" fill="#666666">[timestamp]</text>
</g>
<!-- applications&#45;&gt;jobs -->
<g id="edge1" class="edge">
<title>applications:job_id&#45;&gt;jobs:id</title>
<path fill="none" stroke="black" d="M295.84,-1764.57C364.83,-1734.93 292.29,-1390 374.58,-1390"/>
<polygon fill="black" stroke="black" points="295.8,-1764.58 285.11,-1762.12 290.57,-1765.62 286.32,-1766.47 286.32,-1766.47 286.32,-1766.47 290.57,-1765.62 286.87,-1770.95 295.8,-1764.58"/>
<text text-anchor="start" x="292.66" y="-1776.6" font-family="Arial" font-size="10.00">FOREIGN KEY (job_id) REFERENCES jobs (id)</text>
</g>
<!-- job_tag -->
<g id="node3" class="node">
<title>job_tag</title>
<polygon fill="#efefef" stroke="none" points="388.69,-1782 388.69,-1817.6 581.17,-1817.6 581.17,-1782 388.69,-1782"/>
<polygon fill="none" stroke="black" points="388.69,-1782 388.69,-1817.6 581.17,-1817.6 581.17,-1782 388.69,-1782"/>
<text text-anchor="start" x="395.69" y="-1795.4" font-family="Arial Bold" font-size="18.00">job_tag</text>
<text text-anchor="start" x="449.68" y="-1795.4" font-family="Arial" font-size="14.00">    </text>
<text text-anchor="start" x="480.8" y="-1795.4" font-family="Arial" font-size="14.00" fill="#666666">[BASE TABLE]</text>
<polygon fill="none" stroke="black" points="388.69,-1751.2 388.69,-1782 581.17,-1782 581.17,-1751.2 388.69,-1751.2"/>
<text text-anchor="start" x="395.69" y="-1763.4" font-family="Arial" font-size="14.00">id </text>
<text text-anchor="start" x="410.48" y="-1763.4" font-family="Arial" font-size="14.00" fill="#666666">[bigint unsigned]</text>
<polygon fill="none" stroke="black" points="388.69,-1720.4 388.69,-1751.2 581.17,-1751.2 581.17,-1720.4 388.69,-1720.4"/>
<text text-anchor="start" x="395.69" y="-1732.6" font-family="Arial" font-size="14.00">job_id </text>
<text text-anchor="start" x="436.95" y="-1732.6" font-family="Arial" font-size="14.00" fill="#666666">[bigint unsigned]</text>
<polygon fill="none" stroke="black" points="388.69,-1689.6 388.69,-1720.4 581.17,-1720.4 581.17,-1689.6 388.69,-1689.6"/>
<text text-anchor="start" x="395.69" y="-1701.8" font-family="Arial" font-size="14.00">tag_id </text>
<text text-anchor="start" x="437.73" y="-1701.8" font-family="Arial" font-size="14.00" fill="#666666">[bigint unsigned]</text>
<polygon fill="none" stroke="black" points="388.69,-1658.8 388.69,-1689.6 581.17,-1689.6 581.17,-1658.8 388.69,-1658.8"/>
<text text-anchor="start" x="395.69" y="-1671" font-family="Arial" font-size="14.00">created_at </text>
<text text-anchor="start" x="465.74" y="-1671" font-family="Arial" font-size="14.00" fill="#666666">[timestamp]</text>
<polygon fill="none" stroke="black" points="388.69,-1628 388.69,-1658.8 581.17,-1658.8 581.17,-1628 388.69,-1628"/>
<text text-anchor="start" x="395.69" y="-1640.2" font-family="Arial" font-size="14.00">updated_at </text>
<text text-anchor="start" x="469.65" y="-1640.2" font-family="Arial" font-size="14.00" fill="#666666">[timestamp]</text>
</g>
<!-- job_tag&#45;&gt;jobs -->
<g id="edge2" class="edge">
<title>job_tag:job_id&#45;&gt;jobs:id</title>
<path fill="none" stroke="black" d="M590.71,-1729.8C622.36,-1683.88 630.73,-1390 595.28,-1390"/>
<polygon fill="black" stroke="black" points="590.63,-1729.86 579.86,-1731.93 586.26,-1732.92 582.72,-1735.42 582.72,-1735.42 582.72,-1735.42 586.26,-1732.92 585.03,-1739.29 590.63,-1729.86"/>
<text text-anchor="start" x="475.2" y="-1719.8" font-family="Arial" font-size="10.00">FOREIGN KEY (job_id) REFERENCES jobs (id)</text>
</g>
<!-- saved_jobs -->
<g id="node4" class="node">
<title>saved_jobs</title>
<polygon fill="#efefef" stroke="none" points="685.69,-1766.6 685.69,-1802.2 904.17,-1802.2 904.17,-1766.6 685.69,-1766.6"/>
<polygon fill="none" stroke="black" points="685.69,-1766.6 685.69,-1802.2 904.17,-1802.2 904.17,-1766.6 685.69,-1766.6"/>
<text text-anchor="start" x="692.69" y="-1780" font-family="Arial Bold" font-size="18.00">saved_jobs</text>
<text text-anchor="start" x="772.68" y="-1780" font-family="Arial" font-size="14.00">    </text>
<text text-anchor="start" x="803.8" y="-1780" font-family="Arial" font-size="14.00" fill="#666666">[BASE TABLE]</text>
<polygon fill="none" stroke="black" points="685.69,-1735.8 685.69,-1766.6 904.17,-1766.6 904.17,-1735.8 685.69,-1735.8"/>
<text text-anchor="start" x="692.69" y="-1748" font-family="Arial" font-size="14.00">user_id </text>
<text text-anchor="start" x="742.5" y="-1748" font-family="Arial" font-size="14.00" fill="#666666">[bigint unsigned]</text>
<polygon fill="none" stroke="black" points="685.69,-1705 685.69,-1735.8 904.17,-1735.8 904.17,-1705 685.69,-1705"/>
<text text-anchor="start" x="692.69" y="-1717.2" font-family="Arial" font-size="14.00">job_id </text>
<text text-anchor="start" x="733.95" y="-1717.2" font-family="Arial" font-size="14.00" fill="#666666">[bigint unsigned]</text>
<polygon fill="none" stroke="black" points="685.69,-1674.2 685.69,-1705 904.17,-1705 904.17,-1674.2 685.69,-1674.2"/>
<text text-anchor="start" x="692.69" y="-1686.4" font-family="Arial" font-size="14.00">created_at </text>
<text text-anchor="start" x="762.74" y="-1686.4" font-family="Arial" font-size="14.00" fill="#666666">[timestamp]</text>
<polygon fill="none" stroke="black" points="685.69,-1643.4 685.69,-1674.2 904.17,-1674.2 904.17,-1643.4 685.69,-1643.4"/>
<text text-anchor="start" x="692.69" y="-1655.6" font-family="Arial" font-size="14.00">updated_at </text>
<text text-anchor="start" x="766.65" y="-1655.6" font-family="Arial" font-size="14.00" fill="#666666">[timestamp]</text>
</g>
<!-- saved_jobs&#45;&gt;jobs -->
<g id="edge3" class="edge">
<title>saved_jobs:job_id&#45;&gt;jobs:id</title>
<path fill="none" stroke="black" d="M674.51,-1718.11C614.42,-1688.92 667.63,-1390 595.28,-1390"/>
<polygon fill="black" stroke="black" points="674.61,-1718.14 683.38,-1724.72 679.81,-1719.3 684.04,-1720.25 684.04,-1720.25 684.04,-1720.25 679.81,-1719.3 685.35,-1715.94 674.61,-1718.14"/>
<text text-anchor="start" x="520.74" y="-1704.4" font-family="Arial" font-size="10.00">FOREIGN KEY (job_id) REFERENCES jobs (id)</text>
</g>
</g>
</svg>
