<?xml version="1.0" encoding="UTF-8" standalone="no"?>
<!DOCTYPE svg PUBLIC "-//W3C//DTD SVG 1.1//EN"
 "http://www.w3.org/Graphics/SVG/1.1/DTD/svg11.dtd">
<!-- Generated by graphviz version 12.1.2 (20240928.0832)
 -->
<!-- Title: licenses Pages: 1 -->
<svg width="496pt" height="787pt"
 viewBox="0.00 0.00 495.52 786.80" xmlns="http://www.w3.org/2000/svg" xmlns:xlink="http://www.w3.org/1999/xlink">
<g id="graph0" class="graph" transform="scale(1 1) rotate(0) translate(4 782.8)">
<title>licenses</title>
<polygon fill="white" stroke="none" points="-4,4 -4,-782.8 491.52,-782.8 491.52,4 -4,4"/>
<!-- licenses -->
<g id="node1" class="node">
<title>licenses</title>
<polygon fill="#efefef" stroke="none" points="50.9,-697 50.9,-732.6 246.37,-732.6 246.37,-697 50.9,-697"/>
<polygon fill="none" stroke="black" points="50.9,-697 50.9,-732.6 246.37,-732.6 246.37,-697 50.9,-697"/>
<text text-anchor="start" x="57.9" y="-710.4" font-family="Arial Bold" font-size="18.00">licenses</text>
<text text-anchor="start" x="114.88" y="-710.4" font-family="Arial" font-size="14.00">    </text>
<text text-anchor="start" x="145.99" y="-710.4" font-family="Arial" font-size="14.00" fill="#666666">[BASE TABLE]</text>
<polygon fill="none" stroke="black" points="50.9,-666.2 50.9,-697 246.37,-697 246.37,-666.2 50.9,-666.2"/>
<text text-anchor="start" x="57.9" y="-678.4" font-family="Arial" font-size="14.00">id </text>
<text text-anchor="start" x="72.68" y="-678.4" font-family="Arial" font-size="14.00" fill="#666666">[bigint unsigned]</text>
<polygon fill="none" stroke="black" points="50.9,-635.4 50.9,-666.2 246.37,-666.2 246.37,-635.4 50.9,-635.4"/>
<text text-anchor="start" x="57.9" y="-647.6" font-family="Arial" font-size="14.00">user_id </text>
<text text-anchor="start" x="107.7" y="-647.6" font-family="Arial" font-size="14.00" fill="#666666">[bigint unsigned]</text>
<polygon fill="none" stroke="black" points="50.9,-604.6 50.9,-635.4 246.37,-635.4 246.37,-604.6 50.9,-604.6"/>
<text text-anchor="start" x="57.9" y="-616.8" font-family="Arial" font-size="14.00">name </text>
<text text-anchor="start" x="96.81" y="-616.8" font-family="Arial" font-size="14.00" fill="#666666">[varchar(255)]</text>
<polygon fill="none" stroke="black" points="50.9,-573.8 50.9,-604.6 246.37,-604.6 246.37,-573.8 50.9,-573.8"/>
<text text-anchor="start" x="57.9" y="-586" font-family="Arial" font-size="14.00">acquired_date </text>
<text text-anchor="start" x="150.52" y="-586" font-family="Arial" font-size="14.00" fill="#666666">[date]</text>
<polygon fill="none" stroke="black" points="50.9,-543 50.9,-573.8 246.37,-573.8 246.37,-543 50.9,-543"/>
<text text-anchor="start" x="57.9" y="-555.2" font-family="Arial" font-size="14.00">created_at </text>
<text text-anchor="start" x="127.94" y="-555.2" font-family="Arial" font-size="14.00" fill="#666666">[timestamp]</text>
<polygon fill="none" stroke="black" points="50.9,-512.2 50.9,-543 246.37,-543 246.37,-512.2 50.9,-512.2"/>
<text text-anchor="start" x="57.9" y="-524.4" font-family="Arial" font-size="14.00">updated_at </text>
<text text-anchor="start" x="131.85" y="-524.4" font-family="Arial" font-size="14.00" fill="#666666">[timestamp]</text>
<polygon fill="none" stroke="black" stroke-width="3" points="49.4,-510.7 49.4,-734.1 247.87,-734.1 247.87,-510.7 49.4,-510.7"/>
</g>
<!-- users -->
<g id="node2" class="node">
<title>users</title>
<polygon fill="#efefef" stroke="none" points="43.2,-351.2 43.2,-386.8 254.06,-386.8 254.06,-351.2 43.2,-351.2"/>
<polygon fill="none" stroke="black" points="43.2,-351.2 43.2,-386.8 254.06,-386.8 254.06,-351.2 43.2,-351.2"/>
<text text-anchor="start" x="67.89" y="-364.6" font-family="Arial Bold" font-size="18.00">users</text>
<text text-anchor="start" x="104.88" y="-364.6" font-family="Arial" font-size="14.00">    </text>
<text text-anchor="start" x="136" y="-364.6" font-family="Arial" font-size="14.00" fill="#666666">[BASE TABLE]</text>
<polygon fill="none" stroke="black" points="43.2,-320.4 43.2,-351.2 254.06,-351.2 254.06,-320.4 43.2,-320.4"/>
<text text-anchor="start" x="50.2" y="-332.6" font-family="Arial" font-size="14.00">id </text>
<text text-anchor="start" x="64.99" y="-332.6" font-family="Arial" font-size="14.00" fill="#666666">[bigint unsigned]</text>
<polygon fill="none" stroke="black" points="43.2,-289.6 43.2,-320.4 254.06,-320.4 254.06,-289.6 43.2,-289.6"/>
<text text-anchor="start" x="50.2" y="-301.8" font-family="Arial" font-size="14.00">name </text>
<text text-anchor="start" x="89.11" y="-301.8" font-family="Arial" font-size="14.00" fill="#666666">[varchar(255)]</text>
<polygon fill="none" stroke="black" points="43.2,-258.8 43.2,-289.6 254.06,-289.6 254.06,-258.8 43.2,-258.8"/>
<text text-anchor="start" x="50.2" y="-271" font-family="Arial" font-size="14.00">email </text>
<text text-anchor="start" x="87.54" y="-271" font-family="Arial" font-size="14.00" fill="#666666">[varchar(255)]</text>
<polygon fill="none" stroke="black" points="43.2,-228 43.2,-258.8 254.06,-258.8 254.06,-228 43.2,-228"/>
<text text-anchor="start" x="50.2" y="-240.2" font-family="Arial" font-size="14.00">email_verified_at </text>
<text text-anchor="start" x="159.92" y="-240.2" font-family="Arial" font-size="14.00" fill="#666666">[timestamp]</text>
<polygon fill="none" stroke="black" points="43.2,-197.2 43.2,-228 254.06,-228 254.06,-197.2 43.2,-197.2"/>
<text text-anchor="start" x="50.2" y="-209.4" font-family="Arial" font-size="14.00">phone </text>
<text text-anchor="start" x="93.02" y="-209.4" font-family="Arial" font-size="14.00" fill="#666666">[varchar(255)]</text>
<polygon fill="none" stroke="black" points="43.2,-166.4 43.2,-197.2 254.06,-197.2 254.06,-166.4 43.2,-166.4"/>
<text text-anchor="start" x="50.2" y="-178.6" font-family="Arial" font-size="14.00">address </text>
<text text-anchor="start" x="103.9" y="-178.6" font-family="Arial" font-size="14.00" fill="#666666">[varchar(255)]</text>
<polygon fill="none" stroke="black" points="43.2,-135.6 43.2,-166.4 254.06,-166.4 254.06,-135.6 43.2,-135.6"/>
<text text-anchor="start" x="50.2" y="-147.8" font-family="Arial" font-size="14.00">password </text>
<text text-anchor="start" x="114.01" y="-147.8" font-family="Arial" font-size="14.00" fill="#666666">[varchar(255)]</text>
<polygon fill="none" stroke="black" points="43.2,-104.8 43.2,-135.6 254.06,-135.6 254.06,-104.8 43.2,-104.8"/>
<text text-anchor="start" x="50.2" y="-117" font-family="Arial" font-size="14.00">remember_token </text>
<text text-anchor="start" x="159.92" y="-117" font-family="Arial" font-size="14.00" fill="#666666">[varchar(100)]</text>
<polygon fill="none" stroke="black" points="43.2,-74 43.2,-104.8 254.06,-104.8 254.06,-74 43.2,-74"/>
<text text-anchor="start" x="50.2" y="-86.2" font-family="Arial" font-size="14.00">created_at </text>
<text text-anchor="start" x="120.25" y="-86.2" font-family="Arial" font-size="14.00" fill="#666666">[timestamp]</text>
<polygon fill="none" stroke="black" points="43.2,-43.2 43.2,-74 254.06,-74 254.06,-43.2 43.2,-43.2"/>
<text text-anchor="start" x="50.2" y="-55.4" font-family="Arial" font-size="14.00">updated_at </text>
<text text-anchor="start" x="124.16" y="-55.4" font-family="Arial" font-size="14.00" fill="#666666">[timestamp]</text>
</g>
<!-- licenses&#45;&gt;users -->
<g id="edge1" class="edge">
<title>licenses:user_id&#45;&gt;users:id</title>
<path fill="none" stroke="black" d="M257.17,-648.62C317.95,-620.79 321.66,-335.8 255.06,-335.8"/>
<polygon fill="black" stroke="black" points="257.45,-648.56 246.72,-646.33 252.25,-649.72 248.02,-650.65 248.02,-650.65 248.02,-650.65 252.25,-649.72 248.67,-655.12 257.45,-648.56"/>
<text text-anchor="start" x="254.37" y="-660.8" font-family="Arial" font-size="10.00">FOREIGN KEY (user_id) REFERENCES users (id)</text>
</g>
</g>
</svg>
