<?xml version="1.0" encoding="UTF-8" standalone="no"?>
<!DOCTYPE svg PUBLIC "-//W3C//DTD SVG 1.1//EN"
 "http://www.w3.org/Graphics/SVG/1.1/DTD/svg11.dtd">
<!-- Generated by graphviz version 12.1.2 (20240928.0832)
 -->
<!-- Title: locations Pages: 1 -->
<svg width="541pt" height="1684pt"
 viewBox="0.00 0.00 541.09 1684.00" xmlns="http://www.w3.org/2000/svg" xmlns:xlink="http://www.w3.org/1999/xlink">
<g id="graph0" class="graph" transform="scale(1 1) rotate(0) translate(4 1680)">
<title>locations</title>
<polygon fill="white" stroke="none" points="-4,4 -4,-1680 537.09,-1680 537.09,4 -4,4"/>
<!-- locations -->
<g id="node1" class="node">
<title>locations</title>
<polygon fill="#efefef" stroke="none" points="50.81,-604.6 50.81,-640.2 254.29,-640.2 254.29,-604.6 50.81,-604.6"/>
<polygon fill="none" stroke="black" points="50.81,-604.6 50.81,-640.2 254.29,-640.2 254.29,-604.6 50.81,-604.6"/>
<text text-anchor="start" x="57.81" y="-618" font-family="Arial Bold" font-size="18.00">locations</text>
<text text-anchor="start" x="122.8" y="-618" font-family="Arial" font-size="14.00">    </text>
<text text-anchor="start" x="153.92" y="-618" font-family="Arial" font-size="14.00" fill="#666666">[BASE TABLE]</text>
<polygon fill="none" stroke="black" points="50.81,-573.8 50.81,-604.6 254.29,-604.6 254.29,-573.8 50.81,-573.8"/>
<text text-anchor="start" x="57.81" y="-586" font-family="Arial" font-size="14.00">id </text>
<text text-anchor="start" x="72.6" y="-586" font-family="Arial" font-size="14.00" fill="#666666">[bigint unsigned]</text>
<polygon fill="none" stroke="black" points="50.81,-543 50.81,-573.8 254.29,-573.8 254.29,-543 50.81,-543"/>
<text text-anchor="start" x="57.81" y="-555.2" font-family="Arial" font-size="14.00">name </text>
<text text-anchor="start" x="96.72" y="-555.2" font-family="Arial" font-size="14.00" fill="#666666">[varchar(255)]</text>
<polygon fill="none" stroke="black" points="50.81,-512.2 50.81,-543 254.29,-543 254.29,-512.2 50.81,-512.2"/>
<text text-anchor="start" x="57.81" y="-524.4" font-family="Arial" font-size="14.00">slug </text>
<text text-anchor="start" x="87.39" y="-524.4" font-family="Arial" font-size="14.00" fill="#666666">[varchar(255)]</text>
<polygon fill="none" stroke="black" points="50.81,-481.4 50.81,-512.2 254.29,-512.2 254.29,-481.4 50.81,-481.4"/>
<text text-anchor="start" x="57.81" y="-493.6" font-family="Arial" font-size="14.00">area_id </text>
<text text-anchor="start" x="108.41" y="-493.6" font-family="Arial" font-size="14.00" fill="#666666">[bigint unsigned]</text>
<polygon fill="none" stroke="black" points="50.81,-450.6 50.81,-481.4 254.29,-481.4 254.29,-450.6 50.81,-450.6"/>
<text text-anchor="start" x="57.81" y="-462.8" font-family="Arial" font-size="14.00">sort_order </text>
<text text-anchor="start" x="125.51" y="-462.8" font-family="Arial" font-size="14.00" fill="#666666">[smallint unsigned]</text>
<polygon fill="none" stroke="black" points="50.81,-419.8 50.81,-450.6 254.29,-450.6 254.29,-419.8 50.81,-419.8"/>
<text text-anchor="start" x="57.81" y="-432" font-family="Arial" font-size="14.00">created_at </text>
<text text-anchor="start" x="127.86" y="-432" font-family="Arial" font-size="14.00" fill="#666666">[timestamp]</text>
<polygon fill="none" stroke="black" points="50.81,-389 50.81,-419.8 254.29,-419.8 254.29,-389 50.81,-389"/>
<text text-anchor="start" x="57.81" y="-401.2" font-family="Arial" font-size="14.00">updated_at </text>
<text text-anchor="start" x="131.77" y="-401.2" font-family="Arial" font-size="14.00" fill="#666666">[timestamp]</text>
<polygon fill="none" stroke="black" stroke-width="3" points="49.31,-387.5 49.31,-641.7 255.79,-641.7 255.79,-387.5 49.31,-387.5"/>
</g>
<!-- areas -->
<g id="node3" class="node">
<title>areas</title>
<polygon fill="#efefef" stroke="none" points="53.73,-228 53.73,-263.6 251.37,-263.6 251.37,-228 53.73,-228"/>
<polygon fill="none" stroke="black" points="53.73,-228 53.73,-263.6 251.37,-263.6 251.37,-228 53.73,-228"/>
<text text-anchor="start" x="71.82" y="-241.4" font-family="Arial Bold" font-size="18.00">areas</text>
<text text-anchor="start" x="108.79" y="-241.4" font-family="Arial" font-size="14.00">    </text>
<text text-anchor="start" x="139.91" y="-241.4" font-family="Arial" font-size="14.00" fill="#666666">[BASE TABLE]</text>
<polygon fill="none" stroke="black" points="53.73,-197.2 53.73,-228 251.37,-228 251.37,-197.2 53.73,-197.2"/>
<text text-anchor="start" x="60.73" y="-209.4" font-family="Arial" font-size="14.00">id </text>
<text text-anchor="start" x="75.51" y="-209.4" font-family="Arial" font-size="14.00" fill="#666666">[bigint unsigned]</text>
<polygon fill="none" stroke="black" points="53.73,-166.4 53.73,-197.2 251.37,-197.2 251.37,-166.4 53.73,-166.4"/>
<text text-anchor="start" x="60.73" y="-178.6" font-family="Arial" font-size="14.00">name </text>
<text text-anchor="start" x="99.64" y="-178.6" font-family="Arial" font-size="14.00" fill="#666666">[varchar(255)]</text>
<polygon fill="none" stroke="black" points="53.73,-135.6 53.73,-166.4 251.37,-166.4 251.37,-135.6 53.73,-135.6"/>
<text text-anchor="start" x="60.73" y="-147.8" font-family="Arial" font-size="14.00">slug </text>
<text text-anchor="start" x="90.3" y="-147.8" font-family="Arial" font-size="14.00" fill="#666666">[varchar(255)]</text>
<polygon fill="none" stroke="black" points="53.73,-104.8 53.73,-135.6 251.37,-135.6 251.37,-104.8 53.73,-104.8"/>
<text text-anchor="start" x="60.73" y="-117" font-family="Arial" font-size="14.00">sort_order </text>
<text text-anchor="start" x="128.42" y="-117" font-family="Arial" font-size="14.00" fill="#666666">[smallint unsigned]</text>
<polygon fill="none" stroke="black" points="53.73,-74 53.73,-104.8 251.37,-104.8 251.37,-74 53.73,-74"/>
<text text-anchor="start" x="60.73" y="-86.2" font-family="Arial" font-size="14.00">created_at </text>
<text text-anchor="start" x="130.78" y="-86.2" font-family="Arial" font-size="14.00" fill="#666666">[timestamp]</text>
<polygon fill="none" stroke="black" points="53.73,-43.2 53.73,-74 251.37,-74 251.37,-43.2 53.73,-43.2"/>
<text text-anchor="start" x="60.73" y="-55.4" font-family="Arial" font-size="14.00">updated_at </text>
<text text-anchor="start" x="134.69" y="-55.4" font-family="Arial" font-size="14.00" fill="#666666">[timestamp]</text>
</g>
<!-- locations&#45;&gt;areas -->
<g id="edge2" class="edge">
<title>locations:area_id&#45;&gt;areas:id</title>
<path fill="none" stroke="black" d="M265.36,-496.17C381.35,-481.47 375.24,-212.6 252.37,-212.6"/>
<polygon fill="black" stroke="black" points="265.6,-496.16 255.34,-492.29 260.28,-496.49 255.96,-496.76 255.96,-496.76 255.96,-496.76 260.28,-496.49 255.9,-501.27 265.6,-496.16"/>
<text text-anchor="start" x="262.29" y="-506.8" font-family="Arial" font-size="10.00">FOREIGN KEY (area_id) REFERENCES areas (id)</text>
</g>
<!-- jobs -->
<g id="node2" class="node">
<title>jobs</title>
<polygon fill="#efefef" stroke="none" points="43.2,-1597.2 43.2,-1632.8 261.9,-1632.8 261.9,-1597.2 43.2,-1597.2"/>
<polygon fill="none" stroke="black" points="43.2,-1597.2 43.2,-1632.8 261.9,-1632.8 261.9,-1597.2 43.2,-1597.2"/>
<text text-anchor="start" x="75.3" y="-1610.6" font-family="Arial Bold" font-size="18.00">jobs</text>
<text text-anchor="start" x="105.31" y="-1610.6" font-family="Arial" font-size="14.00">    </text>
<text text-anchor="start" x="136.43" y="-1610.6" font-family="Arial" font-size="14.00" fill="#666666">[BASE TABLE]</text>
<polygon fill="none" stroke="black" points="43.2,-1566.4 43.2,-1597.2 261.9,-1597.2 261.9,-1566.4 43.2,-1566.4"/>
<text text-anchor="start" x="50.2" y="-1578.6" font-family="Arial" font-size="14.00">id </text>
<text text-anchor="start" x="64.99" y="-1578.6" font-family="Arial" font-size="14.00" fill="#666666">[bigint unsigned]</text>
<polygon fill="none" stroke="black" points="43.2,-1535.6 43.2,-1566.4 261.9,-1566.4 261.9,-1535.6 43.2,-1535.6"/>
<text text-anchor="start" x="50.2" y="-1547.8" font-family="Arial" font-size="14.00">company_id </text>
<text text-anchor="start" x="129.58" y="-1547.8" font-family="Arial" font-size="14.00" fill="#666666">[bigint unsigned]</text>
<polygon fill="none" stroke="black" points="43.2,-1504.8 43.2,-1535.6 261.9,-1535.6 261.9,-1504.8 43.2,-1504.8"/>
<text text-anchor="start" x="50.2" y="-1517" font-family="Arial" font-size="14.00">job_category_id </text>
<text text-anchor="start" x="152.94" y="-1517" font-family="Arial" font-size="14.00" fill="#666666">[bigint unsigned]</text>
<polygon fill="none" stroke="black" points="43.2,-1474 43.2,-1504.8 261.9,-1504.8 261.9,-1474 43.2,-1474"/>
<text text-anchor="start" x="50.2" y="-1486.2" font-family="Arial" font-size="14.00">location_id </text>
<text text-anchor="start" x="121.03" y="-1486.2" font-family="Arial" font-size="14.00" fill="#666666">[bigint unsigned]</text>
<polygon fill="none" stroke="black" points="43.2,-1443.2 43.2,-1474 261.9,-1474 261.9,-1443.2 43.2,-1443.2"/>
<text text-anchor="start" x="50.2" y="-1455.4" font-family="Arial" font-size="14.00">title </text>
<text text-anchor="start" x="75.88" y="-1455.4" font-family="Arial" font-size="14.00" fill="#666666">[varchar(255)]</text>
<polygon fill="none" stroke="black" points="43.2,-1412.4 43.2,-1443.2 261.9,-1443.2 261.9,-1412.4 43.2,-1412.4"/>
<text text-anchor="start" x="50.2" y="-1424.6" font-family="Arial" font-size="14.00">location </text>
<text text-anchor="start" x="102.34" y="-1424.6" font-family="Arial" font-size="14.00" fill="#666666">[varchar(255)]</text>
<polygon fill="none" stroke="black" points="43.2,-1381.6 43.2,-1412.4 261.9,-1412.4 261.9,-1381.6 43.2,-1381.6"/>
<text text-anchor="start" x="50.2" y="-1393.8" font-family="Arial" font-size="14.00">salary_min </text>
<text text-anchor="start" x="121.78" y="-1393.8" font-family="Arial" font-size="14.00" fill="#666666">[int unsigned]</text>
<polygon fill="none" stroke="black" points="43.2,-1350.8 43.2,-1381.6 261.9,-1381.6 261.9,-1350.8 43.2,-1350.8"/>
<text text-anchor="start" x="50.2" y="-1363" font-family="Arial" font-size="14.00">salary_max </text>
<text text-anchor="start" x="125.67" y="-1363" font-family="Arial" font-size="14.00" fill="#666666">[int unsigned]</text>
<polygon fill="none" stroke="black" points="43.2,-1320 43.2,-1350.8 261.9,-1350.8 261.9,-1320 43.2,-1320"/>
<text text-anchor="start" x="50.2" y="-1332.2" font-family="Arial" font-size="14.00">employment_type </text>
<text text-anchor="start" x="164.59" y="-1332.2" font-family="Arial" font-size="14.00" fill="#666666">[tinyint]</text>
<polygon fill="none" stroke="black" points="43.2,-1289.2 43.2,-1320 261.9,-1320 261.9,-1289.2 43.2,-1289.2"/>
<text text-anchor="start" x="50.2" y="-1301.4" font-family="Arial" font-size="14.00">description </text>
<text text-anchor="start" x="121.79" y="-1301.4" font-family="Arial" font-size="14.00" fill="#666666">[text]</text>
<polygon fill="none" stroke="black" points="43.2,-1258.4 43.2,-1289.2 261.9,-1289.2 261.9,-1258.4 43.2,-1258.4"/>
<text text-anchor="start" x="50.2" y="-1270.6" font-family="Arial" font-size="14.00">requirements </text>
<text text-anchor="start" x="135.79" y="-1270.6" font-family="Arial" font-size="14.00" fill="#666666">[text]</text>
<polygon fill="none" stroke="black" points="43.2,-1227.6 43.2,-1258.4 261.9,-1258.4 261.9,-1227.6 43.2,-1227.6"/>
<text text-anchor="start" x="50.2" y="-1239.8" font-family="Arial" font-size="14.00">welcome_skills </text>
<text text-anchor="start" x="147.45" y="-1239.8" font-family="Arial" font-size="14.00" fill="#666666">[text]</text>
<polygon fill="none" stroke="black" points="43.2,-1196.8 43.2,-1227.6 261.9,-1227.6 261.9,-1196.8 43.2,-1196.8"/>
<text text-anchor="start" x="50.2" y="-1209" font-family="Arial" font-size="14.00">required_qualifications </text>
<text text-anchor="start" x="194.18" y="-1209" font-family="Arial" font-size="14.00" fill="#666666">[text]</text>
<polygon fill="none" stroke="black" points="43.2,-1166 43.2,-1196.8 261.9,-1196.8 261.9,-1166 43.2,-1166"/>
<text text-anchor="start" x="50.2" y="-1178.2" font-family="Arial" font-size="14.00">tools </text>
<text text-anchor="start" x="83.66" y="-1178.2" font-family="Arial" font-size="14.00" fill="#666666">[text]</text>
<polygon fill="none" stroke="black" points="43.2,-1135.2 43.2,-1166 261.9,-1166 261.9,-1135.2 43.2,-1135.2"/>
<text text-anchor="start" x="50.2" y="-1147.4" font-family="Arial" font-size="14.00">selection_flow </text>
<text text-anchor="start" x="142.03" y="-1147.4" font-family="Arial" font-size="14.00" fill="#666666">[text]</text>
<polygon fill="none" stroke="black" points="43.2,-1104.4 43.2,-1135.2 261.9,-1135.2 261.9,-1104.4 43.2,-1104.4"/>
<text text-anchor="start" x="50.2" y="-1116.6" font-family="Arial" font-size="14.00">required_documents </text>
<text text-anchor="start" x="181.72" y="-1116.6" font-family="Arial" font-size="14.00" fill="#666666">[text]</text>
<polygon fill="none" stroke="black" points="43.2,-1073.6 43.2,-1104.4 261.9,-1104.4 261.9,-1073.6 43.2,-1073.6"/>
<text text-anchor="start" x="50.2" y="-1085.8" font-family="Arial" font-size="14.00">interview_place </text>
<text text-anchor="start" x="150.59" y="-1085.8" font-family="Arial" font-size="14.00" fill="#666666">[varchar(255)]</text>
<polygon fill="none" stroke="black" points="43.2,-1042.8 43.2,-1073.6 261.9,-1073.6 261.9,-1042.8 43.2,-1042.8"/>
<text text-anchor="start" x="50.2" y="-1055" font-family="Arial" font-size="14.00">benefits </text>
<text text-anchor="start" x="103.12" y="-1055" font-family="Arial" font-size="14.00" fill="#666666">[text]</text>
<polygon fill="none" stroke="black" points="43.2,-1012 43.2,-1042.8 261.9,-1042.8 261.9,-1012 43.2,-1012"/>
<text text-anchor="start" x="50.2" y="-1024.2" font-family="Arial" font-size="14.00">work_time </text>
<text text-anchor="start" x="117.88" y="-1024.2" font-family="Arial" font-size="14.00" fill="#666666">[varchar(255)]</text>
<polygon fill="none" stroke="black" points="43.2,-981.2 43.2,-1012 261.9,-1012 261.9,-981.2 43.2,-981.2"/>
<text text-anchor="start" x="50.2" y="-993.4" font-family="Arial" font-size="14.00">holiday </text>
<text text-anchor="start" x="98.45" y="-993.4" font-family="Arial" font-size="14.00" fill="#666666">[varchar(255)]</text>
<polygon fill="none" stroke="black" points="43.2,-950.4 43.2,-981.2 261.9,-981.2 261.9,-950.4 43.2,-950.4"/>
<text text-anchor="start" x="50.2" y="-962.6" font-family="Arial" font-size="14.00">number_of_positions </text>
<text text-anchor="start" x="184.06" y="-962.6" font-family="Arial" font-size="14.00" fill="#666666">[int]</text>
<polygon fill="none" stroke="black" points="43.2,-919.6 43.2,-950.4 261.9,-950.4 261.9,-919.6 43.2,-919.6"/>
<text text-anchor="start" x="50.2" y="-931.8" font-family="Arial" font-size="14.00">is_active </text>
<text text-anchor="start" x="108.56" y="-931.8" font-family="Arial" font-size="14.00" fill="#666666">[tinyint(1)]</text>
<polygon fill="none" stroke="black" points="43.2,-888.8 43.2,-919.6 261.9,-919.6 261.9,-888.8 43.2,-888.8"/>
<text text-anchor="start" x="50.2" y="-901" font-family="Arial" font-size="14.00">is_featured </text>
<text text-anchor="start" x="123.36" y="-901" font-family="Arial" font-size="14.00" fill="#666666">[tinyint(1)]</text>
<polygon fill="none" stroke="black" points="43.2,-858 43.2,-888.8 261.9,-888.8 261.9,-858 43.2,-858"/>
<text text-anchor="start" x="50.2" y="-870.2" font-family="Arial" font-size="14.00">is_closed </text>
<text text-anchor="start" x="112.45" y="-870.2" font-family="Arial" font-size="14.00" fill="#666666">[tinyint(1)]</text>
<polygon fill="none" stroke="black" points="43.2,-827.2 43.2,-858 261.9,-858 261.9,-827.2 43.2,-827.2"/>
<text text-anchor="start" x="50.2" y="-839.4" font-family="Arial" font-size="14.00">application_deadline </text>
<text text-anchor="start" x="181.75" y="-839.4" font-family="Arial" font-size="14.00" fill="#666666">[date]</text>
<polygon fill="none" stroke="black" points="43.2,-796.4 43.2,-827.2 261.9,-827.2 261.9,-796.4 43.2,-796.4"/>
<text text-anchor="start" x="50.2" y="-808.6" font-family="Arial" font-size="14.00">created_at </text>
<text text-anchor="start" x="120.25" y="-808.6" font-family="Arial" font-size="14.00" fill="#666666">[timestamp]</text>
<polygon fill="none" stroke="black" points="43.2,-765.6 43.2,-796.4 261.9,-796.4 261.9,-765.6 43.2,-765.6"/>
<text text-anchor="start" x="50.2" y="-777.8" font-family="Arial" font-size="14.00">updated_at </text>
<text text-anchor="start" x="124.16" y="-777.8" font-family="Arial" font-size="14.00" fill="#666666">[timestamp]</text>
</g>
<!-- jobs&#45;&gt;locations -->
<g id="edge1" class="edge">
<title>jobs:location_id&#45;&gt;locations:id</title>
<path fill="none" stroke="black" d="M272.78,-1486.32C362.3,-1428.91 351.9,-589.2 255.29,-589.2"/>
<polygon fill="black" stroke="black" points="272.77,-1486.32 261.88,-1485 267.68,-1487.91 263.54,-1489.2 263.54,-1489.2 263.54,-1489.2 267.68,-1487.91 264.56,-1493.6 272.77,-1486.32"/>
<text text-anchor="start" x="269.9" y="-1499.4" font-family="Arial" font-size="10.00">FOREIGN KEY (location_id) REFERENCES locations (id)</text>
</g>
</g>
</svg>
