<?xml version="1.0" encoding="UTF-8" standalone="no"?>
<!DOCTYPE svg PUBLIC "-//W3C//DTD SVG 1.1//EN"
 "http://www.w3.org/Graphics/SVG/1.1/DTD/svg11.dtd">
<!-- Generated by graphviz version 12.1.2 (20240928.0832)
 -->
<!-- Title: saved_jobs Pages: 1 -->
<svg width="697pt" height="1249pt"
 viewBox="0.00 0.00 696.58 1248.80" xmlns="http://www.w3.org/2000/svg" xmlns:xlink="http://www.w3.org/1999/xlink">
<g id="graph0" class="graph" transform="scale(1 1) rotate(0) translate(4 1244.8)">
<title>saved_jobs</title>
<polygon fill="white" stroke="none" points="-4,4 -4,-1244.8 692.58,-1244.8 692.58,4 -4,4"/>
<!-- saved_jobs -->
<g id="node1" class="node">
<title>saved_jobs</title>
<polygon fill="#efefef" stroke="none" points="241.16,-1159 241.16,-1194.6 459.64,-1194.6 459.64,-1159 241.16,-1159"/>
<polygon fill="none" stroke="black" points="241.16,-1159 241.16,-1194.6 459.64,-1194.6 459.64,-1159 241.16,-1159"/>
<text text-anchor="start" x="248.16" y="-1172.4" font-family="Arial Bold" font-size="18.00">saved_jobs</text>
<text text-anchor="start" x="328.15" y="-1172.4" font-family="Arial" font-size="14.00">    </text>
<text text-anchor="start" x="359.26" y="-1172.4" font-family="Arial" font-size="14.00" fill="#666666">[BASE TABLE]</text>
<polygon fill="none" stroke="black" points="241.16,-1128.2 241.16,-1159 459.64,-1159 459.64,-1128.2 241.16,-1128.2"/>
<text text-anchor="start" x="248.16" y="-1140.4" font-family="Arial" font-size="14.00">user_id </text>
<text text-anchor="start" x="297.96" y="-1140.4" font-family="Arial" font-size="14.00" fill="#666666">[bigint unsigned]</text>
<polygon fill="none" stroke="black" points="241.16,-1097.4 241.16,-1128.2 459.64,-1128.2 459.64,-1097.4 241.16,-1097.4"/>
<text text-anchor="start" x="248.16" y="-1109.6" font-family="Arial" font-size="14.00">job_id </text>
<text text-anchor="start" x="289.41" y="-1109.6" font-family="Arial" font-size="14.00" fill="#666666">[bigint unsigned]</text>
<polygon fill="none" stroke="black" points="241.16,-1066.6 241.16,-1097.4 459.64,-1097.4 459.64,-1066.6 241.16,-1066.6"/>
<text text-anchor="start" x="248.16" y="-1078.8" font-family="Arial" font-size="14.00">created_at </text>
<text text-anchor="start" x="318.21" y="-1078.8" font-family="Arial" font-size="14.00" fill="#666666">[timestamp]</text>
<polygon fill="none" stroke="black" points="241.16,-1035.8 241.16,-1066.6 459.64,-1066.6 459.64,-1035.8 241.16,-1035.8"/>
<text text-anchor="start" x="248.16" y="-1048" font-family="Arial" font-size="14.00">updated_at </text>
<text text-anchor="start" x="322.12" y="-1048" font-family="Arial" font-size="14.00" fill="#666666">[timestamp]</text>
<polygon fill="none" stroke="black" stroke-width="3" points="239.66,-1034.3 239.66,-1196.1 461.14,-1196.1 461.14,-1034.3 239.66,-1034.3"/>
</g>
<!-- users -->
<g id="node2" class="node">
<title>users</title>
<polygon fill="#efefef" stroke="none" points="85.97,-613 85.97,-648.6 296.83,-648.6 296.83,-613 85.97,-613"/>
<polygon fill="none" stroke="black" points="85.97,-613 85.97,-648.6 296.83,-648.6 296.83,-613 85.97,-613"/>
<text text-anchor="start" x="110.66" y="-626.4" font-family="Arial Bold" font-size="18.00">users</text>
<text text-anchor="start" x="147.65" y="-626.4" font-family="Arial" font-size="14.00">    </text>
<text text-anchor="start" x="178.77" y="-626.4" font-family="Arial" font-size="14.00" fill="#666666">[BASE TABLE]</text>
<polygon fill="none" stroke="black" points="85.97,-582.2 85.97,-613 296.83,-613 296.83,-582.2 85.97,-582.2"/>
<text text-anchor="start" x="92.97" y="-594.4" font-family="Arial" font-size="14.00">id </text>
<text text-anchor="start" x="107.75" y="-594.4" font-family="Arial" font-size="14.00" fill="#666666">[bigint unsigned]</text>
<polygon fill="none" stroke="black" points="85.97,-551.4 85.97,-582.2 296.83,-582.2 296.83,-551.4 85.97,-551.4"/>
<text text-anchor="start" x="92.97" y="-563.6" font-family="Arial" font-size="14.00">name </text>
<text text-anchor="start" x="131.88" y="-563.6" font-family="Arial" font-size="14.00" fill="#666666">[varchar(255)]</text>
<polygon fill="none" stroke="black" points="85.97,-520.6 85.97,-551.4 296.83,-551.4 296.83,-520.6 85.97,-520.6"/>
<text text-anchor="start" x="92.97" y="-532.8" font-family="Arial" font-size="14.00">email </text>
<text text-anchor="start" x="130.31" y="-532.8" font-family="Arial" font-size="14.00" fill="#666666">[varchar(255)]</text>
<polygon fill="none" stroke="black" points="85.97,-489.8 85.97,-520.6 296.83,-520.6 296.83,-489.8 85.97,-489.8"/>
<text text-anchor="start" x="92.97" y="-502" font-family="Arial" font-size="14.00">email_verified_at </text>
<text text-anchor="start" x="202.69" y="-502" font-family="Arial" font-size="14.00" fill="#666666">[timestamp]</text>
<polygon fill="none" stroke="black" points="85.97,-459 85.97,-489.8 296.83,-489.8 296.83,-459 85.97,-459"/>
<text text-anchor="start" x="92.97" y="-471.2" font-family="Arial" font-size="14.00">phone </text>
<text text-anchor="start" x="135.79" y="-471.2" font-family="Arial" font-size="14.00" fill="#666666">[varchar(255)]</text>
<polygon fill="none" stroke="black" points="85.97,-428.2 85.97,-459 296.83,-459 296.83,-428.2 85.97,-428.2"/>
<text text-anchor="start" x="92.97" y="-440.4" font-family="Arial" font-size="14.00">address </text>
<text text-anchor="start" x="146.66" y="-440.4" font-family="Arial" font-size="14.00" fill="#666666">[varchar(255)]</text>
<polygon fill="none" stroke="black" points="85.97,-397.4 85.97,-428.2 296.83,-428.2 296.83,-397.4 85.97,-397.4"/>
<text text-anchor="start" x="92.97" y="-409.6" font-family="Arial" font-size="14.00">password </text>
<text text-anchor="start" x="156.77" y="-409.6" font-family="Arial" font-size="14.00" fill="#666666">[varchar(255)]</text>
<polygon fill="none" stroke="black" points="85.97,-366.6 85.97,-397.4 296.83,-397.4 296.83,-366.6 85.97,-366.6"/>
<text text-anchor="start" x="92.97" y="-378.8" font-family="Arial" font-size="14.00">remember_token </text>
<text text-anchor="start" x="202.68" y="-378.8" font-family="Arial" font-size="14.00" fill="#666666">[varchar(100)]</text>
<polygon fill="none" stroke="black" points="85.97,-335.8 85.97,-366.6 296.83,-366.6 296.83,-335.8 85.97,-335.8"/>
<text text-anchor="start" x="92.97" y="-348" font-family="Arial" font-size="14.00">created_at </text>
<text text-anchor="start" x="163.01" y="-348" font-family="Arial" font-size="14.00" fill="#666666">[timestamp]</text>
<polygon fill="none" stroke="black" points="85.97,-305 85.97,-335.8 296.83,-335.8 296.83,-305 85.97,-305"/>
<text text-anchor="start" x="92.97" y="-317.2" font-family="Arial" font-size="14.00">updated_at </text>
<text text-anchor="start" x="166.92" y="-317.2" font-family="Arial" font-size="14.00" fill="#666666">[timestamp]</text>
</g>
<!-- saved_jobs&#45;&gt;users -->
<g id="edge1" class="edge">
<title>saved_jobs:user_id&#45;&gt;users:id</title>
<path fill="none" stroke="black" d="M229.93,-1142.03C136.59,-1110.01 416.02,-597.6 297.83,-597.6"/>
<polygon fill="black" stroke="black" points="229.94,-1142.03 239.15,-1148 235.21,-1142.84 239.5,-1143.5 239.5,-1143.5 239.5,-1143.5 235.21,-1142.84 240.51,-1139.1 229.94,-1142.03"/>
<text text-anchor="start" x="7" y="-1153.6" font-family="Arial" font-size="10.00">FOREIGN KEY (user_id) REFERENCES users (id)</text>
</g>
<!-- jobs -->
<g id="node3" class="node">
<title>jobs</title>
<polygon fill="#efefef" stroke="none" points="401.05,-874.8 401.05,-910.4 619.75,-910.4 619.75,-874.8 401.05,-874.8"/>
<polygon fill="none" stroke="black" points="401.05,-874.8 401.05,-910.4 619.75,-910.4 619.75,-874.8 401.05,-874.8"/>
<text text-anchor="start" x="433.15" y="-888.2" font-family="Arial Bold" font-size="18.00">jobs</text>
<text text-anchor="start" x="463.15" y="-888.2" font-family="Arial" font-size="14.00">    </text>
<text text-anchor="start" x="494.27" y="-888.2" font-family="Arial" font-size="14.00" fill="#666666">[BASE TABLE]</text>
<polygon fill="none" stroke="black" points="401.05,-844 401.05,-874.8 619.75,-874.8 619.75,-844 401.05,-844"/>
<text text-anchor="start" x="408.05" y="-856.2" font-family="Arial" font-size="14.00">id </text>
<text text-anchor="start" x="422.83" y="-856.2" font-family="Arial" font-size="14.00" fill="#666666">[bigint unsigned]</text>
<polygon fill="none" stroke="black" points="401.05,-813.2 401.05,-844 619.75,-844 619.75,-813.2 401.05,-813.2"/>
<text text-anchor="start" x="408.05" y="-825.4" font-family="Arial" font-size="14.00">company_id </text>
<text text-anchor="start" x="487.42" y="-825.4" font-family="Arial" font-size="14.00" fill="#666666">[bigint unsigned]</text>
<polygon fill="none" stroke="black" points="401.05,-782.4 401.05,-813.2 619.75,-813.2 619.75,-782.4 401.05,-782.4"/>
<text text-anchor="start" x="408.05" y="-794.6" font-family="Arial" font-size="14.00">job_category_id </text>
<text text-anchor="start" x="510.78" y="-794.6" font-family="Arial" font-size="14.00" fill="#666666">[bigint unsigned]</text>
<polygon fill="none" stroke="black" points="401.05,-751.6 401.05,-782.4 619.75,-782.4 619.75,-751.6 401.05,-751.6"/>
<text text-anchor="start" x="408.05" y="-763.8" font-family="Arial" font-size="14.00">location_id </text>
<text text-anchor="start" x="478.87" y="-763.8" font-family="Arial" font-size="14.00" fill="#666666">[bigint unsigned]</text>
<polygon fill="none" stroke="black" points="401.05,-720.8 401.05,-751.6 619.75,-751.6 619.75,-720.8 401.05,-720.8"/>
<text text-anchor="start" x="408.05" y="-733" font-family="Arial" font-size="14.00">title </text>
<text text-anchor="start" x="433.72" y="-733" font-family="Arial" font-size="14.00" fill="#666666">[varchar(255)]</text>
<polygon fill="none" stroke="black" points="401.05,-690 401.05,-720.8 619.75,-720.8 619.75,-690 401.05,-690"/>
<text text-anchor="start" x="408.05" y="-702.2" font-family="Arial" font-size="14.00">location </text>
<text text-anchor="start" x="460.19" y="-702.2" font-family="Arial" font-size="14.00" fill="#666666">[varchar(255)]</text>
<polygon fill="none" stroke="black" points="401.05,-659.2 401.05,-690 619.75,-690 619.75,-659.2 401.05,-659.2"/>
<text text-anchor="start" x="408.05" y="-671.4" font-family="Arial" font-size="14.00">salary_min </text>
<text text-anchor="start" x="479.62" y="-671.4" font-family="Arial" font-size="14.00" fill="#666666">[int unsigned]</text>
<polygon fill="none" stroke="black" points="401.05,-628.4 401.05,-659.2 619.75,-659.2 619.75,-628.4 401.05,-628.4"/>
<text text-anchor="start" x="408.05" y="-640.6" font-family="Arial" font-size="14.00">salary_max </text>
<text text-anchor="start" x="483.51" y="-640.6" font-family="Arial" font-size="14.00" fill="#666666">[int unsigned]</text>
<polygon fill="none" stroke="black" points="401.05,-597.6 401.05,-628.4 619.75,-628.4 619.75,-597.6 401.05,-597.6"/>
<text text-anchor="start" x="408.05" y="-609.8" font-family="Arial" font-size="14.00">employment_type </text>
<text text-anchor="start" x="522.44" y="-609.8" font-family="Arial" font-size="14.00" fill="#666666">[tinyint]</text>
<polygon fill="none" stroke="black" points="401.05,-566.8 401.05,-597.6 619.75,-597.6 619.75,-566.8 401.05,-566.8"/>
<text text-anchor="start" x="408.05" y="-579" font-family="Arial" font-size="14.00">description </text>
<text text-anchor="start" x="479.64" y="-579" font-family="Arial" font-size="14.00" fill="#666666">[text]</text>
<polygon fill="none" stroke="black" points="401.05,-536 401.05,-566.8 619.75,-566.8 619.75,-536 401.05,-536"/>
<text text-anchor="start" x="408.05" y="-548.2" font-family="Arial" font-size="14.00">requirements </text>
<text text-anchor="start" x="493.64" y="-548.2" font-family="Arial" font-size="14.00" fill="#666666">[text]</text>
<polygon fill="none" stroke="black" points="401.05,-505.2 401.05,-536 619.75,-536 619.75,-505.2 401.05,-505.2"/>
<text text-anchor="start" x="408.05" y="-517.4" font-family="Arial" font-size="14.00">welcome_skills </text>
<text text-anchor="start" x="505.29" y="-517.4" font-family="Arial" font-size="14.00" fill="#666666">[text]</text>
<polygon fill="none" stroke="black" points="401.05,-474.4 401.05,-505.2 619.75,-505.2 619.75,-474.4 401.05,-474.4"/>
<text text-anchor="start" x="408.05" y="-486.6" font-family="Arial" font-size="14.00">required_qualifications </text>
<text text-anchor="start" x="552.02" y="-486.6" font-family="Arial" font-size="14.00" fill="#666666">[text]</text>
<polygon fill="none" stroke="black" points="401.05,-443.6 401.05,-474.4 619.75,-474.4 619.75,-443.6 401.05,-443.6"/>
<text text-anchor="start" x="408.05" y="-455.8" font-family="Arial" font-size="14.00">tools </text>
<text text-anchor="start" x="441.51" y="-455.8" font-family="Arial" font-size="14.00" fill="#666666">[text]</text>
<polygon fill="none" stroke="black" points="401.05,-412.8 401.05,-443.6 619.75,-443.6 619.75,-412.8 401.05,-412.8"/>
<text text-anchor="start" x="408.05" y="-425" font-family="Arial" font-size="14.00">selection_flow </text>
<text text-anchor="start" x="499.87" y="-425" font-family="Arial" font-size="14.00" fill="#666666">[text]</text>
<polygon fill="none" stroke="black" points="401.05,-382 401.05,-412.8 619.75,-412.8 619.75,-382 401.05,-382"/>
<text text-anchor="start" x="408.05" y="-394.2" font-family="Arial" font-size="14.00">required_documents </text>
<text text-anchor="start" x="539.57" y="-394.2" font-family="Arial" font-size="14.00" fill="#666666">[text]</text>
<polygon fill="none" stroke="black" points="401.05,-351.2 401.05,-382 619.75,-382 619.75,-351.2 401.05,-351.2"/>
<text text-anchor="start" x="408.05" y="-363.4" font-family="Arial" font-size="14.00">interview_place </text>
<text text-anchor="start" x="508.43" y="-363.4" font-family="Arial" font-size="14.00" fill="#666666">[varchar(255)]</text>
<polygon fill="none" stroke="black" points="401.05,-320.4 401.05,-351.2 619.75,-351.2 619.75,-320.4 401.05,-320.4"/>
<text text-anchor="start" x="408.05" y="-332.6" font-family="Arial" font-size="14.00">benefits </text>
<text text-anchor="start" x="460.97" y="-332.6" font-family="Arial" font-size="14.00" fill="#666666">[text]</text>
<polygon fill="none" stroke="black" points="401.05,-289.6 401.05,-320.4 619.75,-320.4 619.75,-289.6 401.05,-289.6"/>
<text text-anchor="start" x="408.05" y="-301.8" font-family="Arial" font-size="14.00">work_time </text>
<text text-anchor="start" x="475.73" y="-301.8" font-family="Arial" font-size="14.00" fill="#666666">[varchar(255)]</text>
<polygon fill="none" stroke="black" points="401.05,-258.8 401.05,-289.6 619.75,-289.6 619.75,-258.8 401.05,-258.8"/>
<text text-anchor="start" x="408.05" y="-271" font-family="Arial" font-size="14.00">holiday </text>
<text text-anchor="start" x="456.3" y="-271" font-family="Arial" font-size="14.00" fill="#666666">[varchar(255)]</text>
<polygon fill="none" stroke="black" points="401.05,-228 401.05,-258.8 619.75,-258.8 619.75,-228 401.05,-228"/>
<text text-anchor="start" x="408.05" y="-240.2" font-family="Arial" font-size="14.00">number_of_positions </text>
<text text-anchor="start" x="541.91" y="-240.2" font-family="Arial" font-size="14.00" fill="#666666">[int]</text>
<polygon fill="none" stroke="black" points="401.05,-197.2 401.05,-228 619.75,-228 619.75,-197.2 401.05,-197.2"/>
<text text-anchor="start" x="408.05" y="-209.4" font-family="Arial" font-size="14.00">is_active </text>
<text text-anchor="start" x="466.4" y="-209.4" font-family="Arial" font-size="14.00" fill="#666666">[tinyint(1)]</text>
<polygon fill="none" stroke="black" points="401.05,-166.4 401.05,-197.2 619.75,-197.2 619.75,-166.4 401.05,-166.4"/>
<text text-anchor="start" x="408.05" y="-178.6" font-family="Arial" font-size="14.00">is_featured </text>
<text text-anchor="start" x="481.2" y="-178.6" font-family="Arial" font-size="14.00" fill="#666666">[tinyint(1)]</text>
<polygon fill="none" stroke="black" points="401.05,-135.6 401.05,-166.4 619.75,-166.4 619.75,-135.6 401.05,-135.6"/>
<text text-anchor="start" x="408.05" y="-147.8" font-family="Arial" font-size="14.00">is_closed </text>
<text text-anchor="start" x="470.3" y="-147.8" font-family="Arial" font-size="14.00" fill="#666666">[tinyint(1)]</text>
<polygon fill="none" stroke="black" points="401.05,-104.8 401.05,-135.6 619.75,-135.6 619.75,-104.8 401.05,-104.8"/>
<text text-anchor="start" x="408.05" y="-117" font-family="Arial" font-size="14.00">application_deadline </text>
<text text-anchor="start" x="539.6" y="-117" font-family="Arial" font-size="14.00" fill="#666666">[date]</text>
<polygon fill="none" stroke="black" points="401.05,-74 401.05,-104.8 619.75,-104.8 619.75,-74 401.05,-74"/>
<text text-anchor="start" x="408.05" y="-86.2" font-family="Arial" font-size="14.00">created_at </text>
<text text-anchor="start" x="478.09" y="-86.2" font-family="Arial" font-size="14.00" fill="#666666">[timestamp]</text>
<polygon fill="none" stroke="black" points="401.05,-43.2 401.05,-74 619.75,-74 619.75,-43.2 401.05,-43.2"/>
<text text-anchor="start" x="408.05" y="-55.4" font-family="Arial" font-size="14.00">updated_at </text>
<text text-anchor="start" x="482" y="-55.4" font-family="Arial" font-size="14.00" fill="#666666">[timestamp]</text>
</g>
<!-- saved_jobs&#45;&gt;jobs -->
<g id="edge2" class="edge">
<title>saved_jobs:job_id&#45;&gt;jobs:id</title>
<path fill="none" stroke="black" d="M470.98,-1111.72C511.35,-1102.32 484.66,-1033.93 459.64,-989.6 444.61,-962.99 416.1,-980.2 401.05,-953.6 380.42,-917.17 358.18,-859.4 400.05,-859.4"/>
<polygon fill="black" stroke="black" points="470.91,-1111.72 460.5,-1108.29 465.61,-1112.28 461.3,-1112.73 461.3,-1112.73 461.3,-1112.73 465.61,-1112.28 461.44,-1117.24 470.91,-1111.72"/>
<text text-anchor="start" x="467.64" y="-1122.8" font-family="Arial" font-size="10.00">FOREIGN KEY (job_id) REFERENCES jobs (id)</text>
</g>
</g>
</svg>
