<?xml version="1.0" encoding="UTF-8" standalone="no"?>
<!DOCTYPE svg PUBLIC "-//W3C//DTD SVG 1.1//EN"
 "http://www.w3.org/Graphics/SVG/1.1/DTD/svg11.dtd">
<!-- Generated by graphviz version 12.1.2 (20240928.0832)
 -->
<!-- Title: tags Pages: 1 -->
<svg width="474pt" height="633pt"
 viewBox="0.00 0.00 473.73 632.80" xmlns="http://www.w3.org/2000/svg" xmlns:xlink="http://www.w3.org/1999/xlink">
<g id="graph0" class="graph" transform="scale(1 1) rotate(0) translate(4 628.8)">
<title>tags</title>
<polygon fill="white" stroke="none" points="-4,4 -4,-628.8 469.73,-628.8 469.73,4 -4,4"/>
<!-- tags -->
<g id="node1" class="node">
<title>tags</title>
<polygon fill="#efefef" stroke="none" points="55.7,-231 55.7,-266.6 223.18,-266.6 223.18,-231 55.7,-231"/>
<polygon fill="none" stroke="black" points="55.7,-231 55.7,-266.6 223.18,-266.6 223.18,-231 55.7,-231"/>
<text text-anchor="start" x="62.7" y="-244.4" font-family="Arial Bold" font-size="18.00">tags</text>
<text text-anchor="start" x="91.69" y="-244.4" font-family="Arial" font-size="14.00">    </text>
<text text-anchor="start" x="122.81" y="-244.4" font-family="Arial" font-size="14.00" fill="#666666">[BASE TABLE]</text>
<polygon fill="none" stroke="black" points="55.7,-200.2 55.7,-231 223.18,-231 223.18,-200.2 55.7,-200.2"/>
<text text-anchor="start" x="62.7" y="-212.4" font-family="Arial" font-size="14.00">id </text>
<text text-anchor="start" x="77.48" y="-212.4" font-family="Arial" font-size="14.00" fill="#666666">[bigint unsigned]</text>
<polygon fill="none" stroke="black" points="55.7,-169.4 55.7,-200.2 223.18,-200.2 223.18,-169.4 55.7,-169.4"/>
<text text-anchor="start" x="62.7" y="-181.6" font-family="Arial" font-size="14.00">label </text>
<text text-anchor="start" x="96.17" y="-181.6" font-family="Arial" font-size="14.00" fill="#666666">[varchar(255)]</text>
<polygon fill="none" stroke="black" points="55.7,-138.6 55.7,-169.4 223.18,-169.4 223.18,-138.6 55.7,-138.6"/>
<text text-anchor="start" x="62.7" y="-150.8" font-family="Arial" font-size="14.00">slug </text>
<text text-anchor="start" x="92.27" y="-150.8" font-family="Arial" font-size="14.00" fill="#666666">[varchar(255)]</text>
<polygon fill="none" stroke="black" points="55.7,-107.8 55.7,-138.6 223.18,-138.6 223.18,-107.8 55.7,-107.8"/>
<text text-anchor="start" x="62.7" y="-120" font-family="Arial" font-size="14.00">sort_order </text>
<text text-anchor="start" x="130.39" y="-120" font-family="Arial" font-size="14.00" fill="#666666">[int]</text>
<polygon fill="none" stroke="black" points="55.7,-77 55.7,-107.8 223.18,-107.8 223.18,-77 55.7,-77"/>
<text text-anchor="start" x="62.7" y="-89.2" font-family="Arial" font-size="14.00">created_at </text>
<text text-anchor="start" x="132.75" y="-89.2" font-family="Arial" font-size="14.00" fill="#666666">[timestamp]</text>
<polygon fill="none" stroke="black" points="55.7,-46.2 55.7,-77 223.18,-77 223.18,-46.2 55.7,-46.2"/>
<text text-anchor="start" x="62.7" y="-58.4" font-family="Arial" font-size="14.00">updated_at </text>
<text text-anchor="start" x="136.66" y="-58.4" font-family="Arial" font-size="14.00" fill="#666666">[timestamp]</text>
<polygon fill="none" stroke="black" stroke-width="3" points="54.2,-44.7 54.2,-268.1 224.68,-268.1 224.68,-44.7 54.2,-44.7"/>
</g>
<!-- job_tag -->
<g id="node2" class="node">
<title>job_tag</title>
<polygon fill="#efefef" stroke="none" points="43.2,-546 43.2,-581.6 235.68,-581.6 235.68,-546 43.2,-546"/>
<polygon fill="none" stroke="black" points="43.2,-546 43.2,-581.6 235.68,-581.6 235.68,-546 43.2,-546"/>
<text text-anchor="start" x="50.2" y="-559.4" font-family="Arial Bold" font-size="18.00">job_tag</text>
<text text-anchor="start" x="104.19" y="-559.4" font-family="Arial" font-size="14.00">    </text>
<text text-anchor="start" x="135.31" y="-559.4" font-family="Arial" font-size="14.00" fill="#666666">[BASE TABLE]</text>
<polygon fill="none" stroke="black" points="43.2,-515.2 43.2,-546 235.68,-546 235.68,-515.2 43.2,-515.2"/>
<text text-anchor="start" x="50.2" y="-527.4" font-family="Arial" font-size="14.00">id </text>
<text text-anchor="start" x="64.99" y="-527.4" font-family="Arial" font-size="14.00" fill="#666666">[bigint unsigned]</text>
<polygon fill="none" stroke="black" points="43.2,-484.4 43.2,-515.2 235.68,-515.2 235.68,-484.4 43.2,-484.4"/>
<text text-anchor="start" x="50.2" y="-496.6" font-family="Arial" font-size="14.00">job_id </text>
<text text-anchor="start" x="91.45" y="-496.6" font-family="Arial" font-size="14.00" fill="#666666">[bigint unsigned]</text>
<polygon fill="none" stroke="black" points="43.2,-453.6 43.2,-484.4 235.68,-484.4 235.68,-453.6 43.2,-453.6"/>
<text text-anchor="start" x="50.2" y="-465.8" font-family="Arial" font-size="14.00">tag_id </text>
<text text-anchor="start" x="92.23" y="-465.8" font-family="Arial" font-size="14.00" fill="#666666">[bigint unsigned]</text>
<polygon fill="none" stroke="black" points="43.2,-422.8 43.2,-453.6 235.68,-453.6 235.68,-422.8 43.2,-422.8"/>
<text text-anchor="start" x="50.2" y="-435" font-family="Arial" font-size="14.00">created_at </text>
<text text-anchor="start" x="120.25" y="-435" font-family="Arial" font-size="14.00" fill="#666666">[timestamp]</text>
<polygon fill="none" stroke="black" points="43.2,-392 43.2,-422.8 235.68,-422.8 235.68,-392 43.2,-392"/>
<text text-anchor="start" x="50.2" y="-404.2" font-family="Arial" font-size="14.00">updated_at </text>
<text text-anchor="start" x="124.16" y="-404.2" font-family="Arial" font-size="14.00" fill="#666666">[timestamp]</text>
</g>
<!-- job_tag&#45;&gt;tags -->
<g id="edge1" class="edge">
<title>job_tag:tag_id&#45;&gt;tags:id</title>
<path fill="none" stroke="black" d="M246.45,-466.15C291.33,-438.31 277.04,-215.6 224.18,-215.6"/>
<polygon fill="black" stroke="black" points="246.6,-466.11 235.74,-464.59 241.48,-467.6 237.32,-468.81 237.32,-468.81 237.32,-468.81 241.48,-467.6 238.26,-473.23 246.6,-466.11"/>
<text text-anchor="start" x="243.68" y="-479" font-family="Arial" font-size="10.00">FOREIGN KEY (tag_id) REFERENCES tags (id)</text>
</g>
</g>
</svg>
