<?xml version="1.0" encoding="UTF-8" standalone="no"?>
<!DOCTYPE svg PUBLIC "-//W3C//DTD SVG 1.1//EN"
 "http://www.w3.org/Graphics/SVG/1.1/DTD/svg11.dtd">
<!-- Generated by graphviz version 12.1.2 (20240928.0832)
 -->
<!-- Title: users Pages: 1 -->
<svg width="1612pt" height="972pt"
 viewBox="0.00 0.00 1611.87 971.60" xmlns="http://www.w3.org/2000/svg" xmlns:xlink="http://www.w3.org/1999/xlink">
<g id="graph0" class="graph" transform="scale(1 1) rotate(0) translate(4 967.6)">
<title>users</title>
<polygon fill="white" stroke="none" points="-4,4 -4,-967.6 1607.87,-967.6 1607.87,4 -4,4"/>
<!-- users -->
<g id="node1" class="node">
<title>users</title>
<polygon fill="#efefef" stroke="none" points="685.5,-354.2 685.5,-389.8 896.36,-389.8 896.36,-354.2 685.5,-354.2"/>
<polygon fill="none" stroke="black" points="685.5,-354.2 685.5,-389.8 896.36,-389.8 896.36,-354.2 685.5,-354.2"/>
<text text-anchor="start" x="710.19" y="-367.6" font-family="Arial Bold" font-size="18.00">users</text>
<text text-anchor="start" x="747.18" y="-367.6" font-family="Arial" font-size="14.00">    </text>
<text text-anchor="start" x="778.3" y="-367.6" font-family="Arial" font-size="14.00" fill="#666666">[BASE TABLE]</text>
<polygon fill="none" stroke="black" points="685.5,-323.4 685.5,-354.2 896.36,-354.2 896.36,-323.4 685.5,-323.4"/>
<text text-anchor="start" x="692.5" y="-335.6" font-family="Arial" font-size="14.00">id </text>
<text text-anchor="start" x="707.29" y="-335.6" font-family="Arial" font-size="14.00" fill="#666666">[bigint unsigned]</text>
<polygon fill="none" stroke="black" points="685.5,-292.6 685.5,-323.4 896.36,-323.4 896.36,-292.6 685.5,-292.6"/>
<text text-anchor="start" x="692.5" y="-304.8" font-family="Arial" font-size="14.00">name </text>
<text text-anchor="start" x="731.41" y="-304.8" font-family="Arial" font-size="14.00" fill="#666666">[varchar(255)]</text>
<polygon fill="none" stroke="black" points="685.5,-261.8 685.5,-292.6 896.36,-292.6 896.36,-261.8 685.5,-261.8"/>
<text text-anchor="start" x="692.5" y="-274" font-family="Arial" font-size="14.00">email </text>
<text text-anchor="start" x="729.85" y="-274" font-family="Arial" font-size="14.00" fill="#666666">[varchar(255)]</text>
<polygon fill="none" stroke="black" points="685.5,-231 685.5,-261.8 896.36,-261.8 896.36,-231 685.5,-231"/>
<text text-anchor="start" x="692.5" y="-243.2" font-family="Arial" font-size="14.00">email_verified_at </text>
<text text-anchor="start" x="802.23" y="-243.2" font-family="Arial" font-size="14.00" fill="#666666">[timestamp]</text>
<polygon fill="none" stroke="black" points="685.5,-200.2 685.5,-231 896.36,-231 896.36,-200.2 685.5,-200.2"/>
<text text-anchor="start" x="692.5" y="-212.4" font-family="Arial" font-size="14.00">phone </text>
<text text-anchor="start" x="735.32" y="-212.4" font-family="Arial" font-size="14.00" fill="#666666">[varchar(255)]</text>
<polygon fill="none" stroke="black" points="685.5,-169.4 685.5,-200.2 896.36,-200.2 896.36,-169.4 685.5,-169.4"/>
<text text-anchor="start" x="692.5" y="-181.6" font-family="Arial" font-size="14.00">address </text>
<text text-anchor="start" x="746.2" y="-181.6" font-family="Arial" font-size="14.00" fill="#666666">[varchar(255)]</text>
<polygon fill="none" stroke="black" points="685.5,-138.6 685.5,-169.4 896.36,-169.4 896.36,-138.6 685.5,-138.6"/>
<text text-anchor="start" x="692.5" y="-150.8" font-family="Arial" font-size="14.00">password </text>
<text text-anchor="start" x="756.31" y="-150.8" font-family="Arial" font-size="14.00" fill="#666666">[varchar(255)]</text>
<polygon fill="none" stroke="black" points="685.5,-107.8 685.5,-138.6 896.36,-138.6 896.36,-107.8 685.5,-107.8"/>
<text text-anchor="start" x="692.5" y="-120" font-family="Arial" font-size="14.00">remember_token </text>
<text text-anchor="start" x="802.22" y="-120" font-family="Arial" font-size="14.00" fill="#666666">[varchar(100)]</text>
<polygon fill="none" stroke="black" points="685.5,-77 685.5,-107.8 896.36,-107.8 896.36,-77 685.5,-77"/>
<text text-anchor="start" x="692.5" y="-89.2" font-family="Arial" font-size="14.00">created_at </text>
<text text-anchor="start" x="762.55" y="-89.2" font-family="Arial" font-size="14.00" fill="#666666">[timestamp]</text>
<polygon fill="none" stroke="black" points="685.5,-46.2 685.5,-77 896.36,-77 896.36,-46.2 685.5,-46.2"/>
<text text-anchor="start" x="692.5" y="-58.4" font-family="Arial" font-size="14.00">updated_at </text>
<text text-anchor="start" x="766.46" y="-58.4" font-family="Arial" font-size="14.00" fill="#666666">[timestamp]</text>
<polygon fill="none" stroke="black" stroke-width="3" points="684,-44.7 684,-391.3 897.86,-391.3 897.86,-44.7 684,-44.7"/>
</g>
<!-- applications -->
<g id="node2" class="node">
<title>applications</title>
<polygon fill="#efefef" stroke="none" points="43.2,-838.6 43.2,-874.2 268.67,-874.2 268.67,-838.6 43.2,-838.6"/>
<polygon fill="none" stroke="black" points="43.2,-838.6 43.2,-874.2 268.67,-874.2 268.67,-838.6 43.2,-838.6"/>
<text text-anchor="start" x="50.2" y="-852" font-family="Arial Bold" font-size="18.00">applications</text>
<text text-anchor="start" x="137.18" y="-852" font-family="Arial" font-size="14.00">    </text>
<text text-anchor="start" x="168.29" y="-852" font-family="Arial" font-size="14.00" fill="#666666">[BASE TABLE]</text>
<polygon fill="none" stroke="black" points="43.2,-807.8 43.2,-838.6 268.67,-838.6 268.67,-807.8 43.2,-807.8"/>
<text text-anchor="start" x="50.2" y="-820" font-family="Arial" font-size="14.00">id </text>
<text text-anchor="start" x="64.99" y="-820" font-family="Arial" font-size="14.00" fill="#666666">[bigint unsigned]</text>
<polygon fill="none" stroke="black" points="43.2,-777 43.2,-807.8 268.67,-807.8 268.67,-777 43.2,-777"/>
<text text-anchor="start" x="50.2" y="-789.2" font-family="Arial" font-size="14.00">user_id </text>
<text text-anchor="start" x="100.01" y="-789.2" font-family="Arial" font-size="14.00" fill="#666666">[bigint unsigned]</text>
<polygon fill="none" stroke="black" points="43.2,-746.2 43.2,-777 268.67,-777 268.67,-746.2 43.2,-746.2"/>
<text text-anchor="start" x="50.2" y="-758.4" font-family="Arial" font-size="14.00">job_id </text>
<text text-anchor="start" x="91.45" y="-758.4" font-family="Arial" font-size="14.00" fill="#666666">[bigint unsigned]</text>
<polygon fill="none" stroke="black" points="43.2,-715.4 43.2,-746.2 268.67,-746.2 268.67,-715.4 43.2,-715.4"/>
<text text-anchor="start" x="50.2" y="-727.6" font-family="Arial" font-size="14.00">status </text>
<text text-anchor="start" x="91.44" y="-727.6" font-family="Arial" font-size="14.00" fill="#666666">[tinyint]</text>
<polygon fill="none" stroke="black" points="43.2,-684.6 43.2,-715.4 268.67,-715.4 268.67,-684.6 43.2,-684.6"/>
<text text-anchor="start" x="50.2" y="-696.8" font-family="Arial" font-size="14.00">message </text>
<text text-anchor="start" x="110.9" y="-696.8" font-family="Arial" font-size="14.00" fill="#666666">[text]</text>
<polygon fill="none" stroke="black" points="43.2,-653.8 43.2,-684.6 268.67,-684.6 268.67,-653.8 43.2,-653.8"/>
<text text-anchor="start" x="50.2" y="-666" font-family="Arial" font-size="14.00">motivation </text>
<text text-anchor="start" x="117.9" y="-666" font-family="Arial" font-size="14.00" fill="#666666">[text]</text>
<polygon fill="none" stroke="black" points="43.2,-623 43.2,-653.8 268.67,-653.8 268.67,-623 43.2,-623"/>
<text text-anchor="start" x="50.2" y="-635.2" font-family="Arial" font-size="14.00">resume_path </text>
<text text-anchor="start" x="135.81" y="-635.2" font-family="Arial" font-size="14.00" fill="#666666">[varchar(255)]</text>
<polygon fill="none" stroke="black" points="43.2,-592.2 43.2,-623 268.67,-623 268.67,-592.2 43.2,-592.2"/>
<text text-anchor="start" x="50.2" y="-604.4" font-family="Arial" font-size="14.00">created_at </text>
<text text-anchor="start" x="120.25" y="-604.4" font-family="Arial" font-size="14.00" fill="#666666">[timestamp]</text>
<polygon fill="none" stroke="black" points="43.2,-561.4 43.2,-592.2 268.67,-592.2 268.67,-561.4 43.2,-561.4"/>
<text text-anchor="start" x="50.2" y="-573.6" font-family="Arial" font-size="14.00">updated_at </text>
<text text-anchor="start" x="124.16" y="-573.6" font-family="Arial" font-size="14.00" fill="#666666">[timestamp]</text>
</g>
<!-- applications&#45;&gt;users -->
<g id="edge1" class="edge">
<title>applications:user_id&#45;&gt;users:id</title>
<path fill="none" stroke="black" d="M279.61,-790.41C335.29,-766.05 277.41,-524.82 320.93,-472 430.36,-339.18 512.41,-338.8 684.5,-338.8"/>
<polygon fill="black" stroke="black" points="279.8,-790.38 269.11,-787.92 274.57,-791.42 270.32,-792.27 270.32,-792.27 270.32,-792.27 274.57,-791.42 270.88,-796.75 279.8,-790.38"/>
<text text-anchor="start" x="156.59" y="-776.4" font-family="Arial" font-size="10.00">FOREIGN KEY (user_id) REFERENCES users (id)</text>
</g>
<!-- educations -->
<g id="node3" class="node">
<title>educations</title>
<polygon fill="#efefef" stroke="none" points="373.2,-838.6 373.2,-874.2 588.66,-874.2 588.66,-838.6 373.2,-838.6"/>
<polygon fill="none" stroke="black" points="373.2,-838.6 373.2,-874.2 588.66,-874.2 588.66,-838.6 373.2,-838.6"/>
<text text-anchor="start" x="380.2" y="-852" font-family="Arial Bold" font-size="18.00">educations</text>
<text text-anchor="start" x="457.18" y="-852" font-family="Arial" font-size="14.00">    </text>
<text text-anchor="start" x="488.29" y="-852" font-family="Arial" font-size="14.00" fill="#666666">[BASE TABLE]</text>
<polygon fill="none" stroke="black" points="373.2,-807.8 373.2,-838.6 588.66,-838.6 588.66,-807.8 373.2,-807.8"/>
<text text-anchor="start" x="380.2" y="-820" font-family="Arial" font-size="14.00">id </text>
<text text-anchor="start" x="394.99" y="-820" font-family="Arial" font-size="14.00" fill="#666666">[bigint unsigned]</text>
<polygon fill="none" stroke="black" points="373.2,-777 373.2,-807.8 588.66,-807.8 588.66,-777 373.2,-777"/>
<text text-anchor="start" x="380.2" y="-789.2" font-family="Arial" font-size="14.00">user_id </text>
<text text-anchor="start" x="430.01" y="-789.2" font-family="Arial" font-size="14.00" fill="#666666">[bigint unsigned]</text>
<polygon fill="none" stroke="black" points="373.2,-746.2 373.2,-777 588.66,-777 588.66,-746.2 373.2,-746.2"/>
<text text-anchor="start" x="380.2" y="-758.4" font-family="Arial" font-size="14.00">school_name </text>
<text text-anchor="start" x="467.37" y="-758.4" font-family="Arial" font-size="14.00" fill="#666666">[varchar(255)]</text>
<polygon fill="none" stroke="black" points="373.2,-715.4 373.2,-746.2 588.66,-746.2 588.66,-715.4 373.2,-715.4"/>
<text text-anchor="start" x="380.2" y="-727.6" font-family="Arial" font-size="14.00">degree </text>
<text text-anchor="start" x="427.68" y="-727.6" font-family="Arial" font-size="14.00" fill="#666666">[varchar(255)]</text>
<polygon fill="none" stroke="black" points="373.2,-684.6 373.2,-715.4 588.66,-715.4 588.66,-684.6 373.2,-684.6"/>
<text text-anchor="start" x="380.2" y="-696.8" font-family="Arial" font-size="14.00">major </text>
<text text-anchor="start" x="419.1" y="-696.8" font-family="Arial" font-size="14.00" fill="#666666">[varchar(255)]</text>
<polygon fill="none" stroke="black" points="373.2,-653.8 373.2,-684.6 588.66,-684.6 588.66,-653.8 373.2,-653.8"/>
<text text-anchor="start" x="380.2" y="-666" font-family="Arial" font-size="14.00">start_date </text>
<text text-anchor="start" x="446.35" y="-666" font-family="Arial" font-size="14.00" fill="#666666">[date]</text>
<polygon fill="none" stroke="black" points="373.2,-623 373.2,-653.8 588.66,-653.8 588.66,-623 373.2,-623"/>
<text text-anchor="start" x="380.2" y="-635.2" font-family="Arial" font-size="14.00">end_date </text>
<text text-anchor="start" x="442.48" y="-635.2" font-family="Arial" font-size="14.00" fill="#666666">[date]</text>
<polygon fill="none" stroke="black" points="373.2,-592.2 373.2,-623 588.66,-623 588.66,-592.2 373.2,-592.2"/>
<text text-anchor="start" x="380.2" y="-604.4" font-family="Arial" font-size="14.00">created_at </text>
<text text-anchor="start" x="450.25" y="-604.4" font-family="Arial" font-size="14.00" fill="#666666">[timestamp]</text>
<polygon fill="none" stroke="black" points="373.2,-561.4 373.2,-592.2 588.66,-592.2 588.66,-561.4 373.2,-561.4"/>
<text text-anchor="start" x="380.2" y="-573.6" font-family="Arial" font-size="14.00">updated_at </text>
<text text-anchor="start" x="454.16" y="-573.6" font-family="Arial" font-size="14.00" fill="#666666">[timestamp]</text>
</g>
<!-- educations&#45;&gt;users -->
<g id="edge2" class="edge">
<title>educations:user_id&#45;&gt;users:id</title>
<path fill="none" stroke="black" d="M599.75,-790.76C685.1,-761.07 585.14,-338.8 684.5,-338.8"/>
<polygon fill="black" stroke="black" points="599.86,-790.74 589.27,-787.9 594.6,-791.6 590.33,-792.29 590.33,-792.29 590.33,-792.29 594.6,-791.6 590.72,-796.79 599.86,-790.74"/>
<text text-anchor="start" x="596.66" y="-802.4" font-family="Arial" font-size="10.00">FOREIGN KEY (user_id) REFERENCES users (id)</text>
</g>
<!-- licenses -->
<g id="node4" class="node">
<title>licenses</title>
<polygon fill="#efefef" stroke="none" points="693.2,-792.4 693.2,-828 888.67,-828 888.67,-792.4 693.2,-792.4"/>
<polygon fill="none" stroke="black" points="693.2,-792.4 693.2,-828 888.67,-828 888.67,-792.4 693.2,-792.4"/>
<text text-anchor="start" x="700.2" y="-805.8" font-family="Arial Bold" font-size="18.00">licenses</text>
<text text-anchor="start" x="757.18" y="-805.8" font-family="Arial" font-size="14.00">    </text>
<text text-anchor="start" x="788.3" y="-805.8" font-family="Arial" font-size="14.00" fill="#666666">[BASE TABLE]</text>
<polygon fill="none" stroke="black" points="693.2,-761.6 693.2,-792.4 888.67,-792.4 888.67,-761.6 693.2,-761.6"/>
<text text-anchor="start" x="700.2" y="-773.8" font-family="Arial" font-size="14.00">id </text>
<text text-anchor="start" x="714.98" y="-773.8" font-family="Arial" font-size="14.00" fill="#666666">[bigint unsigned]</text>
<polygon fill="none" stroke="black" points="693.2,-730.8 693.2,-761.6 888.67,-761.6 888.67,-730.8 693.2,-730.8"/>
<text text-anchor="start" x="700.2" y="-743" font-family="Arial" font-size="14.00">user_id </text>
<text text-anchor="start" x="750.01" y="-743" font-family="Arial" font-size="14.00" fill="#666666">[bigint unsigned]</text>
<polygon fill="none" stroke="black" points="693.2,-700 693.2,-730.8 888.67,-730.8 888.67,-700 693.2,-700"/>
<text text-anchor="start" x="700.2" y="-712.2" font-family="Arial" font-size="14.00">name </text>
<text text-anchor="start" x="739.11" y="-712.2" font-family="Arial" font-size="14.00" fill="#666666">[varchar(255)]</text>
<polygon fill="none" stroke="black" points="693.2,-669.2 693.2,-700 888.67,-700 888.67,-669.2 693.2,-669.2"/>
<text text-anchor="start" x="700.2" y="-681.4" font-family="Arial" font-size="14.00">acquired_date </text>
<text text-anchor="start" x="792.83" y="-681.4" font-family="Arial" font-size="14.00" fill="#666666">[date]</text>
<polygon fill="none" stroke="black" points="693.2,-638.4 693.2,-669.2 888.67,-669.2 888.67,-638.4 693.2,-638.4"/>
<text text-anchor="start" x="700.2" y="-650.6" font-family="Arial" font-size="14.00">created_at </text>
<text text-anchor="start" x="770.25" y="-650.6" font-family="Arial" font-size="14.00" fill="#666666">[timestamp]</text>
<polygon fill="none" stroke="black" points="693.2,-607.6 693.2,-638.4 888.67,-638.4 888.67,-607.6 693.2,-607.6"/>
<text text-anchor="start" x="700.2" y="-619.8" font-family="Arial" font-size="14.00">updated_at </text>
<text text-anchor="start" x="774.16" y="-619.8" font-family="Arial" font-size="14.00" fill="#666666">[timestamp]</text>
</g>
<!-- licenses&#45;&gt;users -->
<g id="edge3" class="edge">
<title>licenses:user_id&#45;&gt;users:id</title>
<path fill="none" stroke="black" d="M898.42,-740.75C935.75,-692.4 939.54,-338.8 897.36,-338.8"/>
<polygon fill="black" stroke="black" points="898.44,-740.74 887.57,-742.2 893.91,-743.56 890.24,-745.85 890.24,-745.85 890.24,-745.85 893.91,-743.56 892.33,-749.84 898.44,-740.74"/>
<text text-anchor="start" x="776.59" y="-730.2" font-family="Arial" font-size="10.00">FOREIGN KEY (user_id) REFERENCES users (id)</text>
</g>
<!-- saved_jobs -->
<g id="node5" class="node">
<title>saved_jobs</title>
<polygon fill="#efefef" stroke="none" points="992.69,-761.6 992.69,-797.2 1211.17,-797.2 1211.17,-761.6 992.69,-761.6"/>
<polygon fill="none" stroke="black" points="992.69,-761.6 992.69,-797.2 1211.17,-797.2 1211.17,-761.6 992.69,-761.6"/>
<text text-anchor="start" x="999.69" y="-775" font-family="Arial Bold" font-size="18.00">saved_jobs</text>
<text text-anchor="start" x="1079.68" y="-775" font-family="Arial" font-size="14.00">    </text>
<text text-anchor="start" x="1110.8" y="-775" font-family="Arial" font-size="14.00" fill="#666666">[BASE TABLE]</text>
<polygon fill="none" stroke="black" points="992.69,-730.8 992.69,-761.6 1211.17,-761.6 1211.17,-730.8 992.69,-730.8"/>
<text text-anchor="start" x="999.69" y="-743" font-family="Arial" font-size="14.00">user_id </text>
<text text-anchor="start" x="1049.5" y="-743" font-family="Arial" font-size="14.00" fill="#666666">[bigint unsigned]</text>
<polygon fill="none" stroke="black" points="992.69,-700 992.69,-730.8 1211.17,-730.8 1211.17,-700 992.69,-700"/>
<text text-anchor="start" x="999.69" y="-712.2" font-family="Arial" font-size="14.00">job_id </text>
<text text-anchor="start" x="1040.95" y="-712.2" font-family="Arial" font-size="14.00" fill="#666666">[bigint unsigned]</text>
<polygon fill="none" stroke="black" points="992.69,-669.2 992.69,-700 1211.17,-700 1211.17,-669.2 992.69,-669.2"/>
<text text-anchor="start" x="999.69" y="-681.4" font-family="Arial" font-size="14.00">created_at </text>
<text text-anchor="start" x="1069.74" y="-681.4" font-family="Arial" font-size="14.00" fill="#666666">[timestamp]</text>
<polygon fill="none" stroke="black" points="992.69,-638.4 992.69,-669.2 1211.17,-669.2 1211.17,-638.4 992.69,-638.4"/>
<text text-anchor="start" x="999.69" y="-650.6" font-family="Arial" font-size="14.00">updated_at </text>
<text text-anchor="start" x="1073.65" y="-650.6" font-family="Arial" font-size="14.00" fill="#666666">[timestamp]</text>
</g>
<!-- saved_jobs&#45;&gt;users -->
<g id="edge4" class="edge">
<title>saved_jobs:user_id&#45;&gt;users:id</title>
<path fill="none" stroke="black" d="M981.63,-744.38C905.63,-714.99 986.66,-338.8 897.36,-338.8"/>
<polygon fill="black" stroke="black" points="981.52,-744.37 990.57,-750.57 986.77,-745.31 991.04,-746.08 991.04,-746.08 991.04,-746.08 986.77,-745.31 992.16,-741.71 981.52,-744.37"/>
<text text-anchor="start" x="758.54" y="-756.2" font-family="Arial" font-size="10.00">FOREIGN KEY (user_id) REFERENCES users (id)</text>
</g>
<!-- work_histories -->
<g id="node6" class="node">
<title>work_histories</title>
<polygon fill="#efefef" stroke="none" points="1315.19,-884.8 1315.19,-920.4 1560.67,-920.4 1560.67,-884.8 1315.19,-884.8"/>
<polygon fill="none" stroke="black" points="1315.19,-884.8 1315.19,-920.4 1560.67,-920.4 1560.67,-884.8 1315.19,-884.8"/>
<text text-anchor="start" x="1322.19" y="-898.2" font-family="Arial Bold" font-size="18.00">work_histories</text>
<text text-anchor="start" x="1429.18" y="-898.2" font-family="Arial" font-size="14.00">    </text>
<text text-anchor="start" x="1460.3" y="-898.2" font-family="Arial" font-size="14.00" fill="#666666">[BASE TABLE]</text>
<polygon fill="none" stroke="black" points="1315.19,-854 1315.19,-884.8 1560.67,-884.8 1560.67,-854 1315.19,-854"/>
<text text-anchor="start" x="1322.19" y="-866.2" font-family="Arial" font-size="14.00">id </text>
<text text-anchor="start" x="1336.98" y="-866.2" font-family="Arial" font-size="14.00" fill="#666666">[bigint unsigned]</text>
<polygon fill="none" stroke="black" points="1315.19,-823.2 1315.19,-854 1560.67,-854 1560.67,-823.2 1315.19,-823.2"/>
<text text-anchor="start" x="1322.19" y="-835.4" font-family="Arial" font-size="14.00">user_id </text>
<text text-anchor="start" x="1372" y="-835.4" font-family="Arial" font-size="14.00" fill="#666666">[bigint unsigned]</text>
<polygon fill="none" stroke="black" points="1315.19,-792.4 1315.19,-823.2 1560.67,-823.2 1560.67,-792.4 1315.19,-792.4"/>
<text text-anchor="start" x="1322.19" y="-804.6" font-family="Arial" font-size="14.00">job_title </text>
<text text-anchor="start" x="1374.34" y="-804.6" font-family="Arial" font-size="14.00" fill="#666666">[varchar(255)]</text>
<polygon fill="none" stroke="black" points="1315.19,-761.6 1315.19,-792.4 1560.67,-792.4 1560.67,-761.6 1315.19,-761.6"/>
<text text-anchor="start" x="1322.19" y="-773.8" font-family="Arial" font-size="14.00">company_name </text>
<text text-anchor="start" x="1425.7" y="-773.8" font-family="Arial" font-size="14.00" fill="#666666">[varchar(255)]</text>
<polygon fill="none" stroke="black" points="1315.19,-730.8 1315.19,-761.6 1560.67,-761.6 1560.67,-730.8 1315.19,-730.8"/>
<text text-anchor="start" x="1322.19" y="-743" font-family="Arial" font-size="14.00">location </text>
<text text-anchor="start" x="1374.34" y="-743" font-family="Arial" font-size="14.00" fill="#666666">[varchar(255)]</text>
<polygon fill="none" stroke="black" points="1315.19,-700 1315.19,-730.8 1560.67,-730.8 1560.67,-700 1315.19,-700"/>
<text text-anchor="start" x="1322.19" y="-712.2" font-family="Arial" font-size="14.00">position </text>
<text text-anchor="start" x="1374.34" y="-712.2" font-family="Arial" font-size="14.00" fill="#666666">[varchar(255)]</text>
<polygon fill="none" stroke="black" points="1315.19,-669.2 1315.19,-700 1560.67,-700 1560.67,-669.2 1315.19,-669.2"/>
<text text-anchor="start" x="1322.19" y="-681.4" font-family="Arial" font-size="14.00">is_current </text>
<text text-anchor="start" x="1387.55" y="-681.4" font-family="Arial" font-size="14.00" fill="#666666">[tinyint(1)]</text>
<polygon fill="none" stroke="black" points="1315.19,-638.4 1315.19,-669.2 1560.67,-669.2 1560.67,-638.4 1315.19,-638.4"/>
<text text-anchor="start" x="1322.19" y="-650.6" font-family="Arial" font-size="14.00">start_date </text>
<text text-anchor="start" x="1388.35" y="-650.6" font-family="Arial" font-size="14.00" fill="#666666">[date]</text>
<polygon fill="none" stroke="black" points="1315.19,-607.6 1315.19,-638.4 1560.67,-638.4 1560.67,-607.6 1315.19,-607.6"/>
<text text-anchor="start" x="1322.19" y="-619.8" font-family="Arial" font-size="14.00">end_date </text>
<text text-anchor="start" x="1384.48" y="-619.8" font-family="Arial" font-size="14.00" fill="#666666">[date]</text>
<polygon fill="none" stroke="black" points="1315.19,-576.8 1315.19,-607.6 1560.67,-607.6 1560.67,-576.8 1315.19,-576.8"/>
<text text-anchor="start" x="1322.19" y="-589" font-family="Arial" font-size="14.00">description </text>
<text text-anchor="start" x="1393.79" y="-589" font-family="Arial" font-size="14.00" fill="#666666">[text]</text>
<polygon fill="none" stroke="black" points="1315.19,-546 1315.19,-576.8 1560.67,-576.8 1560.67,-546 1315.19,-546"/>
<text text-anchor="start" x="1322.19" y="-558.2" font-family="Arial" font-size="14.00">created_at </text>
<text text-anchor="start" x="1392.24" y="-558.2" font-family="Arial" font-size="14.00" fill="#666666">[timestamp]</text>
<polygon fill="none" stroke="black" points="1315.19,-515.2 1315.19,-546 1560.67,-546 1560.67,-515.2 1315.19,-515.2"/>
<text text-anchor="start" x="1322.19" y="-527.4" font-family="Arial" font-size="14.00">updated_at </text>
<text text-anchor="start" x="1396.15" y="-527.4" font-family="Arial" font-size="14.00" fill="#666666">[timestamp]</text>
</g>
<!-- work_histories&#45;&gt;users -->
<g id="edge5" class="edge">
<title>work_histories:user_id&#45;&gt;users:id</title>
<path fill="none" stroke="black" d="M1304.08,-836.82C1239.1,-811.89 1312.34,-533.08 1262.93,-472 1208.56,-404.78 983.83,-338.8 897.36,-338.8"/>
<polygon fill="black" stroke="black" points="1304.02,-836.81 1313.08,-842.97 1309.27,-837.73 1313.53,-838.48 1313.53,-838.48 1313.53,-838.48 1309.27,-837.73 1314.65,-834.11 1304.02,-836.81"/>
<text text-anchor="start" x="1081.04" y="-848.6" font-family="Arial" font-size="10.00">FOREIGN KEY (user_id) REFERENCES users (id)</text>
</g>
</g>
</svg>
