<?xml version="1.0" encoding="UTF-8" standalone="no"?>
<!DOCTYPE svg PUBLIC "-//W3C//DTD SVG 1.1//EN"
 "http://www.w3.org/Graphics/SVG/1.1/DTD/svg11.dtd">
<!-- Generated by graphviz version 12.1.2 (20240928.0832)
 -->
<!-- Title: work_histories Pages: 1 -->
<svg width="541pt" height="972pt"
 viewBox="0.00 0.00 540.84 971.60" xmlns="http://www.w3.org/2000/svg" xmlns:xlink="http://www.w3.org/1999/xlink">
<g id="graph0" class="graph" transform="scale(1 1) rotate(0) translate(4 967.6)">
<title>work_histories</title>
<polygon fill="white" stroke="none" points="-4,4 -4,-967.6 536.84,-967.6 536.84,4 -4,4"/>
<!-- work_histories -->
<g id="node1" class="node">
<title>work_histories</title>
<polygon fill="#efefef" stroke="none" points="46.2,-881.8 46.2,-917.4 291.68,-917.4 291.68,-881.8 46.2,-881.8"/>
<polygon fill="none" stroke="black" points="46.2,-881.8 46.2,-917.4 291.68,-917.4 291.68,-881.8 46.2,-881.8"/>
<text text-anchor="start" x="53.2" y="-895.2" font-family="Arial Bold" font-size="18.00">work_histories</text>
<text text-anchor="start" x="160.19" y="-895.2" font-family="Arial" font-size="14.00">    </text>
<text text-anchor="start" x="191.31" y="-895.2" font-family="Arial" font-size="14.00" fill="#666666">[BASE TABLE]</text>
<polygon fill="none" stroke="black" points="46.2,-851 46.2,-881.8 291.68,-881.8 291.68,-851 46.2,-851"/>
<text text-anchor="start" x="53.2" y="-863.2" font-family="Arial" font-size="14.00">id </text>
<text text-anchor="start" x="67.99" y="-863.2" font-family="Arial" font-size="14.00" fill="#666666">[bigint unsigned]</text>
<polygon fill="none" stroke="black" points="46.2,-820.2 46.2,-851 291.68,-851 291.68,-820.2 46.2,-820.2"/>
<text text-anchor="start" x="53.2" y="-832.4" font-family="Arial" font-size="14.00">user_id </text>
<text text-anchor="start" x="103.01" y="-832.4" font-family="Arial" font-size="14.00" fill="#666666">[bigint unsigned]</text>
<polygon fill="none" stroke="black" points="46.2,-789.4 46.2,-820.2 291.68,-820.2 291.68,-789.4 46.2,-789.4"/>
<text text-anchor="start" x="53.2" y="-801.6" font-family="Arial" font-size="14.00">job_title </text>
<text text-anchor="start" x="105.34" y="-801.6" font-family="Arial" font-size="14.00" fill="#666666">[varchar(255)]</text>
<polygon fill="none" stroke="black" points="46.2,-758.6 46.2,-789.4 291.68,-789.4 291.68,-758.6 46.2,-758.6"/>
<text text-anchor="start" x="53.2" y="-770.8" font-family="Arial" font-size="14.00">company_name </text>
<text text-anchor="start" x="156.7" y="-770.8" font-family="Arial" font-size="14.00" fill="#666666">[varchar(255)]</text>
<polygon fill="none" stroke="black" points="46.2,-727.8 46.2,-758.6 291.68,-758.6 291.68,-727.8 46.2,-727.8"/>
<text text-anchor="start" x="53.2" y="-740" font-family="Arial" font-size="14.00">location </text>
<text text-anchor="start" x="105.34" y="-740" font-family="Arial" font-size="14.00" fill="#666666">[varchar(255)]</text>
<polygon fill="none" stroke="black" points="46.2,-697 46.2,-727.8 291.68,-727.8 291.68,-697 46.2,-697"/>
<text text-anchor="start" x="53.2" y="-709.2" font-family="Arial" font-size="14.00">position </text>
<text text-anchor="start" x="105.34" y="-709.2" font-family="Arial" font-size="14.00" fill="#666666">[varchar(255)]</text>
<polygon fill="none" stroke="black" points="46.2,-666.2 46.2,-697 291.68,-697 291.68,-666.2 46.2,-666.2"/>
<text text-anchor="start" x="53.2" y="-678.4" font-family="Arial" font-size="14.00">is_current </text>
<text text-anchor="start" x="118.56" y="-678.4" font-family="Arial" font-size="14.00" fill="#666666">[tinyint(1)]</text>
<polygon fill="none" stroke="black" points="46.2,-635.4 46.2,-666.2 291.68,-666.2 291.68,-635.4 46.2,-635.4"/>
<text text-anchor="start" x="53.2" y="-647.6" font-family="Arial" font-size="14.00">start_date </text>
<text text-anchor="start" x="119.35" y="-647.6" font-family="Arial" font-size="14.00" fill="#666666">[date]</text>
<polygon fill="none" stroke="black" points="46.2,-604.6 46.2,-635.4 291.68,-635.4 291.68,-604.6 46.2,-604.6"/>
<text text-anchor="start" x="53.2" y="-616.8" font-family="Arial" font-size="14.00">end_date </text>
<text text-anchor="start" x="115.48" y="-616.8" font-family="Arial" font-size="14.00" fill="#666666">[date]</text>
<polygon fill="none" stroke="black" points="46.2,-573.8 46.2,-604.6 291.68,-604.6 291.68,-573.8 46.2,-573.8"/>
<text text-anchor="start" x="53.2" y="-586" font-family="Arial" font-size="14.00">description </text>
<text text-anchor="start" x="124.79" y="-586" font-family="Arial" font-size="14.00" fill="#666666">[text]</text>
<polygon fill="none" stroke="black" points="46.2,-543 46.2,-573.8 291.68,-573.8 291.68,-543 46.2,-543"/>
<text text-anchor="start" x="53.2" y="-555.2" font-family="Arial" font-size="14.00">created_at </text>
<text text-anchor="start" x="123.25" y="-555.2" font-family="Arial" font-size="14.00" fill="#666666">[timestamp]</text>
<polygon fill="none" stroke="black" points="46.2,-512.2 46.2,-543 291.68,-543 291.68,-512.2 46.2,-512.2"/>
<text text-anchor="start" x="53.2" y="-524.4" font-family="Arial" font-size="14.00">updated_at </text>
<text text-anchor="start" x="127.16" y="-524.4" font-family="Arial" font-size="14.00" fill="#666666">[timestamp]</text>
<polygon fill="none" stroke="black" stroke-width="3" points="44.7,-510.7 44.7,-918.9 293.18,-918.9 293.18,-510.7 44.7,-510.7"/>
</g>
<!-- users -->
<g id="node2" class="node">
<title>users</title>
<polygon fill="#efefef" stroke="none" points="63.51,-351.2 63.51,-386.8 274.37,-386.8 274.37,-351.2 63.51,-351.2"/>
<polygon fill="none" stroke="black" points="63.51,-351.2 63.51,-386.8 274.37,-386.8 274.37,-351.2 63.51,-351.2"/>
<text text-anchor="start" x="88.2" y="-364.6" font-family="Arial Bold" font-size="18.00">users</text>
<text text-anchor="start" x="125.19" y="-364.6" font-family="Arial" font-size="14.00">    </text>
<text text-anchor="start" x="156.31" y="-364.6" font-family="Arial" font-size="14.00" fill="#666666">[BASE TABLE]</text>
<polygon fill="none" stroke="black" points="63.51,-320.4 63.51,-351.2 274.37,-351.2 274.37,-320.4 63.51,-320.4"/>
<text text-anchor="start" x="70.51" y="-332.6" font-family="Arial" font-size="14.00">id </text>
<text text-anchor="start" x="85.29" y="-332.6" font-family="Arial" font-size="14.00" fill="#666666">[bigint unsigned]</text>
<polygon fill="none" stroke="black" points="63.51,-289.6 63.51,-320.4 274.37,-320.4 274.37,-289.6 63.51,-289.6"/>
<text text-anchor="start" x="70.51" y="-301.8" font-family="Arial" font-size="14.00">name </text>
<text text-anchor="start" x="109.42" y="-301.8" font-family="Arial" font-size="14.00" fill="#666666">[varchar(255)]</text>
<polygon fill="none" stroke="black" points="63.51,-258.8 63.51,-289.6 274.37,-289.6 274.37,-258.8 63.51,-258.8"/>
<text text-anchor="start" x="70.51" y="-271" font-family="Arial" font-size="14.00">email </text>
<text text-anchor="start" x="107.85" y="-271" font-family="Arial" font-size="14.00" fill="#666666">[varchar(255)]</text>
<polygon fill="none" stroke="black" points="63.51,-228 63.51,-258.8 274.37,-258.8 274.37,-228 63.51,-228"/>
<text text-anchor="start" x="70.51" y="-240.2" font-family="Arial" font-size="14.00">email_verified_at </text>
<text text-anchor="start" x="180.23" y="-240.2" font-family="Arial" font-size="14.00" fill="#666666">[timestamp]</text>
<polygon fill="none" stroke="black" points="63.51,-197.2 63.51,-228 274.37,-228 274.37,-197.2 63.51,-197.2"/>
<text text-anchor="start" x="70.51" y="-209.4" font-family="Arial" font-size="14.00">phone </text>
<text text-anchor="start" x="113.33" y="-209.4" font-family="Arial" font-size="14.00" fill="#666666">[varchar(255)]</text>
<polygon fill="none" stroke="black" points="63.51,-166.4 63.51,-197.2 274.37,-197.2 274.37,-166.4 63.51,-166.4"/>
<text text-anchor="start" x="70.51" y="-178.6" font-family="Arial" font-size="14.00">address </text>
<text text-anchor="start" x="124.2" y="-178.6" font-family="Arial" font-size="14.00" fill="#666666">[varchar(255)]</text>
<polygon fill="none" stroke="black" points="63.51,-135.6 63.51,-166.4 274.37,-166.4 274.37,-135.6 63.51,-135.6"/>
<text text-anchor="start" x="70.51" y="-147.8" font-family="Arial" font-size="14.00">password </text>
<text text-anchor="start" x="134.32" y="-147.8" font-family="Arial" font-size="14.00" fill="#666666">[varchar(255)]</text>
<polygon fill="none" stroke="black" points="63.51,-104.8 63.51,-135.6 274.37,-135.6 274.37,-104.8 63.51,-104.8"/>
<text text-anchor="start" x="70.51" y="-117" font-family="Arial" font-size="14.00">remember_token </text>
<text text-anchor="start" x="180.23" y="-117" font-family="Arial" font-size="14.00" fill="#666666">[varchar(100)]</text>
<polygon fill="none" stroke="black" points="63.51,-74 63.51,-104.8 274.37,-104.8 274.37,-74 63.51,-74"/>
<text text-anchor="start" x="70.51" y="-86.2" font-family="Arial" font-size="14.00">created_at </text>
<text text-anchor="start" x="140.56" y="-86.2" font-family="Arial" font-size="14.00" fill="#666666">[timestamp]</text>
<polygon fill="none" stroke="black" points="63.51,-43.2 63.51,-74 274.37,-74 274.37,-43.2 63.51,-43.2"/>
<text text-anchor="start" x="70.51" y="-55.4" font-family="Arial" font-size="14.00">updated_at </text>
<text text-anchor="start" x="144.47" y="-55.4" font-family="Arial" font-size="14.00" fill="#666666">[timestamp]</text>
</g>
<!-- work_histories&#45;&gt;users -->
<g id="edge1" class="edge">
<title>work_histories:user_id&#45;&gt;users:id</title>
<path fill="none" stroke="black" d="M302.72,-834.17C402.64,-804.85 383.03,-335.8 275.37,-335.8"/>
<polygon fill="black" stroke="black" points="302.91,-834.14 292.37,-831.1 297.63,-834.89 293.34,-835.51 293.34,-835.51 293.34,-835.51 297.63,-834.89 293.65,-840.01 302.91,-834.14"/>
<text text-anchor="start" x="299.68" y="-845.6" font-family="Arial" font-size="10.00">FOREIGN KEY (user_id) REFERENCES users (id)</text>
</g>
</g>
</svg>
